<?xml version="1.0" encoding="UTF-8" standalone="no"?>
<svg xmlns:ffdec="https://www.free-decompiler.com/flash" xmlns:xlink="http://www.w3.org/1999/xlink" ffdec:objectType="shape" height="19.25px" width="19.9px" xmlns="http://www.w3.org/2000/svg">
  <g transform="matrix(1.0, 0.0, 0.0, 1.0, -6.05, -6.4)">
    <path d="M25.75 8.9 Q25.75 11.8 24.1 11.8 21.95 11.8 21.4 10.75 21.1 10.2 21.25 9.6 21.25 6.5 23.5 6.4 25.75 6.25 25.75 8.9 M20.95 16.35 L21.2 15.2 Q21.2 13.75 19.6 14.9 L17.95 16.4 Q18.0 17.25 18.55 17.25 20.35 17.25 20.95 16.35 M23.5 16.1 Q23.5 21.55 16.45 21.55 12.85 21.55 11.75 19.45 11.2 18.35 11.35 17.2 11.35 14.6 13.25 12.85 14.95 11.25 17.45 11.0 19.9 10.75 21.6 12.0 23.5 13.4 23.5 16.1 M25.95 22.45 L25.5 24.15 Q24.9 25.45 24.1 25.45 23.6 25.45 22.35 24.45 L21.15 23.3 Q21.15 21.3 23.55 20.8 25.95 20.35 25.95 22.45 M18.05 22.85 L18.1 23.5 17.75 24.5 17.2 25.3 Q16.4 24.3 17.0 23.2 L16.35 23.15 16.45 24.3 Q16.4 25.6 15.4 25.6 14.25 25.6 14.05 23.4 14.05 21.25 15.25 21.8 L16.15 22.7 17.1 22.55 17.95 22.6 18.05 22.85 M20.55 22.6 L20.2 24.1 19.65 25.5 Q20.05 25.65 19.3 25.65 18.4 25.65 18.45 23.65 18.45 22.9 19.5 22.05 20.55 21.15 20.55 22.6 M12.65 10.3 Q11.85 11.2 10.6 11.2 9.25 11.2 8.8 10.45 8.65 10.1 8.65 9.4 8.65 6.5 11.0 6.45 13.3 6.4 13.3 8.65 13.3 9.55 12.65 10.3 M16.15 19.9 Q16.15 20.45 17.3 20.45 18.3 20.45 18.3 19.8 18.3 17.45 17.25 18.1 16.15 18.75 16.15 19.9 M14.7 14.55 Q14.05 14.85 14.05 15.8 14.05 16.2 14.2 16.6 14.55 17.35 15.5 17.35 L16.9 17.05 17.15 16.2 16.8 15.65 Q15.9 15.5 14.7 14.55 M10.4 23.2 Q9.9 24.25 8.8 24.25 6.8 24.25 6.25 23.15 6.0 22.6 6.1 22.0 6.1 21.25 6.7 20.55 7.5 19.65 8.75 19.65 10.4 19.65 10.75 20.65 L10.75 21.75 Q10.75 22.55 10.4 23.2" fill="#ff3300" fill-rule="evenodd" stroke="none"/>
  </g>
</svg>
