<?xml version="1.0" encoding="UTF-8" standalone="no"?>
<svg xmlns:ffdec="https://www.free-decompiler.com/flash" xmlns:xlink="http://www.w3.org/1999/xlink" ffdec:objectType="shape" height="26.4px" width="26.25px" xmlns="http://www.w3.org/2000/svg">
  <g transform="matrix(1.0, 0.0, 0.0, 1.0, -2.9, -2.8)">
    <path d="M18.65 9.75 Q17.05 11.45 15.8 11.45 14.25 11.45 13.85 10.4 L13.75 9.7 13.6 9.55 13.5 9.05 Q13.5 8.65 13.95 8.15 14.5 6.65 16.95 6.15 20.15 5.45 20.15 7.45 20.15 8.15 18.65 9.75 M21.65 16.7 Q21.65 17.3 21.1 17.95 20.45 18.7 19.65 18.7 18.4 18.7 18.4 17.9 18.4 16.8 20.05 16.05 21.65 15.25 21.65 16.7 M26.15 12.2 Q26.15 8.9 23.4 7.65 20.05 6.05 19.4 4.55 15.55 3.6 13.15 7.45 11.4 10.3 11.4 12.65 L11.15 13.8 10.9 14.95 Q10.9 16.75 11.9 18.15 L12.3 18.65 13.6 19.6 Q15.35 20.55 18.15 20.55 22.25 20.55 24.6 16.5 26.15 13.8 26.15 12.2 M26.0 5.6 Q29.15 8.35 29.15 12.05 29.15 14.25 27.35 17.8 24.55 23.2 19.65 23.2 16.05 23.2 13.65 22.2 L10.95 25.3 Q7.35 29.2 5.65 29.2 4.25 29.2 3.45 28.4 2.9 27.8 2.9 27.15 2.9 25.85 4.8 23.15 L7.4 19.7 Q8.3 18.5 9.35 18.15 8.95 17.25 8.9 16.3 8.9 9.25 12.05 5.65 14.8 2.6 19.05 2.8 22.95 2.95 26.0 5.6" fill="#a5f231" fill-rule="evenodd" stroke="none"/>
  </g>
</svg>
