<?xml version="1.0" encoding="UTF-8" standalone="no"?>
<svg xmlns:ffdec="https://www.free-decompiler.com/flash" xmlns:xlink="http://www.w3.org/1999/xlink" ffdec:objectType="shape" height="27.95px" width="28.75px" xmlns="http://www.w3.org/2000/svg">
  <g transform="matrix(1.0, 0.0, 0.0, 1.0, -1.65, -2.05)">
    <path d="M16.05 6.65 L16.25 8.3 Q16.25 9.1 15.4 9.25 L15.0 9.65 14.0 10.0 Q12.95 10.0 11.15 9.1 9.5 8.2 9.5 7.9 9.5 6.75 11.25 6.85 L11.1 6.7 Q10.0 5.3 8.95 5.3 6.85 5.3 6.15 7.65 5.35 10.55 5.0 10.8 4.0 10.2 4.0 8.2 4.0 3.05 9.3 2.95 11.4 2.9 12.95 3.9 L13.4 4.25 13.2 3.05 Q13.2 1.3 14.5 2.55 15.8 3.8 15.85 4.55 L16.05 6.65" fill="#a5f231" fill-rule="evenodd" stroke="none"/>
    <path d="M1.65 14.6 Q1.65 13.95 2.2 13.7 3.15 13.25 5.65 13.15 6.45 11.9 10.1 15.6 12.4 17.95 14.7 21.05 L14.8 21.1 14.8 21.15 14.8 21.4 14.8 22.3 14.4 28.15 14.4 28.2 Q14.9 28.4 14.9 28.75 14.9 29.6 14.25 29.75 L10.3 30.0 2.65 29.5 Q2.35 29.4 2.35 28.75 L2.55 28.2 Q1.4 28.0 1.75 24.05 L2.1 15.6 Q1.65 15.3 1.65 14.6 M7.65 18.3 Q7.8 19.05 9.75 19.45 L8.8 18.35 7.55 16.8 7.65 18.3 M5.9 16.05 L2.9 15.8 3.25 18.85 3.65 24.1 3.65 26.45 Q3.55 27.45 3.25 27.9 L8.9 27.6 11.9 27.65 Q11.65 24.15 11.7 21.95 L10.65 22.0 Q7.35 22.0 6.15 20.6 5.6 19.9 5.65 19.15 5.65 17.2 5.9 16.05" fill="#a5f231" fill-rule="evenodd" stroke="none"/>
    <path d="M17.15 9.1 Q17.15 8.45 17.7 8.2 18.65 7.75 21.15 7.65 21.95 6.4 25.6 10.1 27.9 12.45 30.2 15.55 L30.3 15.6 30.3 15.65 30.3 15.9 30.3 16.8 29.9 22.65 29.9 22.7 Q30.4 22.9 30.4 23.25 30.4 24.1 29.75 24.25 L25.8 24.5 18.15 24.0 Q17.85 23.9 17.85 23.25 L18.05 22.7 Q16.9 22.5 17.25 18.55 L17.6 10.1 Q17.15 9.8 17.15 9.1 M23.15 12.8 Q23.3 13.55 25.25 13.95 L24.3 12.85 23.05 11.3 23.15 12.8 M18.4 10.3 L18.75 13.35 19.15 18.6 19.15 20.95 Q19.05 21.95 18.75 22.4 L24.4 22.1 27.4 22.15 Q27.15 18.65 27.2 16.45 L26.15 16.5 Q22.85 16.5 21.65 15.1 21.1 14.4 21.15 13.65 21.15 11.7 21.4 10.55 L18.4 10.3" fill="#a5f231" fill-rule="evenodd" stroke="none"/>
  </g>
</svg>
