<?xml version="1.0" encoding="UTF-8" standalone="no"?>
<svg xmlns:ffdec="https://www.free-decompiler.com/flash" xmlns:xlink="http://www.w3.org/1999/xlink" ffdec:objectType="shape" height="13.65px" width="30.3px" xmlns="http://www.w3.org/2000/svg">
  <g transform="matrix(1.0, 0.0, 0.0, 1.0, -0.85, -9.2)">
    <path d="M17.3 9.2 Q18.3 9.2 18.3 10.55 18.3 11.9 17.25 11.9 16.5 11.9 16.3 11.05 L16.3 10.45 Q16.3 9.2 17.3 9.2 M25.1 16.8 L25.1 16.85 25.2 18.65 25.15 21.5 24.4 21.85 Q23.75 21.25 23.6 20.3 L23.55 18.7 23.6 16.9 21.7 17.0 21.0 16.15 Q21.0 14.6 26.1 14.2 31.15 13.8 31.15 15.2 31.15 16.35 28.85 16.6 L25.1 16.8 M18.3 22.15 L17.85 22.4 Q17.25 22.0 17.1 21.05 L17.05 19.35 Q16.9 15.35 18.0 14.7 18.65 15.4 18.75 19.4 L18.3 22.15 M4.6 15.65 L7.0 15.2 Q7.15 14.9 7.15 15.65 7.15 16.0 5.15 16.55 L2.8 17.0 2.3 16.95 2.35 17.65 2.4 18.6 Q4.15 17.85 5.6 17.9 5.8 17.95 5.8 18.7 5.8 19.25 4.7 19.75 L2.8 20.15 2.4 19.9 2.35 20.65 Q2.35 21.05 3.4 21.05 L6.4 20.0 6.75 20.25 6.7 19.95 Q6.7 18.95 8.5 17.45 L7.3 15.95 Q7.3 14.15 10.15 16.25 11.45 15.35 12.5 14.9 L12.75 15.0 12.8 15.45 11.3 17.15 Q14.65 19.95 14.65 20.75 L14.5 22.25 Q14.5 22.45 13.75 22.45 12.75 22.45 9.55 18.75 L7.3 20.5 7.05 20.5 7.45 20.8 Q7.45 21.5 6.2 22.15 4.9 22.85 3.4 22.85 1.75 22.85 1.15 22.15 0.85 21.8 0.85 21.35 0.85 17.7 1.45 15.45 1.9 15.7 2.15 16.4 2.8 16.05 4.6 15.65" fill="#a5f231" fill-rule="evenodd" stroke="none"/>
  </g>
</svg>
