<?xml version="1.0" encoding="UTF-8" standalone="no"?>
<svg xmlns:ffdec="https://www.free-decompiler.com/flash" xmlns:xlink="http://www.w3.org/1999/xlink" ffdec:objectType="shape" height="27.85px" width="27.6px" xmlns="http://www.w3.org/2000/svg">
  <g transform="matrix(1.0, 0.0, 0.0, 1.0, -2.2, -2.1)">
    <path d="M26.5 3.5 Q25.55 3.5 25.2 4.15 25.05 4.45 25.05 4.85 L25.2 5.3 25.35 5.75 25.65 6.4 Q24.65 5.75 24.35 5.05 24.15 4.6 24.15 3.55 24.15 1.85 27.0 2.15 29.8 2.45 29.8 4.9 L24.55 11.5 Q23.95 11.5 23.75 10.85 L23.7 10.15 Q23.7 9.0 26.05 6.95 28.35 4.95 28.35 4.35 28.35 3.5 26.5 3.5 M23.65 12.35 Q23.65 11.6 24.95 11.6 26.7 11.6 26.7 12.65 L26.6 13.6 Q26.4 14.2 25.55 14.2 24.65 14.2 24.1 13.3 23.65 12.7 23.65 12.35 M22.35 14.95 L22.3 15.85 23.65 16.0 Q27.25 16.45 27.25 16.85 27.25 17.65 23.9 17.65 L24.25 17.55 22.0 17.5 21.3 19.45 Q19.45 23.65 15.0 23.65 L13.65 23.65 13.9 27.25 Q13.95 29.95 12.5 29.95 11.95 29.95 11.95 29.4 L12.15 28.8 12.35 28.15 12.05 23.85 12.05 23.5 Q8.85 23.05 7.15 21.7 5.5 20.35 5.5 18.55 L5.5 18.25 3.4 18.55 2.8 18.25 2.3 17.85 2.2 17.8 5.7 16.85 Q6.15 14.75 7.75 12.75 9.65 10.25 12.75 9.15 L12.7 8.1 12.85 6.8 Q13.0 5.7 13.25 5.5 L13.9 8.8 17.8 8.3 Q20.4 8.55 21.6 11.2 22.35 12.95 22.35 14.95 M20.65 14.95 Q20.65 10.0 17.8 10.15 L14.15 10.95 14.45 15.65 14.45 15.9 17.65 15.65 20.65 15.7 20.65 14.95 M17.4 17.35 L14.3 17.4 13.75 22.0 14.0 22.0 Q18.3 22.0 19.9 18.5 L20.3 17.45 17.4 17.35 M7.7 16.5 L12.85 16.0 13.0 14.7 12.85 11.3 11.75 10.9 Q9.7 10.9 8.15 14.6 L7.45 16.55 7.7 16.5 M12.65 17.5 L7.55 17.95 7.05 18.05 6.95 18.35 Q6.95 19.85 8.4 20.8 9.7 21.7 12.15 21.95 L12.55 18.05 12.65 17.5" fill="#a5f231" fill-rule="evenodd" stroke="none"/>
  </g>
</svg>
