<?xml version="1.0" encoding="UTF-8" standalone="no"?>
<svg xmlns:ffdec="https://www.free-decompiler.com/flash" xmlns:xlink="http://www.w3.org/1999/xlink" ffdec:objectType="shape" height="25.55px" width="30.2px" xmlns="http://www.w3.org/2000/svg">
  <g transform="matrix(1.0, 0.0, 0.0, 1.0, -0.9, -3.25)">
    <path d="M19.55 16.85 Q20.95 17.35 21.15 18.35 L22.15 17.15 21.5 17.25 21.05 17.1 21.0 16.75 Q21.0 16.5 21.35 16.2 21.8 15.85 22.4 15.85 24.95 15.85 24.95 18.15 24.55 21.15 22.65 21.15 21.15 21.15 20.65 20.55 L20.6 20.65 Q19.65 22.55 17.65 22.55 L17.5 22.55 17.55 23.3 Q17.55 24.1 16.25 25.1 14.85 26.1 13.6 26.1 L13.3 26.1 Q13.2 26.55 12.7 26.55 11.85 26.55 10.45 19.45 10.45 18.35 12.75 17.85 15.0 17.35 15.0 18.9 L14.75 19.6 Q15.7 19.8 16.4 20.35 L16.6 19.35 Q16.95 18.55 18.15 17.8 L17.9 17.35 Q17.9 16.2 19.55 16.85 M23.6 17.55 Q23.4 17.25 22.35 17.1 L22.8 17.4 22.0 18.65 21.5 19.8 21.45 19.9 21.65 19.95 Q22.85 19.95 23.4 19.05 L23.7 18.15 23.6 17.55 M24.0 15.1 Q24.0 14.1 27.0 13.45 L31.1 13.35 Q30.6 13.85 28.7 14.4 L28.8 15.1 28.4 17.4 27.9 19.65 Q27.35 19.65 27.1 18.45 L27.0 17.2 Q27.0 15.6 27.9 14.65 L25.1 15.4 25.8 16.3 25.5 16.6 24.3 15.9 Q24.0 15.65 24.0 15.1 M16.05 7.0 Q16.05 8.25 14.8 10.55 13.2 13.45 11.05 13.45 9.95 13.45 10.15 12.8 L12.35 10.9 Q14.55 8.9 14.55 7.0 14.55 6.55 13.2 5.8 11.75 4.95 10.3 4.95 6.05 4.95 4.3 7.15 3.25 8.4 3.25 10.0 3.25 10.7 3.7 11.35 4.4 12.4 6.0 12.4 L6.4 12.25 Q6.55 12.1 6.75 12.1 7.3 12.1 7.5 12.65 L7.6 13.1 8.4 12.55 6.2 11.05 Q5.05 10.35 5.05 9.7 5.05 8.4 7.65 10.05 10.2 11.65 10.2 12.7 7.2 16.2 4.5 16.2 3.3 16.2 3.45 15.4 3.45 14.9 5.35 14.15 L5.6 14.05 Q3.45 13.8 2.4 12.35 1.65 11.35 1.65 10.45 1.65 7.95 3.25 5.9 5.8 2.65 11.35 3.4 14.45 4.4 15.35 5.15 16.05 5.75 16.05 7.0 M19.55 20.05 L19.8 18.45 Q18.75 18.4 18.15 18.95 L17.55 19.95 17.55 21.35 Q19.1 20.9 19.55 20.05 M13.8 18.9 L11.8 19.2 Q11.95 19.7 12.2 19.85 12.55 19.45 13.3 19.45 L13.8 18.9 M12.9 21.45 L13.25 24.75 14.2 24.4 Q16.1 23.85 16.1 22.7 16.1 20.8 13.75 20.6 L12.9 21.45 M10.5 23.0 Q10.5 23.7 8.9 23.7 L8.1 23.7 Q8.25 25.35 8.85 26.25 10.0 25.7 10.6 25.5 L11.05 26.0 Q11.05 26.4 10.1 27.0 L8.85 27.5 Q7.55 27.5 7.1 25.75 L6.85 23.9 Q6.85 22.25 7.15 21.05 L6.75 21.0 6.7 20.7 Q6.7 20.35 7.45 20.2 L7.5 20.0 7.6 20.15 7.8 20.1 Q8.95 19.9 9.6 20.4 L8.75 20.75 7.85 21.0 8.05 22.75 10.35 22.65 10.45 22.7 10.5 23.0 M5.25 22.55 Q4.3 24.15 3.4 24.5 3.7 24.95 5.2 25.95 6.45 26.8 6.45 27.3 L6.4 27.7 6.0 27.8 Q5.05 27.8 2.85 26.1 L3.25 27.1 3.6 28.05 Q3.6 28.8 3.0 28.8 1.8 28.8 0.9 23.15 0.9 20.95 3.45 19.65 6.0 18.4 6.0 20.65 L5.25 22.55 M2.25 23.25 L2.9 23.25 Q3.95 23.25 4.5 21.85 L4.8 20.3 Q3.4 20.3 2.8 20.85 L2.25 21.65 2.25 23.25" fill="#a5f231" fill-rule="evenodd" stroke="none"/>
  </g>
</svg>
