<?xml version="1.0" encoding="UTF-8" standalone="no"?>
<svg xmlns:ffdec="https://www.free-decompiler.com/flash" xmlns:xlink="http://www.w3.org/1999/xlink" ffdec:objectType="shape" height="27.9px" width="28.1px" xmlns="http://www.w3.org/2000/svg">
  <g transform="matrix(1.0, 0.0, 0.0, 1.0, -1.95, -2.05)">
    <path d="M26.35 5.5 L29.3 6.45 Q30.05 6.7 30.05 7.5 L29.8 8.1 29.7 8.2 29.8 11.25 Q29.65 18.45 29.1 19.55 L29.2 19.65 Q28.65 20.7 25.7 22.45 L25.2 22.15 25.1 21.8 Q25.1 21.1 26.65 20.0 27.5 19.35 28.2 19.3 L28.15 18.8 Q28.15 13.65 29.0 9.65 L27.1 10.75 25.0 11.6 24.5 11.3 24.4 11.0 Q24.4 10.1 26.05 9.3 27.65 8.6 29.15 9.0 L29.3 8.35 29.25 8.35 Q28.15 8.35 24.45 6.0 L20.65 3.65 16.9 6.1 16.65 6.1 16.5 5.75 Q20.15 0.75 22.4 2.95 L24.2 4.4 Q25.1 5.0 26.35 5.5 M17.5 8.35 L17.6 8.6 19.25 9.35 21.3 10.4 Q21.75 10.0 22.4 10.85 L22.4 11.05 22.45 11.15 22.35 11.3 22.25 13.25 22.35 18.05 22.55 22.85 22.3 25.0 Q21.95 25.8 20.45 26.55 L13.35 29.95 Q12.7 29.95 10.7 28.5 L8.45 26.7 6.5 25.2 Q5.0 24.05 5.0 23.5 L5.1 19.55 4.8 19.6 Q4.3 19.6 2.3 17.65 L2.3 17.55 Q1.85 17.4 2.0 16.6 L2.25 12.4 2.6 7.7 2.75 7.7 3.05 16.6 3.0 17.15 3.8 17.55 Q4.85 18.25 5.15 18.75 5.3 13.75 5.55 12.1 L5.8 12.1 5.75 12.4 5.8 13.8 Q13.25 15.55 13.25 16.7 13.25 17.2 12.75 17.2 11.8 17.2 8.6 15.8 6.55 14.9 5.8 14.4 L5.95 16.7 Q6.8 16.65 12.4 20.05 L15.55 18.55 Q19.35 16.9 20.5 16.75 L20.6 17.1 20.6 16.65 20.65 14.95 Q19.3 16.3 16.05 17.55 13.0 18.7 11.85 18.7 L11.45 18.6 11.3 18.5 11.3 18.25 Q11.3 17.7 14.65 16.7 18.9 15.45 20.6 14.45 L20.65 14.5 20.7 12.55 19.1 13.55 Q15.65 15.65 14.75 15.65 14.25 15.65 11.6 14.55 L8.55 13.15 5.5 11.5 Q5.0 11.15 5.0 10.25 5.0 9.8 8.7 8.2 L9.35 7.95 14.45 8.15 16.6 8.1 16.7 8.15 17.0 8.05 Q17.3 8.05 17.5 8.35 M19.55 11.3 Q18.4 10.3 16.95 9.75 L16.2 10.35 Q14.6 11.6 13.65 11.6 11.7 11.6 9.75 9.2 7.7 9.6 6.8 10.85 L11.25 12.6 14.85 13.9 Q15.8 13.9 17.6 12.7 L19.55 11.3 M20.6 17.15 L16.35 19.45 11.85 21.55 12.3 22.1 Q12.3 22.65 11.7 22.65 10.8 22.65 6.15 20.0 L6.15 20.4 6.05 22.2 Q6.15 21.5 7.35 22.3 L9.35 23.8 Q11.4 24.35 12.45 24.9 13.4 24.45 14.85 23.9 18.95 22.25 20.75 21.9 L20.75 22.2 Q20.75 23.1 13.4 25.75 L13.35 26.0 12.9 26.2 12.25 26.15 10.9 26.65 13.4 28.2 Q13.8 28.2 15.8 27.05 18.0 25.8 18.65 25.6 20.3 25.15 20.75 24.3 L20.9 22.8 20.75 20.4 Q19.85 21.4 13.5 23.35 L13.3 23.35 13.25 23.1 Q13.25 21.9 20.75 19.8 L20.6 17.15 M11.55 3.4 Q13.55 4.25 13.55 4.85 L13.2 5.35 12.75 5.5 Q12.55 5.5 11.05 4.7 L8.9 3.4 Q9.5 2.45 11.55 3.4 M5.8 5.9 Q7.5 6.5 7.5 6.95 7.5 7.7 6.5 7.7 5.4 7.7 4.3 6.9 L3.55 6.25 3.45 6.25 Q2.55 6.25 2.55 5.75 9.9 0.7 9.9 2.55 L6.7 4.5 4.75 5.6 5.8 5.9 M12.6 8.95 L11.0 9.0 Q12.6 10.1 13.25 10.1 14.1 10.1 15.25 9.25 L12.6 8.95 M11.5 20.75 Q10.5 20.45 8.35 18.95 L5.95 17.1 6.1 19.4 Q7.35 19.4 9.55 20.35 L11.35 21.2 11.3 21.05 11.5 20.75 M8.45 24.8 L10.55 26.35 10.5 26.2 10.8 25.85 8.55 24.85 8.45 24.8" fill="#ff3300" fill-rule="evenodd" stroke="none"/>
  </g>
</svg>
