<?xml version="1.0" encoding="UTF-8" standalone="no"?>
<svg xmlns:ffdec="https://www.free-decompiler.com/flash" xmlns:xlink="http://www.w3.org/1999/xlink" ffdec:objectType="shape" height="11.75px" width="30.0px" xmlns="http://www.w3.org/2000/svg">
  <g transform="matrix(1.0, 0.0, 0.0, 1.0, -1.0, -10.15)">
    <path d="M19.75 16.2 L20.4 13.9 Q21.0 12.0 21.85 12.0 23.4 12.0 23.75 14.35 L23.85 17.85 23.85 18.15 Q26.45 13.8 28.65 11.5 31.0 9.1 31.0 11.0 L27.5 15.9 Q23.95 20.7 23.55 20.7 22.2 20.7 21.9 19.0 L21.85 16.2 19.85 19.35 Q18.4 21.6 17.95 21.6 17.15 21.6 17.2 20.7 17.2 20.0 18.35 18.3 L19.75 16.2 M6.55 17.55 Q6.85 16.6 7.8 15.6 9.55 13.75 12.25 13.75 L12.4 14.1 10.85 15.0 Q9.75 15.45 9.4 16.05 L8.5 17.2 7.9 18.2 Q7.9 18.45 10.0 19.5 9.5 19.6 9.25 19.95 L8.75 20.25 Q7.7 20.25 7.1 19.65 L5.95 20.4 Q4.55 21.0 3.2 21.0 1.7 21.0 1.2 20.6 L1.0 19.9 1.1 19.5 3.3 19.2 5.75 18.6 3.9 17.45 Q2.95 16.85 2.95 16.35 2.95 13.25 5.9 12.5 8.8 11.8 8.8 13.3 8.8 14.1 7.3 14.7 L7.1 14.7 7.0 14.5 Q7.0 14.3 7.75 13.75 L5.95 13.75 Q5.15 14.0 4.6 14.9 4.15 15.65 4.15 16.2 4.15 16.35 5.8 17.1 L6.55 17.55 M16.1 13.6 Q15.55 13.6 14.2 16.55 L15.1 16.85 16.4 13.8 Q16.45 13.6 16.1 13.6 M13.7 17.55 Q12.0 21.5 11.6 21.5 10.65 21.5 10.9 20.4 10.9 18.85 11.8 17.2 L11.65 16.8 Q11.65 16.15 12.4 16.15 13.2 14.85 14.45 13.5 17.95 9.75 17.95 14.2 15.95 21.9 14.5 21.9 13.45 21.9 13.6 21.15 13.6 20.15 14.95 17.2 L15.0 17.15 13.8 17.35 13.7 17.55" fill="#a5f231" fill-rule="evenodd" stroke="none"/>
  </g>
</svg>
