<?xml version="1.0" encoding="UTF-8" standalone="no"?>
<svg xmlns:ffdec="https://www.free-decompiler.com/flash" xmlns:xlink="http://www.w3.org/1999/xlink" ffdec:objectType="shape" height="22.4px" width="21.55px" xmlns="http://www.w3.org/2000/svg">
  <g transform="matrix(1.0, 0.0, 0.0, 1.0, -5.25, -4.8)">
    <path d="M26.8 4.8 Q24.0 10.4 18.05 16.1 L17.65 16.55 20.8 19.55 Q23.9 16.3 23.9 18.75 L22.35 21.1 Q26.8 25.4 26.8 26.05 26.8 27.2 25.6 27.2 24.9 27.2 20.85 23.1 19.45 24.75 18.7 24.75 17.55 24.75 17.55 23.6 L19.15 21.45 16.05 18.2 12.9 21.45 14.5 23.6 Q14.5 24.75 13.35 24.75 12.6 24.75 11.2 23.1 7.15 27.2 6.45 27.2 5.25 27.2 5.25 26.05 5.25 25.4 9.7 21.1 L8.15 18.75 Q8.15 16.3 11.25 19.55 L14.4 16.55 14.0 16.1 Q8.05 10.4 5.25 4.8 10.5 10.25 15.7 14.75 L16.05 15.05 16.35 14.75 Q21.55 10.25 26.8 4.8" fill="#ff3300" fill-rule="evenodd" stroke="none"/>
  </g>
</svg>
