<?xml version="1.0" encoding="UTF-8" standalone="no"?>
<svg xmlns:ffdec="https://www.free-decompiler.com/flash" xmlns:xlink="http://www.w3.org/1999/xlink" ffdec:objectType="shape" height="24.05px" width="21.2px" xmlns="http://www.w3.org/2000/svg">
  <g transform="matrix(1.0, 0.0, 0.0, 1.0, -5.4, -4.0)">
    <path d="M20.75 4.0 L23.45 7.3 26.6 10.95 Q21.95 12.55 19.35 13.95 19.8 14.9 20.75 15.5 L21.55 16.3 Q21.55 17.8 19.55 18.6 15.2 20.3 13.95 21.05 L17.15 22.8 Q18.1 23.45 18.1 24.35 L16.75 25.4 13.95 25.9 Q8.6 26.9 5.4 28.05 5.5 27.5 9.05 25.95 L13.0 24.3 9.35 23.15 Q8.1 22.7 8.1 21.35 8.1 20.25 14.15 16.65 L12.65 14.95 12.35 14.55 16.35 9.55 20.25 4.3 20.75 4.0" fill="#ff3300" fill-rule="evenodd" stroke="none"/>
  </g>
</svg>
