<?xml version="1.0" encoding="UTF-8" standalone="no"?>
<svg xmlns:ffdec="https://www.free-decompiler.com/flash" xmlns:xlink="http://www.w3.org/1999/xlink" ffdec:objectType="shape" height="25.1px" width="25.1px" xmlns="http://www.w3.org/2000/svg">
  <g transform="matrix(1.0, 0.0, 0.0, 1.0, -3.45, -3.45)">
    <path d="M19.2 12.75 L23.15 12.75 23.15 19.2 19.2 19.2 19.2 23.15 12.75 23.15 12.75 19.2 8.8 19.2 8.8 12.75 12.75 12.75 12.75 8.8 19.2 8.8 19.2 12.75 M23.3 8.65 Q20.3 5.65 16.0 5.65 11.7 5.65 8.65 8.65 5.65 11.7 5.65 16.0 5.65 20.3 8.65 23.3 11.7 26.35 16.0 26.35 20.3 26.35 23.3 23.3 26.35 20.3 26.35 16.0 26.35 11.7 23.3 8.65 M24.85 7.1 Q28.55 10.8 28.55 16.0 28.55 21.2 24.85 24.85 21.2 28.55 16.0 28.55 10.8 28.55 7.1 24.85 3.45 21.2 3.45 16.0 3.45 10.8 7.1 7.1 10.8 3.45 16.0 3.45 21.2 3.45 24.85 7.1" fill="#a5f231" fill-rule="evenodd" stroke="none"/>
  </g>
</svg>
