<?xml version="1.0" encoding="UTF-8" standalone="no"?>
<svg xmlns:ffdec="https://www.free-decompiler.com/flash" xmlns:xlink="http://www.w3.org/1999/xlink" ffdec:objectType="shape" height="25.45px" width="23.85px" xmlns="http://www.w3.org/2000/svg">
  <g transform="matrix(1.0, 0.0, 0.0, 1.0, -4.1, -3.3)">
    <path d="M24.1 14.95 Q22.25 19.3 16.1 19.35 16.8 20.15 17.35 22.15 17.9 24.15 17.9 25.25 L17.9 26.05 Q18.4 26.05 18.2 26.25 L17.9 26.65 Q21.55 25.75 22.85 24.95 24.05 24.2 24.55 22.6 24.7 22.05 25.75 20.0 26.6 18.25 26.6 17.5 L24.75 11.65 Q24.6 13.8 24.1 14.95 M18.85 5.8 L12.45 9.2 Q6.85 12.1 6.3 12.1 5.6 12.1 5.6 11.75 7.05 10.25 12.1 7.75 L17.05 5.5 12.45 5.8 Q10.45 7.0 7.85 9.25 5.1 11.55 5.1 12.2 L5.1 12.25 5.25 12.25 5.25 12.45 Q5.75 13.0 8.15 14.4 9.05 12.4 16.5 9.2 20.1 7.65 22.2 7.25 21.05 6.25 18.85 5.8 M18.1 13.25 Q13.5 15.3 10.95 15.9 L13.35 17.1 Q21.2 11.9 23.2 12.5 L23.35 10.45 Q21.65 11.7 18.1 13.25 M24.3 7.05 Q26.5 7.95 26.8 11.8 26.85 12.65 27.45 14.75 L27.95 17.65 Q27.95 19.8 26.0 23.05 23.3 27.55 18.95 27.55 L17.85 27.65 17.5 27.55 17.45 27.55 Q16.7 28.75 14.6 28.75 12.05 28.75 8.1 26.35 4.2 24.0 4.2 22.65 L4.2 22.5 4.1 22.0 4.25 21.55 4.7 12.75 4.25 12.35 Q4.25 11.35 8.05 8.15 L12.75 4.4 Q14.4 2.85 17.7 3.45 20.4 3.9 22.75 5.35 L24.3 7.05 M22.0 18.65 L22.1 19.2 Q22.1 19.85 20.65 21.1 20.65 20.65 21.15 19.6 L21.8 18.55 22.0 18.65 M17.0 23.15 Q17.0 22.45 15.6 19.35 13.4 19.2 10.25 17.15 L7.5 19.75 5.25 22.0 Q5.7 23.85 7.85 25.35 10.7 27.3 14.6 27.3 16.1 27.3 16.7 25.3 L17.0 23.15 M5.25 13.25 L5.25 16.25 5.15 20.4 6.5 19.0 Q8.3 17.2 9.5 16.65 L8.75 16.1 8.2 15.7 5.25 13.25 M15.85 22.1 L15.95 22.6 14.8 24.0 13.25 25.35 Q13.1 25.75 13.1 25.0 13.1 24.6 13.9 23.65 14.8 22.55 15.7 22.15 L15.85 22.1 M8.0 23.95 Q8.05 23.0 10.0 21.4 11.35 20.3 12.35 19.75 11.85 20.8 8.3 24.1 L8.0 23.95" fill="#ff3300" fill-rule="evenodd" stroke="none"/>
  </g>
</svg>
