<?xml version="1.0" encoding="UTF-8" standalone="no"?>
<svg xmlns:ffdec="https://www.free-decompiler.com/flash" xmlns:xlink="http://www.w3.org/1999/xlink" ffdec:objectType="shape" height="25.1px" width="25.1px" xmlns="http://www.w3.org/2000/svg">
  <g transform="matrix(1.0, 0.0, 0.0, 1.0, -3.45, -3.3)">
    <path d="M24.85 24.7 Q21.2 28.4 16.0 28.4 10.8 28.4 7.1 24.7 3.45 21.05 3.45 15.85 3.45 10.65 7.1 6.95 10.8 3.3 16.0 3.3 21.2 3.3 24.85 6.95 28.55 10.65 28.55 15.85 28.55 21.05 24.85 24.7 M23.3 23.15 Q26.35 20.15 26.35 15.85 26.35 11.55 23.3 8.5 20.3 5.5 16.0 5.5 11.7 5.5 8.65 8.5 5.65 11.55 5.65 15.85 5.65 20.15 8.65 23.15 11.7 26.2 16.0 26.2 20.3 26.2 23.3 23.15 M23.15 19.05 L19.2 19.05 19.2 23.0 12.75 23.0 12.75 19.05 8.8 19.05 8.8 12.6 12.75 12.6 12.75 8.65 19.2 8.65 19.2 12.6 23.15 12.6 23.15 19.05" fill="#0099ff" fill-rule="evenodd" stroke="none"/>
  </g>
</svg>
