<?xml version="1.0" encoding="UTF-8" standalone="no"?>
<svg xmlns:ffdec="https://www.free-decompiler.com/flash" xmlns:xlink="http://www.w3.org/1999/xlink" ffdec:objectType="shape" height="48.8px" width="46.05px" xmlns="http://www.w3.org/2000/svg">
  <g transform="matrix(1.0, 0.0, 0.0, 1.0, 21.4, 37.85)">
    <path d="M-14.1 0.1 Q-11.05 -10.6 -4.35 -19.45 L2.0 -21.55 Q12.6 -16.1 11.5 -4.15 10.9 2.1 5.25 4.35 -4.9 8.55 -13.4 1.6 L-14.1 0.1" fill="#ffffff" fill-rule="evenodd" stroke="none"/>
    <path d="M-13.4 1.6 Q-4.9 8.55 5.25 4.35 10.9 2.1 11.5 -4.15 12.6 -16.1 2.0 -21.55 L-4.35 -19.45 Q-11.05 -10.6 -14.1 0.1 -21.0 -10.45 -12.45 -20.15 -7.3 -25.95 0.5 -24.9 11.5 -23.15 14.15 -12.75 17.55 0.45 5.75 5.2 -4.0 9.15 -12.85 3.75 L-13.4 1.6" fill="#ffff00" fill-rule="evenodd" stroke="none"/>
    <path d="M-13.4 1.6 L-12.85 3.75 Q-4.0 9.15 5.75 5.2 17.55 0.45 14.15 -12.75 11.5 -23.15 0.5 -24.9 -7.3 -25.95 -12.45 -20.15 -21.0 -10.45 -14.1 0.1 L-13.4 1.6 M-18.9 3.55 Q-19.0 -12.15 -15.0 -26.65 -4.95 -32.0 5.85 -29.1 15.8 -26.25 19.75 -17.1 24.15 -6.8 18.3 3.0 10.85 12.15 -0.5 10.8 -11.1 9.35 -18.9 3.55" fill="#ff9900" fill-rule="evenodd" stroke="none"/>
    <path d="M18.3 3.0 Q24.15 -6.8 19.75 -17.1 15.8 -26.25 5.85 -29.1 -4.95 -32.0 -15.0 -26.65 -19.0 -12.15 -18.9 3.55 -21.85 -5.55 -21.35 -15.4 -20.8 -26.15 -12.1 -33.4 -3.75 -40.3 6.25 -36.55 15.65 -33.05 20.9 -24.45 27.15 -14.3 23.05 -3.5 21.6 0.45 18.3 3.0" fill="#cc6600" fill-rule="evenodd" stroke="none"/>
  </g>
</svg>
