<?xml version="1.0" encoding="UTF-8" standalone="no"?>
<svg xmlns:ffdec="https://www.free-decompiler.com/flash" xmlns:xlink="http://www.w3.org/1999/xlink" ffdec:objectType="shape" height="47.55px" width="46.2px" xmlns="http://www.w3.org/2000/svg">
  <g transform="matrix(1.0, 0.0, 0.0, 1.0, 24.25, 37.2)">
    <path d="M-22.45 -18.85 Q-22.8 -20.5 -21.4 -21.05 L-20.9 -20.85 -20.6 -20.65 -22.3 -18.2 -22.45 -18.85 M15.1 -15.1 L14.5 -17.0 15.2 -21.35 16.8 -20.2 17.35 -23.4 13.85 -25.85 13.8 -28.15 17.85 -27.85 Q23.7 -20.0 15.1 -15.1 M11.0 -28.85 L11.0 -29.1 11.15 -29.05 11.0 -28.85 M4.85 -33.35 L2.65 -32.75 -4.55 -31.65 -4.95 -34.55 -4.25 -34.9 -3.95 -35.0 Q1.25 -37.25 4.85 -33.35 M0.35 -7.3 L1.95 -6.4 Q0.45 -3.65 -2.5 -3.85 L-3.2 -4.15 -7.0 -6.5 -5.9 -11.55 -2.3 -6.45 0.35 -7.3 M-17.45 -11.75 L-18.5 -12.35 -22.0 -16.65 -17.85 -16.8 -17.15 -14.5 -15.6 -15.55 Q-11.65 -15.0 -10.85 -14.25 -10.05 -13.5 -11.15 -12.8 -12.25 -12.1 -14.55 -11.85 L-17.45 -11.75 M14.55 -6.35 L16.35 -7.3 15.4 -1.0 Q9.25 5.95 -0.15 5.85 -12.3 4.95 -15.3 -6.2 L-15.3 -6.5 Q-14.5 -6.5 -14.3 -5.8 -7.1 3.8 4.0 2.4 12.1 1.4 14.55 -6.35 M-0.3 10.3 L6.9 9.65 -0.3 10.3" fill="#ffffff" fill-rule="evenodd" stroke="none"/>
    <path d="M2.65 -32.75 Q2.65 -31.8 1.5 -31.15 0.35 -30.5 -1.25 -30.5 L-3.85 -30.05 -6.4 -30.2 -7.6 -31.25 Q-14.3 -29.75 -18.4 -23.4 -15.4 -30.05 -9.1 -33.05 L-7.15 -33.9 -4.95 -34.55 -4.55 -31.65 2.65 -32.75 M-23.7 -19.1 Q-23.7 -18.5 -22.9 -18.55 L-22.45 -18.85 -22.3 -18.2 Q-22.7 -17.05 -22.0 -16.65 L-18.5 -12.35 -20.35 -12.25 -24.25 -16.7 -23.7 -19.1 M-20.9 -20.85 L-13.2 -23.45 -10.2 -27.4 Q-1.45 -29.35 -0.35 -24.15 L-7.65 -27.4 -8.75 -25.75 -10.2 -23.6 -11.0 -22.45 -8.15 -22.6 -6.55 -21.5 -4.6 -23.3 -0.8 -23.9 -8.2 -19.0 -9.8 -19.0 -9.8 -17.95 -12.35 -16.25 -11.1 -14.95 -8.2 -16.4 -6.25 -15.25 -5.75 -12.85 -4.0 -12.35 -3.15 -11.2 6.3 -10.3 6.45 -13.15 8.5 -13.4 10.65 -12.3 12.7 -14.8 13.6 -14.4 Q14.75 -13.75 15.1 -15.1 23.7 -20.0 17.85 -27.85 L13.8 -28.15 13.85 -25.85 Q10.85 -26.8 9.85 -24.2 L10.1 -23.95 Q12.65 -23.95 11.75 -22.3 L15.2 -21.35 14.5 -17.0 11.8 -18.4 13.85 -20.05 11.0 -20.9 7.65 -18.55 9.85 -18.4 4.0 -14.6 -2.85 -20.15 2.55 -21.2 6.5 -17.55 7.0 -19.9 10.35 -21.15 6.0 -24.75 11.0 -28.85 11.15 -29.05 11.0 -29.1 Q11.0 -30.85 9.2 -32.1 7.4 -33.35 4.85 -33.35 1.25 -37.25 -3.95 -35.0 L-4.25 -34.9 Q1.0 -37.6 5.7 -33.95 L15.6 -31.85 16.55 -28.95 Q19.05 -27.2 20.1 -24.25 22.45 -17.8 17.1 -13.0 L8.2 -11.15 8.35 -7.25 Q3.35 -2.95 2.85 -7.5 L0.35 -7.3 -2.3 -6.45 -5.9 -11.55 -7.0 -6.5 -3.2 -4.15 Q-8.15 -4.8 -9.05 -9.85 L-9.4 -10.4 -11.35 -9.7 -17.45 -11.75 -14.55 -11.85 Q-12.25 -12.1 -11.15 -12.8 -10.05 -13.5 -10.85 -14.25 -11.65 -15.0 -15.6 -15.55 L-15.45 -17.55 -11.1 -21.7 -13.2 -21.45 Q-16.3 -22.25 -18.95 -20.85 L-20.6 -20.65 -20.9 -20.85 M4.45 -24.85 Q4.6 -25.8 4.9 -24.85 L4.45 -24.85 M6.45 -7.55 Q7.2 -9.6 5.1 -10.05 2.9 -9.7 3.05 -7.55 3.1 -6.55 4.05 -6.3 5.8 -5.9 6.45 -7.55 M4.8 -17.05 L4.65 -17.6 Q3.2 -21.1 1.1 -19.3 L2.55 -16.45 4.8 -17.05 M16.35 -7.3 L17.3 -7.6 Q18.25 -4.3 16.5 -1.15 10.8 8.95 -1.05 8.25 -14.15 7.2 -16.8 -4.6 L-16.25 -6.55 -15.3 -6.2 Q-12.3 4.95 -0.15 5.85 9.25 5.95 15.4 -1.0 L16.35 -7.3 M14.55 -6.35 Q12.1 1.4 4.0 2.4 -7.1 3.8 -14.3 -5.8 -9.75 -2.85 -4.75 -1.05 6.85 3.35 14.55 -6.35 M-8.8 -15.05 Q-9.5 -15.05 -9.95 -14.4 -10.45 -13.75 -10.45 -12.85 -10.45 -11.95 -9.95 -11.3 -9.5 -10.65 -8.8 -10.65 -8.1 -10.65 -7.6 -11.3 -7.15 -11.95 -7.15 -12.85 -7.15 -13.75 -7.6 -14.4 -8.1 -15.05 -8.8 -15.05" fill="#ffff00" fill-rule="evenodd" stroke="none"/>
    <path d="M9.1 -31.25 L6.7 -32.2 1.9 -29.95 3.75 -30.2 5.2 -29.8 5.85 -28.6 4.9 -28.9 Q3.65 -29.3 4.5 -27.95 L9.55 -28.2 9.1 -31.25 M-1.25 -30.5 Q0.35 -30.5 1.5 -31.15 2.65 -31.8 2.65 -32.75 L4.85 -33.35 Q7.4 -33.35 9.2 -32.1 11.0 -30.85 11.0 -29.1 L11.0 -28.85 6.0 -24.75 10.35 -21.15 7.0 -19.9 6.5 -17.55 2.55 -21.2 -2.85 -20.15 4.0 -14.6 9.85 -18.4 7.65 -18.55 11.0 -20.9 13.85 -20.05 11.8 -18.4 14.5 -17.0 15.1 -15.1 Q14.75 -13.75 13.6 -14.4 L12.7 -14.8 10.65 -12.3 8.5 -13.4 6.45 -13.15 6.3 -10.3 -3.15 -11.2 -4.0 -12.35 -5.75 -12.85 -6.25 -15.25 -8.2 -16.4 -11.1 -14.95 -12.35 -16.25 -9.8 -17.95 -9.8 -16.65 -2.75 -16.65 -2.75 -19.0 -8.2 -19.0 -0.8 -23.9 -4.6 -23.3 -6.55 -21.5 -8.15 -22.6 -11.0 -22.45 -10.2 -23.6 -4.6 -23.7 -7.7 -24.7 -5.75 -25.3 -8.75 -25.75 -7.65 -27.4 -0.35 -24.15 Q-1.45 -29.35 -10.2 -27.4 L-13.2 -23.45 -20.9 -20.85 -21.4 -21.05 Q-22.8 -20.5 -22.45 -18.85 L-22.9 -18.55 Q-23.7 -18.5 -23.7 -19.1 -18.75 -27.65 -10.55 -32.4 L-9.1 -33.05 Q-15.4 -30.05 -18.4 -23.4 -14.3 -29.75 -7.6 -31.25 L-6.4 -30.2 -3.85 -30.05 Q-4.95 -28.15 1.2 -27.05 L2.6 -28.05 -1.25 -30.5 M-4.95 -34.55 L-7.15 -33.9 Q-1.7 -39.5 5.0 -35.6 13.95 -37.3 17.55 -29.35 L18.35 -28.8 Q25.1 -22.35 19.2 -13.85 17.85 -9.3 13.3 -8.8 L11.95 -8.8 7.05 -2.85 Q-6.3 -2.0 -18.05 -10.05 -20.6 -10.05 -22.4 -12.0 -24.25 -13.95 -24.25 -16.7 L-20.35 -12.25 -18.5 -12.35 -17.45 -11.75 -11.35 -9.7 -9.4 -10.4 -9.05 -9.85 Q-8.15 -4.8 -3.2 -4.15 L-2.5 -3.85 Q0.45 -3.65 1.95 -6.4 L0.35 -7.3 2.85 -7.5 Q3.35 -2.95 8.35 -7.25 L8.2 -11.15 17.1 -13.0 Q22.45 -17.8 20.1 -24.25 19.05 -27.2 16.55 -28.95 L15.6 -31.85 5.7 -33.95 Q1.0 -37.6 -4.25 -34.9 L-4.95 -34.55 M4.45 -24.85 L4.9 -24.85 Q4.6 -25.8 4.45 -24.85 M13.85 -25.85 L17.35 -23.4 16.8 -20.2 15.2 -21.35 11.75 -22.3 Q12.65 -23.95 10.1 -23.95 L9.85 -24.2 Q10.85 -26.8 13.85 -25.85 M12.5 -16.45 Q11.8 -16.85 11.05 -17.3 L7.55 -15.05 9.4 -14.3 12.5 -16.45 M16.65 -22.15 L16.5 -22.5 Q14.4 -26.2 10.55 -24.9 13.2 -24.0 12.4 -23.1 L16.65 -22.15 M0.9 -12.75 Q0.2 -12.6 0.8 -12.95 L0.9 -12.75 M2.3 -18.85 L2.05 -18.7 Q3.4 -16.35 2.3 -18.85 M5.2 -21.95 L8.5 -22.15 2.5 -24.3 0.85 -22.5 3.9 -21.9 4.65 -20.4 Q6.7 -20.75 5.2 -21.95 M4.8 -17.05 L2.55 -16.45 1.1 -19.3 Q3.2 -21.1 4.65 -17.6 L4.8 -17.05 M6.45 -7.55 Q5.8 -5.9 4.05 -6.3 3.1 -6.55 3.05 -7.55 2.9 -9.7 5.1 -10.05 7.2 -9.6 6.45 -7.55 M5.7 -7.1 L5.7 -8.7 4.15 -8.7 4.15 -7.1 5.7 -7.1 M17.3 -7.6 L17.85 -8.0 Q21.0 3.0 10.85 7.2 L6.9 9.65 -0.3 10.3 Q-7.15 10.3 -11.95 5.95 -16.8 1.55 -16.8 -4.6 -14.15 7.2 -1.05 8.25 10.8 8.95 16.5 -1.15 18.25 -4.3 17.3 -7.6 M-14.6 -25.55 L-14.3 -25.25 -11.55 -28.4 -8.4 -29.15 -10.3 -30.0 -12.85 -28.7 -13.5 -26.9 Q-15.6 -26.85 -14.6 -25.55 M-13.85 -26.35 L-14.2 -26.4 Q-13.3 -27.25 -13.85 -26.35 M0.1 -11.6 Q2.55 -10.15 3.15 -12.6 L4.25 -11.2 Q4.0 -16.05 -1.65 -15.35 L-2.45 -12.95 -0.6 -13.5 -0.4 -12.05 0.1 -11.6 M-20.6 -20.65 L-18.95 -20.85 -21.5 -18.2 -16.45 -17.9 -13.2 -21.45 -11.1 -21.7 -15.45 -17.55 -15.6 -15.55 -17.15 -14.5 -17.85 -16.8 -22.0 -16.65 Q-22.7 -17.05 -22.3 -18.2 L-20.6 -20.65 M-8.0 -14.1 L-9.85 -14.1 -9.85 -11.65 -8.0 -11.65 -8.0 -14.1 M-8.8 -15.05 Q-8.1 -15.05 -7.6 -14.4 -7.15 -13.75 -7.15 -12.85 -7.15 -11.95 -7.6 -11.3 -8.1 -10.65 -8.8 -10.65 -9.5 -10.65 -9.95 -11.3 -10.45 -11.95 -10.45 -12.85 -10.45 -13.75 -9.95 -14.4 -9.5 -15.05 -8.8 -15.05" fill="#ff9900" fill-rule="evenodd" stroke="none"/>
    <path d="M9.1 -31.25 L9.55 -28.2 4.5 -27.95 Q3.65 -29.3 4.9 -28.9 L5.85 -28.6 5.2 -29.8 3.75 -30.2 1.9 -29.95 6.7 -32.2 9.1 -31.25 M-1.25 -30.5 L2.6 -28.05 1.2 -27.05 Q-4.95 -28.15 -3.85 -30.05 L-1.25 -30.5 M-8.75 -25.75 L-5.75 -25.3 -7.7 -24.7 -4.6 -23.7 -10.2 -23.6 -8.75 -25.75 M-8.2 -19.0 L-2.75 -19.0 -2.75 -16.65 -9.8 -16.65 -9.8 -17.95 -9.8 -19.0 -8.2 -19.0 M-18.05 -10.05 Q-6.3 -2.0 7.05 -2.85 L11.95 -8.8 13.3 -8.8 Q17.85 -9.3 19.2 -13.85 L17.85 -8.0 17.3 -7.6 16.35 -7.3 14.55 -6.35 Q6.85 3.35 -4.75 -1.05 -9.75 -2.85 -14.3 -5.8 -14.5 -6.5 -15.3 -6.5 L-15.3 -6.2 -16.25 -6.55 -18.05 -10.05 M16.65 -22.15 L12.4 -23.1 Q13.2 -24.0 10.55 -24.9 14.4 -26.2 16.5 -22.5 L16.65 -22.15 M12.5 -16.45 L9.4 -14.3 7.55 -15.05 11.05 -17.3 Q11.8 -16.85 12.5 -16.45 M5.2 -21.95 Q6.7 -20.75 4.65 -20.4 L3.9 -21.9 0.85 -22.5 2.5 -24.3 8.5 -22.15 5.2 -21.95 M2.3 -18.85 Q3.4 -16.35 2.05 -18.7 L2.3 -18.85 M0.9 -12.75 L0.8 -12.95 Q0.2 -12.6 0.9 -12.75 M5.7 -7.1 L4.15 -7.1 4.15 -8.7 5.7 -8.7 5.7 -7.1 M0.1 -11.6 L-0.4 -12.05 -0.6 -13.5 -2.45 -12.95 -1.65 -15.35 Q4.0 -16.05 4.25 -11.2 L3.15 -12.6 Q2.55 -10.15 0.1 -11.6 M-13.85 -26.35 Q-13.3 -27.25 -14.2 -26.4 L-13.85 -26.35 M-14.6 -25.55 Q-15.6 -26.85 -13.5 -26.9 L-12.85 -28.7 -10.3 -30.0 -8.4 -29.15 -11.55 -28.4 -14.3 -25.25 -14.6 -25.55 M-18.95 -20.85 Q-16.3 -22.25 -13.2 -21.45 L-16.45 -17.9 -21.5 -18.2 -18.95 -20.85 M-8.0 -14.1 L-8.0 -11.65 -9.85 -11.65 -9.85 -14.1 -8.0 -14.1" fill="#cc6600" fill-rule="evenodd" stroke="none"/>
  </g>
</svg>
