<?xml version="1.0" encoding="UTF-8" standalone="no"?>
<svg xmlns:ffdec="https://www.free-decompiler.com/flash" xmlns:xlink="http://www.w3.org/1999/xlink" ffdec:objectType="shape" height="58.7px" width="56.9px" xmlns="http://www.w3.org/2000/svg">
  <g transform="matrix(1.0, 0.0, 0.0, 1.0, 25.15, 49.8)">
    <path d="M27.25 -29.4 L29.35 -26.35 Q29.85 -24.9 29.0 -24.4 L24.0 -23.7 22.7 -21.55 21.05 -23.05 20.6 -26.05 15.55 -30.7 21.6 -31.35 14.45 -37.75 Q8.55 -39.15 2.8 -37.25 L1.1 -36.65 0.45 -34.8 1.0 -34.0 Q1.8 -32.8 3.1 -32.1 5.25 -30.95 7.85 -30.7 7.7 -29.45 8.9 -29.65 14.05 -29.3 16.65 -25.15 L17.35 -23.95 15.85 -22.2 11.75 -24.05 8.65 -19.35 3.0 -17.5 2.15 -15.95 -4.9 -16.85 -5.4 -20.3 -8.65 -19.95 -9.75 -18.6 -12.55 -22.35 -14.55 -21.5 -16.8 -22.55 -16.05 -24.85 -12.75 -26.6 -16.45 -27.25 -14.8 -29.3 -7.95 -27.6 -10.3 -26.6 -4.4 -21.7 2.45 -23.65 1.55 -25.4 4.8 -29.05 3.35 -30.25 3.35 -28.85 -1.35 -30.0 -6.15 -25.5 -6.8 -28.4 -11.05 -30.3 -5.5 -34.45 -11.75 -39.5 -11.7 -39.8 Q-11.7 -41.95 -9.5 -43.5 -7.3 -45.05 -4.15 -45.05 L-1.45 -44.25 Q-1.45 -43.15 0.0 -42.35 1.4 -41.55 3.4 -41.55 L-1.35 -38.5 -0.25 -37.3 7.8 -39.9 6.55 -41.0 10.35 -41.65 12.05 -42.75 Q19.75 -39.85 24.5 -32.8 21.15 -41.15 13.0 -44.65 22.4 -42.6 25.3 -33.5 L31.1 -27.45 Q31.05 -26.75 30.15 -27.0 L29.55 -27.15 Q29.9 -29.15 28.25 -29.85 L27.65 -29.65 26.45 -29.85 27.25 -29.4 M24.7 -29.95 L16.75 -29.8 28.3 -26.1 24.7 -29.95 M31.75 -24.5 Q31.75 -21.1 29.5 -18.65 27.25 -16.25 24.1 -16.25 15.75 -13.9 8.25 -9.3 1.15 -4.95 -6.9 -7.45 L-13.05 -14.85 -14.6 -14.95 Q-19.95 -15.85 -21.9 -21.0 -26.65 -27.9 -24.5 -33.85 L-24.5 -32.45 Q-22.8 -18.7 -8.2 -17.65 -9.15 -15.0 -7.85 -12.85 -5.9 -9.55 -2.25 -10.6 L-1.2 -13.55 1.45 -12.9 -0.5 -11.8 Q1.55 -7.75 5.8 -9.0 12.1 -9.75 13.05 -16.05 L13.5 -16.7 15.85 -15.8 21.0 -17.55 24.65 -19.15 26.95 -18.95 31.75 -24.5 M22.55 -9.55 Q22.55 -1.95 16.6 3.45 10.65 8.85 2.2 8.85 L-6.65 8.05 -13.45 4.55 Q-23.8 -1.7 -20.2 -13.75 L-19.55 -13.25 Q-20.65 -2.8 -11.25 2.25 -1.7 7.35 9.1 4.85 21.15 1.95 22.55 -9.55 M-23.3 -36.25 Q-17.9 -46.9 -7.05 -48.1 L-4.45 -47.8 Q-11.55 -47.55 -17.4 -43.15 L-18.55 -39.65 -23.3 -36.25 M-4.3 -47.8 Q4.3 -52.75 10.9 -45.45 L8.15 -46.2 -0.3 -47.65 -4.3 -47.8 M17.15 -38.2 L19.0 -34.85 20.45 -36.35 18.8 -37.0 Q19.8 -36.3 19.25 -36.6 L18.6 -36.45 18.5 -38.4 Q15.65 -42.55 12.2 -39.8 L15.15 -39.6 17.15 -38.2 M7.6 -32.95 L14.35 -32.7 14.4 -34.9 Q9.65 -39.05 5.0 -34.35 L7.8 -35.5 11.35 -34.35 9.15 -34.75 7.6 -32.95 M15.4 -32.95 L15.55 -31.55 11.9 -31.75 10.4 -30.25 1.85 -33.7 8.1 -37.7 Q14.15 -38.45 15.4 -32.95 M0.4 -28.6 L0.6 -26.3 -1.0 -24.25 -3.85 -24.45 -3.9 -24.85 Q-3.2 -28.75 0.4 -28.6 M5.25 -27.3 L5.25 -24.4 13.95 -24.4 13.95 -27.3 5.25 -27.3 M11.75 -21.25 L11.75 -18.25 14.05 -18.25 14.05 -21.25 11.75 -21.25 M10.7 -19.65 Q10.7 -20.8 11.3 -21.6 11.9 -22.4 12.75 -22.4 13.6 -22.4 14.2 -21.6 14.8 -20.8 14.8 -19.65 14.8 -18.5 14.2 -17.7 13.6 -16.9 12.75 -16.9 11.9 -16.9 11.3 -17.7 10.7 -18.5 10.7 -19.65 M2.5 -19.6 L4.55 -19.7 Q5.0 -23.25 -0.3 -22.5 L-3.25 -17.6 -2.05 -19.1 -0.5 -17.55 2.5 -19.15 2.5 -19.6 M0.8 -19.35 L0.6 -19.3 Q1.35 -20.35 0.8 -19.35 M-9.85 -38.4 L-3.9 -37.95 -4.0 -40.25 -5.9 -39.15 -2.8 -41.15 -0.75 -41.6 Q-4.9 -45.7 -9.6 -41.95 L-9.85 -38.4 M-12.05 -39.7 L-12.4 -36.45 -15.65 -40.3 Q-16.4 -42.4 -13.1 -44.5 -11.2 -45.75 -8.95 -45.35 L-11.25 -43.3 -12.05 -39.7 M-15.25 -35.8 L-11.05 -35.25 -10.35 -33.5 -13.45 -32.25 -13.95 -33.55 -11.2 -34.6 Q-15.6 -36.3 -18.6 -31.7 L-18.65 -31.4 -13.7 -32.15 -16.95 -30.25 -18.8 -28.85 -19.6 -32.8 -15.25 -35.8 M-3.0 -30.9 L0.3 -31.85 Q-2.15 -34.5 -5.35 -33.15 -7.3 -32.4 -8.7 -30.85 L-3.85 -29.15 -3.0 -30.9 M-1.0 -25.2 Q-0.65 -25.2 -0.35 -25.45 -0.1 -25.75 -0.1 -26.15 L-0.35 -26.8 -1.0 -27.1 -1.6 -26.8 -1.9 -26.15 -1.6 -25.45 Q-1.35 -25.2 -1.0 -25.2 M-7.1 -22.7 L-11.55 -25.25 -13.6 -23.95 -10.4 -22.85 -9.4 -21.7 -7.1 -22.7 M-5.25 -12.6 L-3.25 -12.6 -3.25 -14.6 -5.25 -14.6 -5.25 -12.6 M-4.45 -16.25 Q-1.75 -15.85 -1.9 -13.2 -2.0 -11.95 -3.15 -11.65 -5.4 -11.15 -6.15 -13.2 -7.1 -15.7 -4.45 -16.25" fill="#ff9900" fill-rule="evenodd" stroke="none"/>
    <path d="M29.35 -26.35 L29.55 -27.15 30.15 -27.0 Q31.05 -26.75 31.1 -27.45 L31.75 -24.5 26.95 -18.95 24.65 -19.15 29.0 -24.4 Q29.85 -24.9 29.35 -26.35 M27.65 -29.65 L27.25 -29.4 26.45 -29.85 27.65 -29.65 M21.85 -11.95 L22.55 -9.55 Q21.15 1.95 9.1 4.85 -1.7 7.35 -11.25 2.25 -20.65 -2.8 -19.55 -13.25 L-18.35 -12.9 -17.2 -5.1 Q-14.05 -2.35 -10.35 -0.55 -2.65 3.35 6.0 2.05 18.3 0.1 20.75 -11.55 L21.85 -11.95 M-24.5 -33.85 Q-24.15 -35.2 -23.3 -36.25 L-18.55 -39.65 -17.4 -43.15 Q-11.55 -47.55 -4.45 -47.8 L-4.3 -47.8 -0.3 -47.65 Q-2.4 -46.95 -4.15 -45.05 -7.3 -45.05 -9.5 -43.5 -11.7 -41.95 -11.7 -39.8 L-12.05 -39.7 -11.25 -43.3 -8.95 -45.35 Q-11.2 -45.75 -13.1 -44.5 -16.4 -42.4 -15.65 -40.3 L-12.4 -36.45 -12.05 -39.7 -11.75 -39.5 -5.5 -34.45 -11.05 -30.3 -6.8 -28.4 -6.15 -25.5 -1.35 -30.0 3.35 -28.85 3.35 -30.25 4.8 -29.05 1.55 -25.4 2.45 -23.65 -4.4 -21.7 -10.3 -26.6 -7.95 -27.6 -14.8 -29.3 -16.45 -27.25 -12.75 -26.6 -16.05 -24.85 -16.95 -30.25 -13.7 -32.15 -13.45 -32.2 -13.45 -32.25 -10.35 -33.5 -11.05 -35.25 -15.25 -35.8 -14.8 -38.05 Q-16.85 -40.2 -20.2 -38.2 -27.4 -28.5 -16.8 -22.55 L-14.55 -21.5 -12.55 -22.35 -9.75 -18.6 -8.65 -19.95 -5.4 -20.3 -4.9 -16.85 2.15 -15.95 3.0 -17.5 8.65 -19.35 11.75 -24.05 15.85 -22.2 17.35 -23.95 16.65 -25.15 Q14.05 -29.3 8.9 -29.65 7.7 -29.45 7.85 -30.7 5.25 -30.95 3.1 -32.1 1.8 -32.8 1.0 -34.0 L0.45 -34.8 1.1 -36.65 2.8 -37.25 Q8.55 -39.15 14.45 -37.75 L21.6 -31.35 15.55 -30.7 20.6 -26.05 21.05 -23.05 16.2 -21.95 17.3 -18.6 Q19.1 -17.35 21.0 -17.55 L15.85 -15.8 13.5 -16.7 13.05 -16.05 Q12.1 -9.75 5.8 -9.0 L10.45 -11.9 11.0 -17.25 9.7 -18.75 9.35 -18.4 Q7.65 -10.5 1.45 -12.9 L-1.2 -13.55 -2.25 -10.6 Q-5.9 -9.55 -7.85 -12.85 -9.15 -15.0 -8.2 -17.65 -22.8 -18.7 -24.5 -32.45 L-24.5 -33.85 M10.9 -45.45 L13.0 -44.65 Q21.15 -41.15 24.5 -32.8 19.75 -39.85 12.05 -42.75 L10.35 -41.65 6.55 -41.0 3.4 -41.55 Q1.4 -41.55 0.0 -42.35 -1.45 -43.15 -1.45 -44.25 L7.6 -42.95 8.15 -46.2 10.9 -45.45 M0.4 -28.6 Q-3.2 -28.75 -3.9 -24.85 L-3.85 -24.45 -1.0 -24.25 0.6 -26.3 0.4 -28.6 M15.4 -32.95 Q14.15 -38.45 8.1 -37.7 L1.85 -33.7 10.4 -30.25 11.9 -31.75 15.55 -31.55 15.4 -32.95 M10.7 -19.65 Q10.7 -18.5 11.3 -17.7 11.9 -16.9 12.75 -16.9 13.6 -16.9 14.2 -17.7 14.8 -18.5 14.8 -19.65 14.8 -20.8 14.2 -21.6 13.6 -22.4 12.75 -22.4 11.9 -22.4 11.3 -21.6 10.7 -20.8 10.7 -19.65 M19.5 -11.05 Q12.8 -1.8 1.45 -0.8 -10.9 -0.6 -16.15 -11.7 -9.3 -2.65 1.4 -4.05 11.25 -5.55 19.5 -11.05 M-4.45 -16.25 Q-7.1 -15.7 -6.15 -13.2 -5.4 -11.15 -3.15 -11.65 -2.0 -11.95 -1.9 -13.2 -1.75 -15.85 -4.45 -16.25" fill="#ffff00" fill-rule="evenodd" stroke="none"/>
    <path d="M29.35 -26.35 L27.25 -29.4 27.65 -29.65 28.25 -29.85 Q29.9 -29.15 29.55 -27.15 L29.35 -26.35 M2.2 8.85 L-6.65 8.05 2.2 8.85 M-1.45 -44.25 L-4.15 -45.05 Q-2.4 -46.95 -0.3 -47.65 L8.15 -46.2 7.6 -42.95 -1.45 -44.25 M-11.7 -39.8 L-11.75 -39.5 -12.05 -39.7 -11.7 -39.8 M-16.05 -24.85 L-16.8 -22.55 Q-27.4 -28.5 -20.2 -38.2 -16.85 -40.2 -14.8 -38.05 L-15.25 -35.8 -19.6 -32.8 -18.8 -28.85 -16.95 -30.25 -16.05 -24.85 M21.05 -23.05 L22.7 -21.55 24.0 -23.7 29.0 -24.4 24.65 -19.15 21.0 -17.55 Q19.1 -17.35 17.3 -18.6 L16.2 -21.95 21.05 -23.05 M1.45 -12.9 Q7.65 -10.5 9.35 -18.4 L9.7 -18.75 11.0 -17.25 10.45 -11.9 5.8 -9.0 Q1.55 -7.75 -0.5 -11.8 L1.45 -12.9 M-16.15 -11.7 Q-10.9 -0.6 1.45 -0.8 12.8 -1.8 19.5 -11.05 19.9 -11.95 20.7 -12.2 L20.75 -11.55 Q18.3 0.1 6.0 2.05 -2.65 3.35 -10.35 -0.55 -14.05 -2.35 -17.2 -5.1 L-18.35 -12.9 -16.15 -11.7" fill="#ffffff" fill-rule="evenodd" stroke="none"/>
    <path d="M24.7 -29.95 L28.3 -26.1 16.75 -29.8 24.7 -29.95 M24.1 -16.25 L21.85 -11.95 20.75 -11.55 20.7 -12.2 Q19.9 -11.95 19.5 -11.05 11.25 -5.55 1.4 -4.05 -9.3 -2.65 -16.15 -11.7 L-18.35 -12.9 -19.55 -13.25 -20.2 -13.75 -21.9 -21.0 Q-19.95 -15.85 -14.6 -14.95 L-13.05 -14.85 -6.9 -7.45 Q1.15 -4.95 8.25 -9.3 15.75 -13.9 24.1 -16.25 M6.55 -41.0 L7.8 -39.9 -0.25 -37.3 -1.35 -38.5 3.4 -41.55 6.55 -41.0 M17.15 -38.2 L15.15 -39.6 12.2 -39.8 Q15.65 -42.55 18.5 -38.4 L18.6 -36.45 19.25 -36.6 Q19.8 -36.3 18.8 -37.0 L20.45 -36.35 19.0 -34.85 17.15 -38.2 M7.6 -32.95 L9.15 -34.75 11.35 -34.35 7.8 -35.5 5.0 -34.35 Q9.65 -39.05 14.4 -34.9 L14.35 -32.7 7.6 -32.95 M5.25 -27.3 L13.95 -27.3 13.95 -24.4 5.25 -24.4 5.25 -27.3 M11.75 -21.25 L14.05 -21.25 14.05 -18.25 11.75 -18.25 11.75 -21.25 M0.8 -19.35 Q1.35 -20.35 0.6 -19.3 L0.8 -19.35 M2.5 -19.6 L2.5 -19.15 -0.5 -17.55 -2.05 -19.1 -3.25 -17.6 -0.3 -22.5 Q5.0 -23.25 4.55 -19.7 L2.5 -19.6 M-9.85 -38.4 L-9.6 -41.95 Q-4.9 -45.7 -0.75 -41.6 L-2.8 -41.15 -5.9 -39.15 -4.0 -40.25 -3.9 -37.95 -9.85 -38.4 M-13.45 -32.25 L-13.45 -32.2 -13.7 -32.15 -18.65 -31.4 -18.6 -31.7 Q-15.6 -36.3 -11.2 -34.6 L-13.95 -33.55 -13.45 -32.25 M-5.25 -12.6 L-5.25 -14.6 -3.25 -14.6 -3.25 -12.6 -5.25 -12.6 M-7.1 -22.7 L-9.4 -21.7 -10.4 -22.85 -13.6 -23.95 -11.55 -25.25 -7.1 -22.7 M-1.0 -25.2 Q-1.35 -25.2 -1.6 -25.45 L-1.9 -26.15 -1.6 -26.8 -1.0 -27.1 -0.35 -26.8 -0.1 -26.15 Q-0.1 -25.75 -0.35 -25.45 -0.65 -25.2 -1.0 -25.2 M-3.0 -30.9 L-3.85 -29.15 -8.7 -30.85 Q-7.3 -32.4 -5.35 -33.15 -2.15 -34.5 0.3 -31.85 L-3.0 -30.9" fill="#cc6600" fill-rule="evenodd" stroke="none"/>
  </g>
</svg>
