<?xml version="1.0" encoding="UTF-8" standalone="no"?>
<svg xmlns:ffdec="https://www.free-decompiler.com/flash" xmlns:xlink="http://www.w3.org/1999/xlink" ffdec:objectType="shape" height="64.5px" width="64.55px" xmlns="http://www.w3.org/2000/svg">
  <g transform="matrix(1.0, 0.0, 0.0, 1.0, 27.7, 55.75)">
    <path d="M4.3 -54.15 L5.6 -51.25 2.35 -47.15 1.7 -46.55 -0.8 -45.95 -1.7 -46.0 -1.85 -46.0 -1.85 -49.75 Q-1.85 -50.65 -2.6 -50.35 -5.9 -49.4 -4.55 -44.65 L-8.9 -39.75 -9.85 -40.75 -11.1 -44.35 Q-8.95 -51.9 -1.4 -53.7 L-0.25 -53.9 4.3 -54.15 M18.0 -48.15 L18.1 -48.1 17.95 -48.0 18.0 -48.15 M23.3 -4.7 L28.7 -7.7 22.15 -2.35 23.3 -4.7 M-17.0 -7.7 L-16.9 -7.7 -15.85 -6.55 -15.85 -5.55 -16.1 -6.0 -17.0 -7.7 M22.3 -32.7 Q20.8 -32.7 19.75 -32.05 18.7 -31.4 18.7 -30.45 17.0 -30.55 15.55 -29.3 L14.3 -28.05 11.9 -29.95 Q7.15 -33.3 2.6 -30.1 L2.6 -30.15 5.95 -35.9 5.9 -33.95 8.2 -35.95 10.7 -35.3 12.85 -36.7 12.75 -33.9 15.2 -30.35 20.9 -34.2 25.75 -37.1 Q23.8 -35.2 22.3 -32.7 M28.2 -24.85 Q30.2 -24.9 29.7 -27.1 L29.65 -27.75 31.45 -28.55 34.1 -25.3 33.1 -19.4 Q31.4 -20.9 31.05 -18.35 L28.25 -15.05 27.3 -15.0 27.75 -18.1 25.1 -15.45 21.0 -17.3 21.8 -20.85 26.8 -21.4 28.2 -24.85 M-1.45 -32.5 Q-2.65 -33.85 -4.35 -34.05 L-3.7 -41.05 -2.65 -42.65 -2.15 -41.5 -1.45 -32.5 M-1.1 -26.25 L-3.15 -25.85 Q-2.5 -27.15 -1.1 -26.25 M-5.2 -25.25 L-5.3 -25.2 -5.55 -27.9 -5.2 -25.25 M4.55 -12.3 Q8.05 -12.3 10.5 -14.25 12.95 -16.2 12.95 -18.95 14.5 -20.4 15.45 -18.3 L15.7 -17.65 14.85 -10.2 11.1 -8.5 4.55 -12.3 M-6.15 -2.15 L-3.25 -1.15 -4.7 -0.3 -3.2 6.55 -8.25 -0.3 -7.55 -0.3 -5.8 -0.3 -6.15 -2.15 M-0.65 -0.3 L-0.3 -0.3 -0.1 0.3 Q0.5 2.25 2.25 1.65 2.5 1.25 2.35 0.85 L1.9 -0.3 3.7 -0.3 3.35 -4.45 5.25 -2.6 8.15 -0.3 6.95 -0.3 4.45 -0.25 1.2 6.95 1.15 6.95 -2.1 -0.3 -0.65 -0.3 M9.55 -1.15 L14.15 -2.45 Q14.15 0.1 12.5 1.95 10.85 3.75 8.5 3.75 L8.35 -0.3 Q9.4 -0.2 9.6 -0.65 L9.55 -1.15 M16.0 -4.1 L17.85 -5.65 15.8 -2.55 15.5 -2.15 15.65 -2.6 16.0 -4.1 M17.1 -0.3 L22.1 -6.6 17.65 2.45 17.3 2.75 15.2 3.95 12.15 5.25 17.1 -0.3 M-20.9 -40.25 L-19.75 -46.0 -15.3 -45.6 -15.9 -41.15 -17.4 -40.05 -17.45 -38.7 Q-18.8 -41.05 -20.35 -40.15 L-20.55 -38.75 -20.65 -38.5 -20.9 -40.25 M-16.15 -32.85 L-15.9 -32.55 -8.65 -25.1 Q-9.8 -25.35 -10.8 -26.0 L-14.6 -28.45 Q-15.55 -30.55 -16.15 -32.85 M-17.35 -30.8 L-15.2 -24.2 -15.15 -21.7 -16.5 -18.1 -18.9 -18.05 -20.2 -19.15 -20.8 -19.9 -21.65 -22.75 -23.7 -25.3 Q-27.25 -30.65 -24.1 -36.3 L-23.4 -37.2 -21.75 -38.2 -20.3 -36.65 -17.35 -30.8 M-8.0 -33.0 L-8.25 -32.95 Q-12.5 -36.6 -11.5 -41.25 L-8.0 -33.0 M-16.75 -0.3 L-17.6 -0.3 -22.95 -10.7 -12.8 -0.55 -12.2 1.35 -16.75 -0.3 M-11.45 -4.9 L-11.55 -4.7 -11.6 -4.9 -11.45 -4.9 M-9.6 -0.3 L-8.6 -2.7 -8.35 -0.3 -9.6 -0.3" fill="#ffffff" fill-rule="evenodd" stroke="none"/>
    <path d="M-1.85 -49.75 L-1.85 -46.0 -1.85 -45.85 -2.65 -42.65 -3.7 -41.05 -3.6 -47.5 -1.85 -49.75 M28.7 -7.7 L25.55 -3.65 17.65 2.45 22.1 -6.6 17.1 -0.3 8.5 5.95 8.5 3.75 Q10.85 3.75 12.5 1.95 14.15 0.1 14.15 -2.45 L15.25 -3.3 15.65 -2.6 15.5 -2.15 15.8 -2.55 25.25 -13.3 22.15 -2.35 28.7 -7.7 M-19.4 -0.3 L-19.45 -0.3 -24.95 -15.05 -15.85 -5.45 -16.1 -6.0 -15.85 -5.55 -15.85 -5.45 -15.25 -6.1 -12.8 -5.05 -11.75 -2.85 -12.8 -0.55 -22.95 -10.7 -17.6 -0.3 -19.4 -0.3 M28.05 -32.1 L30.05 -33.3 Q30.05 -32.35 29.6 -31.65 29.15 -30.95 28.5 -30.95 L27.8 -31.75 28.05 -32.1 M18.7 -30.45 L18.45 -28.5 15.55 -29.3 Q17.0 -30.55 18.7 -30.45 M20.9 -34.2 L15.2 -30.35 12.75 -33.9 12.85 -36.7 10.7 -35.3 8.2 -35.95 5.9 -33.95 5.95 -35.9 2.6 -30.15 5.85 -39.4 7.45 -36.2 15.1 -38.65 15.15 -35.6 17.95 -33.15 20.9 -34.2 M0.25 -30.85 Q1.55 -30.1 0.2 -29.85 L0.15 -29.8 0.25 -30.85 M-5.3 -25.2 L-6.35 -24.3 -8.65 -25.1 -15.9 -32.55 -11.95 -29.9 -11.9 -29.9 -10.75 -28.4 -5.55 -27.9 -5.3 -25.2 M-7.6 -4.2 L-6.15 -2.15 -5.8 -0.3 -7.55 -0.3 -7.6 -4.2 M-0.3 -0.3 L1.35 -0.45 1.3 -4.65 1.9 -0.3 2.35 0.85 Q2.5 1.25 2.25 1.65 0.5 2.25 -0.1 0.3 L-0.3 -0.3 M5.25 -2.6 L9.55 -1.15 9.6 -0.65 Q9.4 -0.2 8.35 -0.3 L8.15 -0.3 5.25 -2.6 M6.95 -0.3 Q6.95 2.7 5.3 4.85 3.6 6.95 1.2 6.95 L4.45 -0.25 6.95 -0.3 M1.15 6.95 L-0.2 7.25 Q-3.8 2.45 -2.1 -0.3 L1.15 6.95 M15.2 3.95 L17.3 2.75 13.0 6.05 15.2 3.95 M-11.5 -41.25 L-12.65 -45.55 -7.35 -33.6 -7.25 -33.4 -8.0 -33.0 -11.5 -41.25 M-15.9 -29.75 L-17.7 -34.3 -16.15 -32.85 Q-15.55 -30.55 -14.6 -28.45 L-13.7 -25.95 -15.9 -29.75 M-16.75 -0.3 L-12.2 1.35 -10.95 4.5 -16.75 -0.3 M-8.35 -0.3 L-8.25 -0.3 -3.2 6.55 Q-5.85 6.55 -7.7 4.55 -9.6 2.55 -9.6 -0.3 L-8.35 -0.3" fill="#ffff33" fill-rule="evenodd" stroke="none"/>
    <path d="M2.35 -47.15 L4.55 -45.75 6.75 -52.25 6.2 -53.75 4.3 -54.15 -0.25 -53.9 Q3.4 -57.2 7.8 -54.6 L9.1 -53.25 Q9.05 -49.5 8.6 -45.75 L8.6 -45.65 7.4 -37.45 16.4 -45.55 9.75 -46.25 11.8 -49.05 Q15.25 -49.95 18.0 -48.15 L17.95 -48.0 18.1 -48.1 Q18.9 -48.1 19.45 -47.6 20.0 -47.1 20.0 -46.4 L20.0 -46.05 20.3 -46.05 22.45 -42.1 22.1 -38.75 25.65 -40.75 30.95 -42.3 28.8 -39.6 Q34.0 -35.75 33.85 -29.2 L34.45 -28.4 Q38.75 -22.15 35.3 -16.0 35.3 -17.85 33.65 -18.9 L34.1 -25.3 31.45 -28.55 Q31.45 -32.1 29.8 -34.6 28.1 -37.1 25.75 -37.1 L20.9 -34.2 17.95 -33.15 15.15 -35.6 15.1 -38.65 7.45 -36.2 5.85 -39.4 2.6 -30.15 2.6 -30.1 Q7.15 -33.3 11.9 -29.95 L11.35 -27.35 8.15 -26.6 7.05 -23.25 2.5 -25.7 1.05 -28.15 -1.1 -26.25 Q-2.5 -27.15 -3.15 -25.85 -3.9 -23.5 -5.2 -25.25 L-5.55 -27.9 -10.75 -28.4 -12.25 -35.45 -13.25 -34.2 -14.5 -36.35 Q-13.95 -36.2 -13.1 -36.75 L-13.05 -36.95 Q-12.5 -39.25 -14.45 -39.7 L-14.65 -39.65 -15.3 -45.6 -19.75 -46.0 -20.9 -40.25 -23.4 -37.2 -24.1 -36.3 Q-27.25 -30.65 -23.7 -25.3 -23.7 -24.25 -23.1 -23.5 -22.5 -22.75 -21.65 -22.75 L-20.8 -19.9 -20.45 -19.3 Q-22.9 -17.5 -17.95 -13.1 L-17.95 -13.0 -19.0 -13.65 Q-32.8 -24.7 -24.75 -40.75 L-22.55 -41.2 Q-20.85 -47.15 -14.7 -49.05 L-13.45 -51.25 -12.25 -48.25 -11.2 -49.3 Q-7.25 -53.5 -1.4 -53.7 -8.95 -51.9 -11.1 -44.35 L-9.85 -40.75 -7.35 -33.6 -12.65 -45.55 -11.5 -41.25 Q-12.5 -36.6 -8.25 -32.95 L-8.0 -33.0 -7.25 -33.4 -4.55 -44.65 Q-5.9 -49.4 -2.6 -50.35 -1.85 -50.65 -1.85 -49.75 L-3.6 -47.5 -3.7 -41.05 -4.35 -34.05 Q-2.65 -33.85 -1.45 -32.5 -0.5 -31.5 0.15 -29.8 L0.2 -29.85 Q1.55 -30.1 0.25 -30.85 L2.35 -37.75 -2.15 -41.5 -2.65 -42.65 -1.85 -45.85 -1.7 -46.0 -0.8 -45.95 -0.85 -41.55 4.5 -41.3 1.7 -46.55 2.35 -47.15 M26.5 -10.95 L23.3 -4.7 22.15 -2.35 25.25 -13.3 15.8 -2.55 17.85 -5.65 20.3 -9.1 21.6 -11.6 21.55 -11.65 21.5 -11.6 20.9 -11.65 Q16.3 -6.4 8.6 -4.7 L1.4 -10.3 1.0 -9.35 Q-2.4 -3.5 -8.7 -8.2 L-7.6 -4.2 -7.55 -0.3 -8.25 -0.3 -8.35 -0.3 -8.6 -2.7 -9.6 -0.3 Q-9.6 2.55 -7.7 4.55 -5.85 6.55 -3.2 6.55 L-4.7 -0.3 -3.25 -1.15 Q-1.5 -2.05 -0.95 -1.0 L-0.65 -0.3 -2.1 -0.3 Q-3.8 2.45 -0.2 7.25 L1.15 6.95 1.2 6.95 Q3.6 6.95 5.3 4.85 6.95 2.7 6.95 -0.3 L8.15 -0.3 8.35 -0.3 8.5 3.75 8.5 5.95 17.1 -0.3 12.15 5.25 15.2 3.95 13.0 6.05 17.3 2.75 17.65 2.45 25.55 -3.65 13.35 7.35 Q6.3 9.25 -0.9 8.6 -11.65 7.25 -19.4 -0.3 L-17.6 -0.3 -16.75 -0.3 -10.95 4.5 -12.2 1.35 -12.8 -0.55 -11.75 -2.85 -12.8 -5.05 -11.6 -4.9 -11.55 -4.7 -11.45 -4.9 -9.75 -7.7 Q-15.55 -9.9 -17.95 -15.95 L-18.9 -18.05 -16.5 -18.1 -5.15 -10.05 -0.5 -13.1 -2.65 -12.5 -3.8 -15.2 -6.85 -17.35 -11.6 -14.7 -12.45 -19.95 -15.15 -21.7 -15.2 -24.2 -10.8 -26.0 Q-9.8 -25.35 -8.65 -25.1 L-6.35 -24.3 -3.7 -19.75 Q4.8 -28.0 6.95 -16.85 L2.0 -17.15 1.15 -13.65 4.55 -12.3 11.1 -8.5 14.85 -10.2 20.1 -14.6 24.1 -14.1 25.1 -15.45 27.75 -18.1 27.3 -15.0 27.3 -14.8 Q27.9 -13.65 28.25 -15.05 L31.05 -18.35 Q31.4 -20.9 33.1 -19.4 L33.3 -18.95 26.5 -10.95 M-19.45 -0.3 Q-26.95 -3.85 -26.9 -13.8 -26.9 -17.5 -27.7 -21.15 L-17.0 -7.7 -16.1 -6.0 -15.85 -5.45 -24.95 -15.05 -19.45 -0.3 M30.05 -33.3 L28.05 -32.1 28.1 -33.95 Q25.45 -33.7 27.8 -31.75 L28.5 -30.95 Q29.3 -29.7 29.65 -27.75 L29.7 -27.1 Q30.2 -24.9 28.2 -24.85 L24.15 -25.3 22.5 -24.2 21.4 -27.8 18.45 -28.5 18.7 -30.45 Q18.7 -31.4 19.75 -32.05 20.8 -32.7 22.3 -32.7 27.1 -32.15 24.4 -34.1 L28.65 -35.8 30.05 -33.3 M24.75 -28.65 L28.4 -27.25 27.75 -30.55 Q22.9 -34.0 20.45 -29.8 L22.8 -29.2 Q23.2 -26.75 24.7 -28.5 L24.75 -28.65 M16.25 -39.0 L19.7 -38.25 18.25 -43.4 16.25 -39.0 M3.5 -26.65 L5.5 -27.4 Q6.65 -25.55 7.95 -27.9 L10.0 -28.3 10.35 -30.15 8.1 -31.1 2.65 -28.05 3.5 -26.65 M12.95 -18.95 L8.3 -17.15 Q6.8 -19.05 8.2 -21.35 12.45 -28.25 16.35 -26.5 11.7 -25.9 9.95 -21.55 L9.4 -20.0 12.75 -22.3 15.35 -21.9 19.2 -23.9 20.75 -21.4 19.85 -19.9 17.2 -21.75 15.7 -17.65 15.45 -18.3 Q14.5 -20.4 12.95 -18.95 M20.05 -18.2 L20.15 -18.0 Q19.95 -13.8 16.85 -13.95 16.4 -14.0 16.3 -14.6 15.7 -17.9 17.95 -18.95 19.25 -19.2 20.05 -18.2 M18.95 -16.65 Q18.6 -17.5 17.95 -17.6 L17.65 -17.5 Q16.8 -17.0 17.05 -15.75 18.4 -14.15 19.0 -16.45 L18.95 -16.65 M1.35 -24.6 Q1.35 -24.05 0.8 -23.65 0.2 -23.25 -0.6 -23.25 L-1.95 -23.65 Q-2.55 -24.05 -2.55 -24.6 -2.55 -25.15 -1.95 -25.55 L-0.6 -25.95 0.8 -25.55 Q1.35 -25.15 1.35 -24.6 M0.1 -22.1 Q-3.95 -20.35 -3.7 -16.2 L-1.55 -15.85 0.55 -18.6 4.1 -18.1 5.5 -20.65 4.55 -21.75 0.1 -22.1 M1.3 -4.65 Q2.4 -7.05 3.25 -4.6 L3.35 -4.45 3.7 -0.3 1.9 -0.3 1.3 -4.65 M15.25 -3.3 L16.0 -4.1 15.65 -2.6 15.25 -3.3 M-20.65 -38.5 L-20.55 -38.75 -20.35 -40.15 Q-18.8 -41.05 -17.45 -38.7 L-11.9 -29.9 -11.95 -29.9 -15.9 -32.55 -16.15 -32.85 -17.7 -34.3 -15.9 -29.75 -17.35 -30.8 -20.3 -36.65 -20.65 -38.5 M-15.45 -38.6 L-15.45 -38.05 -15.65 -38.4 -15.45 -38.6 M-3.25 -29.1 L-0.45 -27.85 Q-1.75 -35.6 -8.85 -31.2 L-6.1 -30.75 -4.9 -29.2 -3.25 -29.1 M-9.25 -24.15 L-12.65 -22.3 -11.15 -21.3 -10.25 -19.05 -8.45 -20.3 -4.9 -18.0 -9.25 -24.15 M-15.25 -6.1 L-15.85 -5.45 -15.85 -5.55 -15.85 -6.55 -15.25 -6.1" fill="#ff9900" fill-rule="evenodd" stroke="none"/>
    <path d="M2.35 -47.15 L5.6 -51.25 4.3 -54.15 6.2 -53.75 6.75 -52.25 4.55 -45.75 2.35 -47.15 M-9.85 -40.75 L-8.9 -39.75 -4.55 -44.65 -7.25 -33.4 -7.35 -33.6 -9.85 -40.75 M-1.85 -46.0 L-1.7 -46.0 -1.85 -45.85 -1.85 -46.0 M9.1 -53.25 L11.8 -49.05 9.75 -46.25 16.4 -45.55 7.4 -37.45 8.6 -45.65 8.65 -45.65 8.6 -45.75 Q9.05 -49.5 9.1 -53.25 M20.0 -46.4 L20.3 -46.05 20.0 -46.05 20.0 -46.4 M22.45 -42.1 L22.7 -40.6 25.65 -40.75 22.1 -38.75 22.45 -42.1 M30.05 -33.3 L28.65 -35.8 24.4 -34.1 Q27.1 -32.15 22.3 -32.7 23.8 -35.2 25.75 -37.1 28.1 -37.1 29.8 -34.6 31.45 -32.1 31.45 -28.55 L29.65 -27.75 Q29.3 -29.7 28.5 -30.95 29.15 -30.95 29.6 -31.65 30.05 -32.35 30.05 -33.3 M18.45 -28.5 L21.4 -27.8 22.5 -24.2 24.15 -25.3 28.2 -24.85 26.8 -21.4 21.8 -20.85 21.0 -17.3 25.1 -15.45 24.1 -14.1 20.1 -14.6 14.85 -10.2 15.7 -17.65 17.2 -21.75 19.85 -19.9 20.75 -21.4 19.2 -23.9 Q19.5 -25.2 17.9 -26.05 L16.35 -26.5 Q12.45 -28.25 8.2 -21.35 6.8 -19.05 8.3 -17.15 L12.95 -18.95 Q12.95 -16.2 10.5 -14.25 8.05 -12.3 4.55 -12.3 L1.15 -13.65 2.0 -17.15 6.95 -16.85 Q4.8 -28.0 -3.7 -19.75 L-6.35 -24.3 -5.3 -25.2 -5.2 -25.25 Q-3.9 -23.5 -3.15 -25.85 L-1.1 -26.25 1.05 -28.15 2.5 -25.7 7.05 -23.25 8.15 -26.6 11.35 -27.35 11.9 -29.95 14.3 -28.05 15.55 -29.3 18.45 -28.5 M34.1 -25.3 L33.65 -18.9 33.3 -18.95 33.1 -19.4 34.1 -25.3 M16.25 -39.0 L18.25 -43.4 19.7 -38.25 16.25 -39.0 M0.15 -29.8 Q-0.5 -31.5 -1.45 -32.5 L-2.15 -41.5 2.35 -37.75 0.25 -30.85 0.15 -29.8 M20.05 -18.2 Q19.25 -19.2 17.95 -18.95 15.7 -17.9 16.3 -14.6 16.4 -14.0 16.85 -13.95 19.95 -13.8 20.15 -18.0 L20.05 -18.2 M1.35 -24.6 Q1.35 -25.15 0.8 -25.55 L-0.6 -25.95 -1.95 -25.55 Q-2.55 -25.15 -2.55 -24.6 -2.55 -24.05 -1.95 -23.65 L-0.6 -23.25 Q0.2 -23.25 0.8 -23.65 1.35 -24.05 1.35 -24.6 M21.5 -11.6 L21.55 -11.65 21.6 -11.6 21.5 -11.6 M28.25 -15.05 Q27.9 -13.65 27.3 -14.8 L27.3 -15.0 28.25 -15.05 M-20.9 -40.25 L-20.65 -38.5 -20.3 -36.65 -21.75 -38.2 -23.4 -37.2 -20.9 -40.25 M-17.45 -38.7 L-17.4 -40.05 -15.9 -41.15 -15.3 -45.6 -14.65 -39.65 -15.45 -38.6 -15.65 -38.4 -15.45 -38.05 -14.5 -36.35 -13.25 -34.2 -12.25 -35.45 -10.75 -28.4 -11.9 -29.9 -17.45 -38.7 M-17.35 -30.8 L-15.9 -29.75 -13.7 -25.95 -14.6 -28.45 -10.8 -26.0 -15.2 -24.2 -17.35 -30.8 M-23.7 -25.3 L-21.65 -22.75 Q-22.5 -22.75 -23.1 -23.5 -23.7 -24.25 -23.7 -25.3 M-20.8 -19.9 L-20.2 -19.15 -20.45 -19.3 -20.8 -19.9 M-16.5 -18.1 L-15.15 -21.7 -12.45 -19.95 -11.6 -14.7 -6.85 -17.35 -3.8 -15.2 -2.65 -12.5 -0.5 -13.1 -5.15 -10.05 -16.5 -18.1" fill="#ffff00" fill-rule="evenodd" stroke="none"/>
    <path d="M-0.8 -45.95 L1.7 -46.55 4.5 -41.3 -0.85 -41.55 -0.8 -45.95 M35.3 -16.0 L35.05 -15.05 Q32.25 -7.75 26.5 -10.95 L33.3 -18.95 33.65 -18.9 Q35.3 -17.85 35.3 -16.0 M-16.9 -7.7 Q-18.4 -9.8 -17.95 -13.0 L-17.95 -13.1 Q-22.9 -17.5 -20.45 -19.3 L-20.2 -19.15 -18.9 -18.05 -17.95 -15.95 Q-15.55 -9.9 -9.75 -7.7 L-11.45 -4.9 -11.6 -4.9 -12.8 -5.05 -15.25 -6.1 -15.85 -6.55 -16.9 -7.7 M27.8 -31.75 Q25.45 -33.7 28.1 -33.95 L28.05 -32.1 27.8 -31.75 M24.75 -28.65 L24.7 -28.5 Q23.2 -26.75 22.8 -29.2 L20.45 -29.8 Q22.9 -34.0 27.75 -30.55 L28.4 -27.25 24.75 -28.65 M3.5 -26.65 L2.65 -28.05 8.1 -31.1 10.35 -30.15 10.0 -28.3 7.95 -27.9 Q6.65 -25.55 5.5 -27.4 L3.5 -26.65 M16.35 -26.5 L17.9 -26.05 Q19.5 -25.2 19.2 -23.9 L15.35 -21.9 12.75 -22.3 9.4 -20.0 9.95 -21.55 Q11.7 -25.9 16.35 -26.5 M18.95 -16.65 L19.0 -16.45 Q18.4 -14.15 17.05 -15.75 16.8 -17.0 17.65 -17.5 L17.95 -17.6 Q18.6 -17.5 18.95 -16.65 M-7.6 -4.2 L-8.7 -8.2 Q-2.4 -3.5 1.0 -9.35 L1.4 -10.3 8.6 -4.7 Q16.3 -6.4 20.9 -11.65 L20.3 -9.1 17.85 -5.65 16.0 -4.1 15.25 -3.3 14.15 -2.45 9.55 -1.15 5.25 -2.6 3.35 -4.45 3.25 -4.6 Q2.4 -7.05 1.3 -4.65 L1.35 -0.45 -0.3 -0.3 -0.65 -0.3 -0.95 -1.0 Q-1.5 -2.05 -3.25 -1.15 L-6.15 -2.15 -7.6 -4.2 M0.1 -22.1 L4.55 -21.75 5.5 -20.65 4.1 -18.1 0.55 -18.6 -1.55 -15.85 -3.7 -16.2 Q-3.95 -20.35 0.1 -22.1 M-14.65 -39.65 L-14.45 -39.7 Q-12.5 -39.25 -13.05 -36.95 L-13.1 -36.75 Q-13.95 -36.2 -14.5 -36.35 L-15.45 -38.05 -15.45 -38.6 -14.65 -39.65 M-3.25 -29.1 L-4.9 -29.2 -6.1 -30.75 -8.85 -31.2 Q-1.75 -35.6 -0.45 -27.85 L-3.25 -29.1 M-9.25 -24.15 L-4.9 -18.0 -8.45 -20.3 -10.25 -19.05 -11.15 -21.3 -12.65 -22.3 -9.25 -24.15" fill="#cc6600" fill-rule="evenodd" stroke="none"/>
  </g>
</svg>
