<?xml version="1.0" encoding="UTF-8" standalone="no"?>
<svg xmlns:ffdec="https://www.free-decompiler.com/flash" xmlns:xlink="http://www.w3.org/1999/xlink" ffdec:objectType="shape" height="62.85px" width="65.05px" xmlns="http://www.w3.org/2000/svg">
  <g transform="matrix(1.0, 0.0, 0.0, 1.0, 28.25, 56.4)">
    <path d="M5.35 -49.5 L7.05 -50.75 5.65 -53.25 8.05 -51.75 8.45 -48.65 Q16.45 -49.75 21.6 -43.8 L23.45 -41.2 22.7 -37.85 27.95 -35.8 27.25 -31.6 24.4 -28.85 29.6 -26.25 Q29.65 -21.8 25.65 -20.8 L19.95 -19.9 Q18.8 -13.1 11.55 -13.75 9.05 -13.75 7.0 -15.2 5.0 -9.65 -1.0 -8.7 -3.8 -8.35 -5.9 -10.2 L-7.0 -16.25 -8.35 -16.7 -12.85 -13.75 -17.35 -18.6 -16.55 -22.55 Q-24.8 -25.65 -22.25 -34.55 L-20.95 -37.9 -21.75 -39.3 -18.05 -43.15 -16.35 -41.6 -18.65 -41.75 -19.15 -41.35 Q-22.0 -38.0 -18.95 -35.4 L-21.0 -28.75 -17.2 -26.25 -13.55 -27.0 -13.15 -26.95 -8.65 -22.65 -6.55 -22.7 Q-3.65 -28.45 2.4 -26.6 L2.6 -28.1 -5.05 -32.0 -5.45 -34.45 -2.75 -37.85 4.8 -36.1 4.85 -33.95 -2.7 -35.25 Q-2.15 -29.75 3.9 -28.65 5.55 -28.4 6.45 -29.5 L6.35 -32.8 7.15 -34.0 11.0 -34.0 13.05 -30.95 15.1 -35.3 16.05 -35.15 20.0 -32.6 20.55 -34.1 17.9 -36.55 Q17.9 -37.85 16.1 -38.75 14.25 -39.65 11.7 -39.65 L6.2 -39.0 6.1 -40.2 Q0.15 -44.45 -6.85 -43.05 -6.85 -44.35 -7.7 -45.25 -8.55 -46.2 -9.75 -46.2 L-6.45 -47.6 -5.85 -45.5 -3.45 -44.4 -1.05 -51.4 -1.0 -50.75 Q-0.55 -49.45 0.45 -49.5 0.45 -46.15 4.0 -43.8 7.55 -41.45 12.55 -41.45 13.5 -41.65 14.3 -42.35 L18.3 -39.25 20.6 -40.6 Q17.35 -46.85 9.15 -46.5 L5.35 -49.5 M20.75 -26.1 L17.35 -22.05 Q21.35 -19.85 24.55 -23.45 L25.2 -24.3 20.35 -31.7 20.75 -26.1 M10.55 -24.4 L10.75 -24.95 12.4 -26.8 17.85 -26.4 18.05 -28.05 Q7.95 -33.3 3.25 -23.95 L7.6 -22.75 8.9 -20.35 10.55 -24.4 M16.35 -20.4 L16.35 -20.8 13.9 -21.75 Q8.9 -20.35 10.35 -15.45 16.8 -12.75 16.35 -20.4 M2.0 -17.2 L8.9 -17.0 Q6.85 -18.75 4.6 -20.2 -1.35 -23.95 -5.65 -18.25 L-1.85 -17.9 1.75 -15.35 2.0 -17.2 M2.2 -14.05 L-2.9 -14.65 Q-2.8 -15.65 -3.4 -16.55 -4.65 -18.2 -6.1 -16.95 L-5.45 -12.0 Q-1.3 -8.05 2.3 -11.95 L2.2 -14.05 M17.6 1.55 L14.45 2.25 14.35 0.5 20.3 -2.25 17.6 1.55 M-10.05 -41.35 L-12.25 -39.55 -12.7 -35.4 -8.7 -35.65 -8.0 -33.6 -17.4 -28.5 -13.55 -35.55 -15.45 -37.5 -17.0 -36.9 -15.8 -40.75 Q-13.9 -40.75 -12.55 -42.15 -11.65 -43.05 -11.35 -44.25 L-11.6 -42.15 -10.05 -41.35 M-22.6 -10.85 L-22.4 -13.4 -19.55 -11.35 -18.75 -7.55 -22.3 -10.05 -22.6 -10.85 M-13.75 -22.3 Q-15.65 -19.4 -12.9 -17.2 -10.85 -15.6 -9.8 -17.9 -8.2 -21.45 -11.8 -23.35 -13.0 -23.35 -13.75 -22.3 M-14.0 -3.75 L-13.75 -2.3 -17.5 -2.95 -15.95 -5.05 -14.0 -3.75 M6.7 1.8 L6.35 2.2 Q4.35 3.1 2.45 2.5 L2.15 2.3 Q2.1 0.8 3.8 0.6 L5.55 0.1 5.95 -0.05 Q8.05 0.3 6.7 1.8 M-9.9 -0.15 Q-10.15 -0.3 -10.05 -0.6 -9.8 -1.7 -8.7 -1.85 -6.25 -1.95 -4.7 -0.35 -4.5 -0.1 -4.75 0.15 -5.7 1.05 -7.05 0.85 -8.65 0.65 -9.9 -0.15" fill="#ffff00" fill-rule="evenodd" stroke="none"/>
    <path d="M5.65 -53.25 L7.05 -50.75 5.35 -49.5 0.45 -49.5 Q-0.55 -49.45 -1.0 -50.75 L-1.05 -51.4 5.65 -53.25 M-9.75 -46.2 Q-8.55 -46.2 -7.7 -45.25 -6.85 -44.35 -6.85 -43.05 L-10.05 -41.35 -11.6 -42.15 -11.35 -44.25 -9.75 -46.2 M6.35 -32.8 L6.45 -29.5 Q5.55 -28.4 3.9 -28.65 -2.15 -29.75 -2.7 -35.25 L4.85 -33.95 6.35 -32.8 M-18.95 -35.4 Q-22.0 -38.0 -19.15 -41.35 L-18.65 -41.75 -16.35 -41.6 -15.8 -40.75 -17.0 -36.9 Q-18.3 -36.45 -18.95 -35.4 M16.35 -20.4 Q16.8 -12.75 10.35 -15.45 8.9 -20.35 13.9 -21.75 L16.35 -20.8 16.35 -20.4 M2.2 -14.05 L2.3 -11.95 Q-1.3 -8.05 -5.45 -12.0 L-6.1 -16.95 Q-4.65 -18.2 -3.4 -16.55 -2.8 -15.65 -2.9 -14.65 L2.2 -14.05" fill="#ffffff" fill-rule="evenodd" stroke="none"/>
    <path d="M-27.4 -37.7 L-25.65 -39.1 Q-24.9 -48.85 -16.05 -50.3 -7.55 -51.45 1.05 -55.25 8.65 -58.7 13.65 -51.9 23.0 -51.8 26.85 -43.55 L31.35 -34.35 29.45 -31.75 Q36.0 -22.25 26.0 -17.45 L19.75 -14.65 Q19.5 -9.2 14.0 -9.45 11.35 -9.75 9.2 -11.35 0.95 -3.7 -9.6 -7.7 L-9.05 -11.05 Q-16.6 -12.1 -21.1 -18.25 L-20.35 -21.9 Q-26.25 -25.45 -26.7 -32.3 L-25.55 -34.25 -27.4 -37.7 M5.35 -49.5 L9.15 -46.5 Q17.35 -46.85 20.6 -40.6 L18.3 -39.25 14.3 -42.35 4.8 -48.65 6.95 -42.9 12.55 -41.45 Q7.55 -41.45 4.0 -43.8 0.45 -46.15 0.45 -49.5 L5.35 -49.5 M-1.05 -51.4 L-3.45 -44.4 -5.85 -45.5 -6.45 -47.6 -9.75 -46.2 -11.35 -44.25 Q-11.65 -43.05 -12.55 -42.15 -13.9 -40.75 -15.8 -40.75 L-16.35 -41.6 -18.05 -43.15 -21.75 -39.3 -20.95 -37.9 -22.25 -34.55 Q-24.8 -25.65 -16.55 -22.55 L-17.35 -18.6 -12.85 -13.75 -8.35 -16.7 -7.0 -16.25 -5.9 -10.2 Q-3.8 -8.35 -1.0 -8.7 5.0 -9.65 7.0 -15.2 9.05 -13.75 11.55 -13.75 18.8 -13.1 19.95 -19.9 L25.65 -20.8 Q29.65 -21.8 29.6 -26.25 L24.4 -28.85 27.25 -31.6 27.95 -35.8 22.7 -37.85 23.45 -41.2 21.6 -43.8 Q16.45 -49.75 8.45 -48.65 L8.05 -51.75 5.65 -53.25 -1.05 -51.4 M-6.85 -43.05 Q0.15 -44.45 6.1 -40.2 L6.2 -39.0 11.7 -39.65 7.45 -35.4 15.1 -35.3 13.05 -30.95 11.0 -34.0 7.15 -34.0 6.35 -32.8 4.85 -33.95 4.8 -36.1 -2.75 -37.85 -5.45 -34.45 -5.05 -32.0 2.6 -28.1 2.4 -26.6 Q-3.65 -28.45 -6.55 -22.7 L-8.65 -22.65 -13.15 -26.95 -10.05 -28.55 -8.5 -25.5 Q-5.05 -28.8 -2.3 -28.9 -4.6 -31.1 -7.8 -31.0 -14.7 -30.85 -13.55 -27.0 L-17.2 -26.25 -21.0 -28.75 -18.95 -35.4 Q-18.3 -36.45 -17.0 -36.9 L-15.45 -37.5 -13.55 -35.55 -17.4 -28.5 -8.0 -33.6 -8.7 -35.65 -12.7 -35.4 -12.25 -39.55 -10.05 -41.35 -6.85 -43.05 M17.9 -36.55 L20.55 -34.1 20.0 -32.6 16.05 -35.15 17.9 -36.55 M20.75 -26.1 L20.35 -31.7 25.2 -24.3 24.55 -23.45 Q21.35 -19.85 17.35 -22.05 L20.75 -26.1 M10.75 -24.95 L11.05 -28.55 4.2 -25.05 5.9 -24.1 8.5 -25.25 10.55 -24.4 8.9 -20.35 7.6 -22.75 3.25 -23.95 Q7.95 -33.3 18.05 -28.05 L17.85 -26.4 12.4 -26.8 10.75 -24.95 M2.0 -17.2 L1.75 -15.35 -1.85 -17.9 -5.65 -18.25 Q-1.35 -23.95 4.6 -20.2 6.85 -18.75 8.9 -17.0 L2.0 -17.2 M20.3 -2.25 L22.75 -4.75 Q22.25 -0.3 17.6 1.55 L20.3 -2.25 M14.45 2.25 L9.35 1.2 Q5.2 5.15 0.5 2.55 L-0.45 0.35 7.7 -1.3 14.35 0.5 14.45 2.25 M27.3 -8.2 L26.5 -4.65 25.65 -7.5 27.3 -8.2 M-8.8 -36.65 Q-6.2 -35.55 -4.55 -38.15 L3.05 -39.4 Q-4.25 -45.45 -9.45 -36.85 L-8.8 -36.65 M-22.4 -13.4 L-22.6 -10.85 -23.9 -14.9 -22.4 -13.4 M-22.3 -10.05 L-18.75 -7.55 -19.55 -11.35 -15.95 -5.05 -17.5 -2.95 -13.75 -2.3 -14.0 -3.75 -5.55 -2.9 -1.7 -0.05 Q-4.85 2.35 -8.4 1.3 -10.35 0.85 -11.7 -1.0 L-19.0 -2.65 -18.05 -6.65 -21.25 -6.75 -22.3 -10.05 M-13.75 -22.3 Q-13.0 -23.35 -11.8 -23.35 -8.2 -21.45 -9.8 -17.9 -10.85 -15.6 -12.9 -17.2 -15.65 -19.4 -13.75 -22.3 M-9.9 -0.15 Q-8.65 0.65 -7.05 0.85 -5.7 1.05 -4.75 0.15 -4.5 -0.1 -4.7 -0.35 -6.25 -1.95 -8.7 -1.85 -9.8 -1.7 -10.05 -0.6 -10.15 -0.3 -9.9 -0.15 M6.7 1.8 Q8.05 0.3 5.95 -0.05 L5.55 0.1 3.8 0.6 Q2.1 0.8 2.15 2.3 L2.45 2.5 Q4.35 3.1 6.35 2.2 L6.7 1.8" fill="#ff9900" fill-rule="evenodd" stroke="none"/>
    <path d="M-27.4 -37.7 L-25.55 -34.25 -26.7 -32.3 Q-26.25 -25.45 -20.35 -21.9 L-21.1 -18.25 Q-16.6 -12.1 -9.05 -11.05 L-9.6 -7.7 Q0.95 -3.7 9.2 -11.35 11.35 -9.75 14.0 -9.45 19.5 -9.2 19.75 -14.65 L26.0 -17.45 Q36.0 -22.25 29.45 -31.75 L31.35 -34.35 26.85 -43.55 Q38.75 -40.2 35.5 -28.3 L35.05 -26.65 Q39.7 -17.75 32.0 -11.15 L30.95 -10.25 31.05 -5.85 Q22.8 4.2 10.95 4.3 4.5 8.3 -2.5 4.9 -10.0 6.65 -15.05 0.75 -19.0 1.05 -21.1 -2.2 L-22.3 -4.25 Q-28.25 -7.95 -25.0 -14.4 -29.9 -25.3 -27.4 -37.7 M14.3 -42.35 Q13.5 -41.65 12.55 -41.45 L6.95 -42.9 4.8 -48.65 14.3 -42.35 M11.7 -39.65 Q14.25 -39.65 16.1 -38.75 17.9 -37.85 17.9 -36.55 L16.05 -35.15 15.1 -35.3 7.45 -35.4 11.7 -39.65 M-13.15 -26.95 L-13.55 -27.0 Q-14.7 -30.85 -7.8 -31.0 -4.6 -31.1 -2.3 -28.9 -5.05 -28.8 -8.5 -25.5 L-10.05 -28.55 -13.15 -26.95 M10.55 -24.4 L8.5 -25.25 5.9 -24.1 4.2 -25.05 11.05 -28.55 10.75 -24.95 10.55 -24.4 M17.6 1.55 Q22.25 -0.3 22.75 -4.75 L20.3 -2.25 14.35 0.5 7.7 -1.3 -0.45 0.35 0.5 2.55 Q5.2 5.15 9.35 1.2 L14.45 2.25 17.6 1.55 M27.3 -8.2 L25.65 -7.5 26.5 -4.65 27.3 -8.2 M-8.8 -36.65 L-9.45 -36.85 Q-4.25 -45.45 3.05 -39.4 L-4.55 -38.15 Q-6.2 -35.55 -8.8 -36.65 M-22.4 -13.4 L-23.9 -14.9 -22.6 -10.85 -22.3 -10.05 -21.25 -6.75 -18.05 -6.65 -19.0 -2.65 -11.7 -1.0 Q-10.35 0.85 -8.4 1.3 -4.85 2.35 -1.7 -0.05 L-5.55 -2.9 -14.0 -3.75 -15.95 -5.05 -19.55 -11.35 -22.4 -13.4" fill="#cc6600" fill-rule="evenodd" stroke="none"/>
  </g>
</svg>
