<?xml version="1.0" encoding="UTF-8" standalone="no"?>
<svg xmlns:ffdec="https://www.free-decompiler.com/flash" xmlns:xlink="http://www.w3.org/1999/xlink" ffdec:objectType="shape" height="60.95px" width="71.8px" xmlns="http://www.w3.org/2000/svg">
  <g transform="matrix(1.0, 0.0, 0.0, 1.0, 31.0, 59.75)">
    <path d="M-27.65 -22.65 L-25.5 -23.55 -25.75 -26.85 -27.2 -28.25 -27.3 -31.4 -25.5 -32.75 -23.15 -29.85 Q-24.6 -35.9 -20.8 -40.65 L-19.8 -41.8 -20.95 -43.2 Q-20.7 -49.25 -14.7 -50.1 -12.55 -50.65 -10.75 -49.65 -7.6 -56.65 -0.1 -55.2 4.55 -58.6 8.85 -54.95 L10.55 -53.1 Q21.35 -52.2 23.6 -41.0 L21.2 -39.95 Q26.6 -35.1 26.5 -27.7 L22.3 -25.25 Q17.1 -13.55 4.55 -16.6 L2.0 -20.85 -3.75 -16.7 -9.25 -26.3 -14.5 -20.2 Q-15.35 -23.65 -18.6 -25.0 L-20.75 -25.7 -23.15 -29.85 Q-23.15 -26.0 -21.9 -23.25 -20.65 -20.55 -18.9 -20.55 L-17.25 -19.25 -19.45 -20.55 -23.5 -20.4 -24.75 -18.4 -17.75 -12.2 -15.05 -12.6 -15.5 -15.4 -4.55 -6.8 -4.6 -6.65 -4.4 -6.8 Q1.9 -5.9 5.55 -10.7 L6.1 -11.55 8.45 -10.25 10.5 -9.1 2.45 -6.25 3.2 -3.5 11.15 -5.6 8.3 -2.75 7.2 -2.5 Q2.95 -1.35 -0.25 -4.3 L-2.15 -4.4 -3.6 -3.15 -12.75 -5.25 -12.55 -6.7 -13.95 -9.45 -18.3 -8.45 -21.45 -14.2 -27.8 -18.75 -27.65 -22.65 M21.05 -25.6 L23.4 -31.7 18.05 -26.9 21.05 -25.6 M32.9 -28.2 L35.05 -28.0 Q35.45 -17.5 28.5 -9.8 L21.45 -7.95 18.65 -4.3 Q17.45 -3.65 15.75 -3.85 L12.95 -7.3 15.75 -8.95 21.95 -11.95 19.5 -8.7 22.2 -9.55 23.2 -8.75 Q28.1 -9.85 28.6 -14.2 L26.8 -15.6 24.3 -14.6 Q22.55 -13.5 23.5 -15.0 L24.05 -16.0 32.25 -16.8 31.65 -23.8 32.9 -28.2 M13.15 -43.8 L14.9 -44.4 15.25 -39.95 16.8 -39.4 19.45 -41.3 Q14.3 -47.4 6.95 -44.25 L2.5 -50.3 Q1.0 -53.85 -3.15 -53.85 -7.85 -50.9 -5.45 -47.85 L-4.5 -49.8 -1.05 -50.2 -5.55 -47.15 -6.25 -45.5 Q-11.65 -50.8 -15.95 -45.6 L-16.35 -44.85 -13.7 -44.75 -12.0 -43.1 -10.75 -45.05 -6.75 -42.95 Q-7.35 -40.7 -9.1 -42.35 L-9.55 -42.75 -16.25 -42.65 -21.25 -29.35 -17.95 -27.8 -16.45 -31.05 -16.85 -33.65 -12.65 -33.5 -13.9 -30.15 -9.95 -27.45 -11.6 -29.7 -11.15 -31.65 -12.75 -35.4 -16.35 -35.75 -10.9 -39.45 -8.45 -38.45 -14.7 -36.05 -11.9 -35.45 -7.8 -37.7 -6.25 -34.55 -4.7 -33.9 -4.6 -30.2 -9.65 -27.4 -2.1 -31.3 -0.4 -31.65 Q3.35 -34.55 7.3 -32.2 L8.3 -31.45 11.2 -32.8 Q13.85 -29.4 17.65 -31.05 18.7 -31.55 19.4 -32.6 L19.3 -36.0 15.5 -35.0 14.15 -33.5 11.6 -35.45 6.5 -34.55 6.95 -37.5 3.45 -36.9 2.4 -34.55 -1.5 -34.75 -6.2 -39.15 -2.65 -48.0 2.05 -49.15 4.45 -46.25 1.05 -44.75 8.2 -40.55 8.35 -38.55 10.35 -40.35 9.1 -42.4 10.8 -42.95 12.25 -40.65 14.25 -42.5 13.15 -43.8 M14.7 -45.35 L15.4 -47.3 8.45 -52.2 5.15 -48.4 7.6 -49.35 8.7 -46.65 10.55 -48.7 14.7 -45.35 M2.0 -46.45 Q2.35 -47.3 1.7 -47.85 0.5 -48.8 -1.05 -48.25 -2.45 -47.85 -1.85 -46.2 -1.75 -45.85 -1.45 -45.85 L1.2 -45.9 Q1.7 -45.95 2.0 -46.45 M4.6 -41.75 L-3.85 -41.75 -3.85 -38.3 4.6 -38.3 4.6 -41.75 M6.15 -32.15 Q1.0 -32.2 2.35 -30.5 4.45 -28.2 7.05 -30.85 L7.15 -31.15 6.15 -32.15 M2.75 -24.95 Q3.35 -30.15 -2.95 -29.65 L-2.75 -27.15 0.3 -26.15 2.65 -25.0 -2.15 -26.3 -6.1 -23.25 5.7 -23.25 2.75 -24.95 M8.0 -28.35 L7.55 -28.35 Q6.4 -27.75 8.0 -28.35 M0.25 -30.55 Q0.2 -28.8 0.35 -30.35 L0.25 -30.55 M6.6 -27.7 Q7.6 -22.2 12.7 -26.2 L15.45 -26.0 14.2 -27.6 17.45 -28.55 12.3 -29.75 9.6 -28.15 6.6 -27.7 M14.85 -39.25 L8.9 -36.8 16.5 -36.75 14.85 -39.25 M8.5 -21.9 L9.25 -19.55 15.7 -23.65 13.9 -25.45 8.5 -21.9 M-1.2 -39.2 Q-1.4 -40.05 -1.15 -39.2 L-1.2 -39.2 M-15.4 -25.0 L-15.45 -24.85 Q-13.2 -23.4 -15.4 -25.0 M-9.7 -32.25 Q-10.9 -30.4 -9.25 -29.15 -7.65 -29.55 -6.5 -31.05 L-6.4 -31.35 Q-6.25 -33.35 -8.35 -33.1 L-8.65 -33.0 Q-9.3 -32.9 -9.7 -32.25" fill="#ff9900" fill-rule="evenodd" stroke="none"/>
    <path d="M21.05 -25.6 L18.05 -26.9 23.4 -31.7 21.05 -25.6 M2.5 -50.3 L6.95 -44.25 Q14.3 -47.4 19.45 -41.3 L16.8 -39.4 15.25 -39.95 14.9 -44.4 13.15 -43.8 10.8 -42.95 9.1 -42.4 10.35 -40.35 8.35 -38.55 8.2 -40.55 1.05 -44.75 4.45 -46.25 2.05 -49.15 -2.65 -48.0 -6.2 -39.15 -1.5 -34.75 2.4 -34.55 3.45 -36.9 6.95 -37.5 6.5 -34.55 11.6 -35.45 14.15 -33.5 15.5 -35.0 19.3 -36.0 19.4 -32.6 Q18.7 -31.55 17.65 -31.05 13.85 -29.4 11.2 -32.8 L8.3 -31.45 7.3 -32.2 Q3.35 -34.55 -0.4 -31.65 L-2.1 -31.3 -9.65 -27.4 -4.6 -30.2 -4.7 -33.9 -6.25 -34.55 -7.8 -37.7 -8.45 -38.45 -10.9 -39.45 -16.35 -35.75 -12.75 -35.4 -11.15 -31.65 -11.6 -29.7 -9.95 -27.45 -13.9 -30.15 -12.65 -33.5 -16.85 -33.65 -16.45 -31.05 -17.95 -27.8 -21.25 -29.35 -16.25 -42.65 -9.55 -42.75 -9.1 -42.35 Q-7.35 -40.7 -6.75 -42.95 L-6.25 -45.5 -5.55 -47.15 -1.05 -50.2 2.5 -50.3 M2.75 -24.95 L5.7 -23.25 -6.1 -23.25 -2.15 -26.3 2.65 -25.0 2.75 -24.95 M0.25 -30.55 L0.35 -30.35 Q0.2 -28.8 0.25 -30.55 M8.0 -28.35 Q6.4 -27.75 7.55 -28.35 L8.0 -28.35 M8.5 -21.9 L13.9 -25.45 15.7 -23.65 9.25 -19.55 8.5 -21.9 M-15.4 -25.0 Q-13.2 -23.4 -15.45 -24.85 L-15.4 -25.0" fill="#ffff00" fill-rule="evenodd" stroke="none"/>
    <path d="M-30.9 -22.45 L-28.6 -27.65 -28.95 -29.35 Q-29.1 -33.3 -25.65 -35.35 L-24.7 -39.75 Q-22.25 -54.9 -10.4 -53.85 L-9.55 -54.8 Q-6.3 -58.45 -1.2 -57.45 6.25 -62.65 12.65 -56.0 L13.95 -55.95 Q19.75 -55.45 22.8 -49.9 L24.7 -50.8 26.45 -38.2 29.2 -32.65 28.1 -24.65 18.85 -17.1 18.1 -15.0 Q11.7 -11.25 4.8 -13.65 L3.4 -12.5 -3.8 -12.55 -4.4 -15.2 -8.95 -15.05 -9.2 -19.7 -11.7 -19.35 -11.2 -15.1 -18.9 -20.55 Q-20.65 -20.55 -21.9 -23.25 -23.15 -26.0 -23.15 -29.85 L-20.75 -25.7 -18.6 -25.0 Q-15.35 -23.65 -14.5 -20.2 L-9.25 -26.3 -3.75 -16.7 2.0 -20.85 4.55 -16.6 Q17.1 -13.55 22.3 -25.25 L26.5 -27.7 Q26.6 -35.1 21.2 -39.95 L23.6 -41.0 Q21.35 -52.2 10.55 -53.1 L8.85 -54.95 Q4.55 -58.6 -0.1 -55.2 -7.6 -56.65 -10.75 -49.65 -12.55 -50.65 -14.7 -50.1 -20.7 -49.25 -20.95 -43.2 L-19.8 -41.8 -20.8 -40.65 Q-24.6 -35.9 -23.15 -29.85 L-25.5 -32.75 -27.3 -31.4 -27.2 -28.25 -25.75 -26.85 -25.5 -23.55 -27.65 -22.65 -28.0 -22.9 Q-29.8 -23.45 -30.9 -22.45 M31.15 -35.25 Q37.15 -35.75 39.4 -30.6 L34.25 -17.4 34.95 -14.85 34.3 -13.5 Q28.75 -5.05 18.65 -4.3 L21.45 -7.95 28.5 -9.8 Q35.45 -17.5 35.05 -28.0 L32.9 -28.2 Q33.25 -31.95 31.15 -35.25 M29.7 -5.65 L29.45 -5.3 29.45 -5.65 29.7 -5.65 M13.15 -43.8 L14.25 -42.5 12.25 -40.65 10.8 -42.95 13.15 -43.8 M-7.8 -37.7 L-11.9 -35.45 -14.7 -36.05 -8.45 -38.45 -7.8 -37.7 M-6.75 -42.95 L-10.75 -45.05 -12.0 -43.1 -13.7 -44.75 -16.35 -44.85 -15.95 -45.6 Q-11.65 -50.8 -6.25 -45.5 L-6.75 -42.95 M-1.05 -50.2 L-4.5 -49.8 -5.45 -47.85 Q-7.85 -50.9 -3.15 -53.85 1.0 -53.85 2.5 -50.3 L-1.05 -50.2 M14.7 -45.35 L10.55 -48.7 8.7 -46.65 7.6 -49.35 5.15 -48.4 8.45 -52.2 15.4 -47.3 14.7 -45.35 M6.15 -32.15 L7.15 -31.15 7.05 -30.85 Q4.45 -28.2 2.35 -30.5 1.0 -32.2 6.15 -32.15 M4.6 -41.75 L4.6 -38.3 -3.85 -38.3 -3.85 -41.75 4.6 -41.75 M2.0 -46.45 Q1.7 -45.95 1.2 -45.9 L-1.45 -45.85 Q-1.75 -45.85 -1.85 -46.2 -2.45 -47.85 -1.05 -48.25 0.5 -48.8 1.7 -47.85 2.35 -47.3 2.0 -46.45 M2.65 -25.0 L0.3 -26.15 -2.75 -27.15 -2.95 -29.65 Q3.35 -30.15 2.75 -24.95 L2.65 -25.0 M14.85 -39.25 L16.5 -36.75 8.9 -36.8 14.85 -39.25 M6.6 -27.7 L9.6 -28.15 12.3 -29.75 17.45 -28.55 14.2 -27.6 15.45 -26.0 12.7 -26.2 Q7.6 -22.2 6.6 -27.7 M-27.8 -18.75 L-21.45 -14.2 -18.3 -8.45 -13.95 -9.45 -12.55 -6.7 -12.75 -5.25 -3.6 -3.15 -2.15 -4.4 -0.25 -4.3 Q2.95 -1.35 7.2 -2.5 L8.3 -2.75 11.15 -5.6 3.2 -3.5 2.45 -6.25 10.5 -9.1 8.45 -10.25 Q11.7 -8.8 15.75 -8.95 L12.95 -7.3 15.75 -3.85 13.9 -1.85 Q3.3 -0.45 -7.25 -2.8 -15.0 -4.4 -22.0 -8.05 L-22.2 -12.2 -27.6 -14.1 -27.8 -18.75 M-15.5 -15.4 L-15.05 -12.6 -17.75 -12.2 -24.75 -18.4 -23.5 -20.4 -19.45 -20.55 -22.25 -18.95 -15.5 -15.4 M31.65 -23.8 L32.25 -16.8 24.05 -16.0 Q26.4 -17.4 27.15 -20.6 30.25 -21.0 31.65 -23.8 M24.3 -14.6 L26.8 -15.6 28.6 -14.2 Q28.1 -9.85 23.2 -8.75 L22.2 -9.55 19.5 -8.7 21.95 -11.95 24.3 -14.6 M-1.2 -39.2 L-1.15 -39.2 Q-1.4 -40.05 -1.2 -39.2 M-9.7 -32.25 Q-9.3 -32.9 -8.65 -33.0 L-8.35 -33.1 Q-6.25 -33.35 -6.4 -31.35 L-6.5 -31.05 Q-7.65 -29.55 -9.25 -29.15 -10.9 -30.4 -9.7 -32.25" fill="#cc6600" fill-rule="evenodd" stroke="none"/>
    <path d="M-30.9 -22.45 Q-29.8 -23.45 -28.0 -22.9 L-27.65 -22.65 -27.8 -18.75 -27.6 -14.1 -22.2 -12.2 -22.0 -8.05 Q-15.0 -4.4 -7.25 -2.8 3.3 -0.45 13.9 -1.85 L15.75 -3.85 Q17.45 -3.65 18.65 -4.3 28.75 -5.05 34.3 -13.5 L34.95 -14.85 34.25 -17.4 39.4 -30.6 Q42.45 -24.8 38.8 -19.15 L37.95 -17.9 Q38.55 -9.7 30.65 -7.05 L29.7 -5.65 29.45 -5.65 29.45 -5.3 Q25.9 -0.95 20.5 -2.0 L19.15 -2.45 Q14.15 2.65 7.65 -0.15 1.15 3.1 -4.55 -1.55 -8.6 1.0 -12.9 -1.3 -14.2 -1.9 -15.05 -3.15 -21.7 -3.55 -24.2 -9.45 -24.85 -10.95 -25.1 -12.45 -31.85 -15.25 -30.9 -22.45 M-18.9 -20.55 L-11.2 -15.1 -11.7 -19.35 -9.2 -19.7 -8.95 -15.05 -4.4 -15.2 -3.8 -12.55 3.4 -12.5 4.8 -13.65 Q11.7 -11.25 18.1 -15.0 L18.85 -17.1 28.1 -24.65 29.2 -32.65 26.45 -38.2 24.7 -50.8 Q26.1 -50.8 27.05 -49.65 31.85 -44.0 28.7 -37.65 L31.15 -35.25 Q33.25 -31.95 32.9 -28.2 L31.65 -23.8 Q30.25 -21.0 27.15 -20.6 26.4 -17.4 24.05 -16.0 L23.5 -15.0 Q22.55 -13.5 24.3 -14.6 L21.95 -11.95 15.75 -8.95 Q11.7 -8.8 8.45 -10.25 L6.1 -11.55 5.55 -10.7 Q1.9 -5.9 -4.4 -6.8 L-4.55 -6.8 -15.5 -15.4 -22.25 -18.95 -19.45 -20.55 -17.25 -19.25 -18.9 -20.55" fill="#990000" fill-rule="evenodd" stroke="none"/>
  </g>
</svg>
