<?xml version="1.0" encoding="UTF-8" standalone="no"?>
<svg xmlns:ffdec="https://www.free-decompiler.com/flash" xmlns:xlink="http://www.w3.org/1999/xlink" ffdec:objectType="shape" height="59.55px" width="71.75px" xmlns="http://www.w3.org/2000/svg">
  <g transform="matrix(1.0, 0.0, 0.0, 1.0, 30.95, 60.4)">
    <path d="M-1.05 -52.1 L2.5 -52.2 6.95 -46.2 Q14.3 -49.45 19.45 -43.25 L16.7 -41.0 15.25 -41.9 14.9 -46.35 13.15 -45.75 10.8 -44.9 9.1 -44.35 10.35 -42.3 8.35 -40.5 8.2 -42.5 1.05 -46.7 4.45 -48.2 2.0 -51.05 -3.0 -49.7 -2.95 -46.95 -6.2 -41.1 -1.5 -36.7 2.4 -36.5 3.45 -38.85 6.95 -39.45 6.5 -36.5 11.6 -37.4 14.15 -35.45 15.5 -36.95 19.3 -37.95 18.65 -33.65 Q14.4 -30.9 11.2 -34.75 L7.35 -34.15 Q4.5 -35.5 1.45 -34.7 -0.5 -34.15 -1.75 -32.75 -5.7 -28.3 -9.7 -29.5 -5.9 -29.25 -4.65 -33.05 -4.15 -34.5 -4.7 -35.85 L-6.25 -36.5 -8.2 -40.25 -8.2 -40.5 -8.35 -40.4 Q-12.8 -42.65 -15.75 -38.65 L-16.55 -37.4 -12.75 -37.35 -10.4 -29.75 -14.0 -32.4 -12.3 -35.05 -17.25 -35.3 -16.45 -32.95 -17.95 -29.75 -21.25 -31.3 -16.25 -44.6 -7.6 -43.65 -6.75 -44.9 -6.25 -47.45 -5.55 -49.1 -1.05 -52.1 M21.05 -27.6 L18.05 -28.85 23.4 -33.65 21.05 -27.6 M16.55 -25.75 L9.25 -21.5 8.5 -23.85 13.9 -27.35 16.55 -25.75 M-1.05 -41.45 Q-1.55 -41.0 -1.05 -41.55 L-1.05 -41.45 M-15.3 -26.9 L-13.75 -26.15 Q-17.25 -25.85 -15.3 -26.9 M-2.15 -28.25 L5.7 -25.2 -6.1 -25.2 -2.15 -28.25" fill="#ff9900" fill-rule="evenodd" stroke="none"/>
    <path d="M2.5 -52.2 L1.1 -54.55 -2.75 -55.7 -6.15 -50.6 -1.05 -52.1 -5.55 -49.1 -6.25 -47.45 Q-11.65 -52.75 -15.95 -47.55 L-16.35 -46.8 -13.7 -46.7 -12.0 -45.05 -10.75 -47.0 -6.75 -44.9 -7.6 -43.65 -16.25 -44.6 -21.25 -31.3 -17.95 -29.75 -16.45 -32.95 -17.25 -35.3 -12.3 -35.05 -14.0 -32.4 -10.4 -29.75 -12.75 -37.35 -16.55 -37.4 -15.75 -38.65 Q-12.8 -42.65 -8.35 -40.4 L-14.7 -38.0 -12.1 -38.3 -10.8 -36.75 -8.2 -38.1 -8.2 -40.25 -6.25 -36.5 -4.7 -35.85 Q-4.15 -34.5 -4.65 -33.05 -5.9 -29.25 -9.7 -29.5 -5.7 -28.3 -1.75 -32.75 -0.5 -34.15 1.45 -34.7 4.5 -35.5 7.35 -34.15 L11.2 -34.75 Q14.4 -30.9 18.65 -33.65 L19.3 -37.95 15.5 -36.95 14.15 -35.45 11.6 -37.4 6.5 -36.5 6.95 -39.45 3.45 -38.85 2.4 -36.5 -1.5 -36.7 -6.2 -41.1 -2.95 -46.95 -3.0 -49.7 2.0 -51.05 4.45 -48.2 1.05 -46.7 8.2 -42.5 8.35 -40.5 10.35 -42.3 9.1 -44.35 10.8 -44.9 12.25 -42.6 14.25 -44.45 13.15 -45.75 14.9 -46.35 15.25 -41.9 16.7 -41.0 19.45 -43.25 Q14.3 -49.45 6.95 -46.2 L2.5 -52.2 M7.6 -51.3 L8.7 -48.6 10.55 -50.65 14.7 -47.3 15.4 -49.25 10.1 -54.2 Q5.05 -54.35 5.3 -50.15 L7.6 -51.3 M29.7 -7.6 L29.45 -7.25 29.45 -7.6 29.7 -7.6 M-27.65 -24.6 L-25.5 -25.5 -25.75 -28.8 -27.25 -30.7 -27.3 -33.3 -25.3 -35.0 -23.15 -31.8 Q-24.55 -38.95 -19.85 -43.7 L-19.65 -43.85 Q-22.15 -49.8 -15.9 -52.05 -13.4 -52.8 -10.75 -51.6 -7.65 -58.85 -0.1 -57.15 4.9 -60.55 8.95 -57.05 L10.55 -55.05 Q21.3 -54.1 23.6 -42.95 L21.0 -41.0 Q28.6 -36.4 24.75 -29.55 23.85 -28.0 22.3 -27.2 17.2 -15.45 4.55 -18.55 L2.55 -22.85 Q1.2 -22.8 0.7 -21.7 -0.85 -18.35 -4.35 -18.85 L-9.25 -28.25 -14.5 -22.15 Q-15.75 -26.05 -19.25 -27.45 L-19.95 -27.6 -23.15 -31.8 -23.35 -30.65 Q-24.35 -25.1 -18.9 -22.45 L-17.15 -21.15 -19.45 -22.5 -22.1 -21.0 -24.55 -19.6 -17.75 -14.15 -15.05 -14.55 -15.5 -17.35 -4.55 -8.75 -4.6 -8.6 -4.4 -8.75 Q1.9 -7.8 5.55 -12.6 L6.1 -13.5 8.65 -12.05 10.5 -11.05 2.25 -7.9 3.05 -5.85 -2.15 -6.35 -3.6 -5.1 -12.75 -7.2 -12.55 -8.65 -13.95 -11.4 -18.3 -10.45 -27.8 -20.65 -27.65 -24.6 M21.05 -27.6 L23.4 -33.65 18.05 -28.85 21.05 -27.6 M32.9 -30.15 L35.05 -29.95 Q35.45 -19.5 28.5 -11.7 L21.45 -9.9 18.65 -6.25 Q17.45 -5.6 15.75 -5.8 L12.95 -9.25 15.6 -10.85 21.95 -13.9 19.5 -10.65 24.4 -10.95 28.6 -16.15 26.8 -17.55 24.3 -16.55 Q22.6 -15.55 23.5 -16.95 L24.05 -17.95 32.25 -18.75 31.65 -25.75 32.9 -30.15 M15.85 -40.95 Q10.15 -42.5 9.25 -38.35 L13.45 -39.15 16.5 -38.7 15.85 -40.95 M4.95 -43.85 L-4.2 -43.85 -4.2 -40.25 4.95 -40.25 4.95 -43.85 M2.0 -48.4 Q2.35 -49.25 1.7 -49.75 0.5 -50.7 -1.05 -50.2 -2.45 -49.8 -1.85 -48.15 -1.75 -47.8 -1.45 -47.8 L1.2 -47.85 Q1.7 -47.9 2.0 -48.4 M7.0 -32.25 Q5.1 -36.15 2.05 -32.65 L2.2 -32.6 Q3.4 -30.55 6.45 -31.7 L7.0 -32.25 M0.35 -32.3 L0.25 -32.5 Q0.2 -30.65 0.35 -32.3 M6.6 -29.6 Q7.6 -24.05 12.7 -28.15 L15.45 -27.95 14.2 -29.55 17.45 -30.5 12.3 -31.7 9.6 -30.1 6.6 -29.6 M8.0 -30.25 L7.55 -30.3 Q6.4 -29.65 8.0 -30.25 M16.55 -25.75 L13.9 -27.35 8.5 -23.85 9.25 -21.5 16.55 -25.75 M4.35 -5.7 L11.15 -7.55 9.4 -5.1 4.35 -5.7 M-15.3 -26.9 Q-17.25 -25.85 -13.75 -26.15 L-15.3 -26.9 M-6.4 -33.3 Q-6.25 -35.3 -8.35 -35.05 L-8.65 -34.95 Q-9.3 -34.85 -9.7 -34.2 -10.9 -32.35 -9.25 -31.1 -7.65 -31.45 -6.5 -32.95 L-6.4 -33.3 M-2.75 -29.1 L3.55 -27.65 -1.65 -31.7 -2.75 -29.1 M-2.15 -28.25 L-6.1 -25.2 5.7 -25.2 -2.15 -28.25" fill="#cc6600" fill-rule="evenodd" stroke="none"/>
    <path d="M0.35 -32.3 Q0.2 -30.65 0.25 -32.5 L0.35 -32.3 M8.0 -30.25 Q6.4 -29.65 7.55 -30.3 L8.0 -30.25" fill="#ffff00" fill-rule="evenodd" stroke="none"/>
    <path d="M-1.05 -52.1 L-6.15 -50.6 -2.75 -55.7 1.1 -54.55 2.5 -52.2 -1.05 -52.1 M13.15 -45.75 L14.25 -44.45 12.25 -42.6 10.8 -44.9 13.15 -45.75 M-8.2 -40.25 L-8.2 -38.1 -10.8 -36.75 -12.1 -38.3 -14.7 -38.0 -8.35 -40.4 -8.2 -40.5 -8.2 -40.25 M-6.75 -44.9 L-10.75 -47.0 -12.0 -45.05 -13.7 -46.7 -16.35 -46.8 -15.95 -47.55 Q-11.65 -52.75 -6.25 -47.45 L-6.75 -44.9 M7.6 -51.3 L5.3 -50.15 Q5.05 -54.35 10.1 -54.2 L15.4 -49.25 14.7 -47.3 10.55 -50.65 8.7 -48.6 7.6 -51.3 M-30.9 -24.4 L-27.3 -33.3 Q-25.7 -43.35 -19.45 -51.15 -13.35 -58.85 -3.5 -60.2 6.85 -61.2 16.55 -57.15 20.45 -55.55 22.55 -51.85 L24.7 -52.75 26.45 -40.15 29.2 -34.6 28.1 -26.6 18.85 -19.05 18.1 -16.95 Q11.95 -12.8 5.15 -15.85 L3.4 -14.45 -3.8 -14.5 -4.4 -17.15 -8.95 -17.0 -9.8 -22.1 -11.7 -21.3 -11.2 -17.05 -18.9 -22.45 Q-24.35 -25.1 -23.35 -30.65 L-23.15 -31.8 -19.95 -27.6 -19.25 -27.45 Q-15.75 -26.05 -14.5 -22.15 L-9.25 -28.25 -4.35 -18.85 Q-0.85 -18.35 0.7 -21.7 1.2 -22.8 2.55 -22.85 L4.55 -18.55 Q17.2 -15.45 22.3 -27.2 23.85 -28.0 24.75 -29.55 28.6 -36.4 21.0 -41.0 L23.6 -42.95 Q21.3 -54.1 10.55 -55.05 L8.95 -57.05 Q4.9 -60.55 -0.1 -57.15 -7.65 -58.85 -10.75 -51.6 -13.4 -52.8 -15.9 -52.05 -22.15 -49.8 -19.65 -43.85 L-19.85 -43.7 Q-24.55 -38.95 -23.15 -31.8 L-25.3 -35.0 -27.3 -33.3 -27.25 -30.7 -25.75 -28.8 -25.5 -25.5 -27.65 -24.6 -30.9 -24.4 M31.15 -37.2 Q37.15 -37.7 39.4 -32.5 L34.25 -19.35 34.95 -16.8 34.25 -15.4 Q28.8 -6.9 18.65 -6.25 L21.45 -9.9 28.5 -11.7 Q35.45 -19.5 35.05 -29.95 L32.9 -30.15 Q33.25 -33.9 31.15 -37.2 M7.0 -32.25 L6.45 -31.7 Q3.4 -30.55 2.2 -32.6 L2.05 -32.65 Q5.1 -36.15 7.0 -32.25 M2.0 -48.4 Q1.7 -47.9 1.2 -47.85 L-1.45 -47.8 Q-1.75 -47.8 -1.85 -48.15 -2.45 -49.8 -1.05 -50.2 0.5 -50.7 1.7 -49.75 2.35 -49.25 2.0 -48.4 M4.95 -43.85 L4.95 -40.25 -4.2 -40.25 -4.2 -43.85 4.95 -43.85 M15.85 -40.95 L16.5 -38.7 13.45 -39.15 9.25 -38.35 Q10.15 -42.5 15.85 -40.95 M6.6 -29.6 L9.6 -30.1 12.3 -31.7 17.45 -30.5 14.2 -29.55 15.45 -27.95 12.7 -28.15 Q7.6 -24.05 6.6 -29.6 M8.65 -12.05 Q11.75 -10.75 15.6 -10.85 L12.95 -9.25 15.75 -5.8 13.9 -3.8 Q3.2 -2.35 -7.25 -4.7 -14.9 -6.55 -22.0 -10.0 L-22.2 -14.15 -27.6 -16.05 -27.8 -20.65 -18.3 -10.45 -13.95 -11.4 -12.55 -8.65 -12.75 -7.2 -3.6 -5.1 -2.15 -6.35 3.05 -5.85 2.25 -7.9 10.5 -11.05 8.65 -12.05 M21.95 -13.9 L24.3 -16.55 26.8 -17.55 28.6 -16.15 24.4 -10.95 19.5 -10.65 21.95 -13.9 M24.05 -17.95 Q26.4 -19.35 27.15 -22.55 30.25 -22.95 31.65 -25.75 L32.25 -18.75 24.05 -17.95 M4.35 -5.7 L9.4 -5.1 11.15 -7.55 4.35 -5.7 M-1.05 -41.45 L-1.05 -41.55 Q-1.55 -41.0 -1.05 -41.45 M-2.75 -29.1 L-1.65 -31.7 3.55 -27.65 -2.75 -29.1 M-6.4 -33.3 L-6.5 -32.95 Q-7.65 -31.45 -9.25 -31.1 -10.9 -32.35 -9.7 -34.2 -9.3 -34.85 -8.65 -34.95 L-8.35 -35.05 Q-6.25 -35.3 -6.4 -33.3 M-15.5 -17.35 L-15.05 -14.55 -17.75 -14.15 -24.55 -19.6 -22.1 -21.0 -15.5 -17.35" fill="#990000" fill-rule="evenodd" stroke="none"/>
    <path d="M24.7 -52.75 Q32.0 -48.95 29.05 -40.35 L28.7 -39.6 31.15 -37.2 Q33.25 -33.9 32.9 -30.15 L31.65 -25.75 Q30.25 -22.95 27.15 -22.55 26.4 -19.35 24.05 -17.95 L23.5 -16.95 Q22.6 -15.55 24.3 -16.55 L21.95 -13.9 15.6 -10.85 Q11.75 -10.75 8.65 -12.05 L6.1 -13.5 5.55 -12.6 Q1.9 -7.8 -4.4 -8.75 L-4.55 -8.75 -15.5 -17.35 -22.1 -21.0 -19.45 -22.5 -17.15 -21.15 -18.9 -22.45 -11.2 -17.05 -11.7 -21.3 -9.8 -22.1 -8.95 -17.0 -4.4 -17.15 -3.8 -14.5 3.4 -14.45 5.15 -15.85 Q11.95 -12.8 18.1 -16.95 L18.85 -19.05 28.1 -26.6 29.2 -34.6 26.45 -40.15 24.7 -52.75 M39.4 -32.5 Q42.75 -25.7 37.95 -19.85 L37.95 -18.05 Q37.65 -10.95 30.65 -9.0 L29.7 -7.6 29.45 -7.6 29.45 -7.25 Q25.95 -2.95 20.5 -4.0 L19.15 -4.4 Q14.25 0.65 7.65 -2.1 1.15 1.0 -4.55 -3.5 -9.45 -0.45 -13.95 -4.05 L-15.05 -5.1 Q-23.4 -6.05 -25.1 -14.4 -31.5 -17.4 -30.9 -24.4 L-27.65 -24.6 -27.8 -20.65 -27.6 -16.05 -22.2 -14.15 -22.0 -10.0 Q-14.9 -6.55 -7.25 -4.7 3.2 -2.35 13.9 -3.8 L15.75 -5.8 Q17.45 -5.6 18.65 -6.25 28.8 -6.9 34.25 -15.4 L34.95 -16.8 34.25 -19.35 39.4 -32.5" fill="#000000" fill-rule="evenodd" stroke="none"/>
  </g>
</svg>
