<?xml version="1.0" encoding="UTF-8" standalone="no"?>
<svg xmlns:ffdec="https://www.free-decompiler.com/flash" xmlns:xlink="http://www.w3.org/1999/xlink" ffdec:objectType="shape" height="55.55px" width="69.95px" xmlns="http://www.w3.org/2000/svg">
  <g transform="matrix(1.0, 0.0, 0.0, 1.0, 31.65, 63.55)">
    <path d="M0.35 -59.2 Q3.8 -61.7 7.45 -59.65 L9.0 -58.6 12.75 -54.7 20.95 -53.35 21.7 -49.05 26.9 -45.5 27.05 -42.6 25.0 -40.4 23.55 -41.1 Q23.35 -42.45 22.4 -43.15 14.2 -49.65 7.85 -40.75 L10.65 -39.8 11.75 -40.4 13.25 -41.2 13.35 -40.1 12.7 -38.5 8.65 -36.85 10.3 -34.75 25.35 -37.75 26.15 -36.85 23.95 -35.75 Q25.55 -34.8 23.6 -34.15 17.9 -37.45 9.65 -33.5 L9.0 -33.15 Q0.25 -39.55 -9.65 -34.25 -9.5 -35.7 -10.15 -37.15 -10.8 -38.65 -11.9 -39.0 -13.05 -39.35 -14.0 -38.35 -14.95 -37.35 -15.25 -35.35 L-16.3 -35.05 Q-17.25 -35.05 -17.95 -36.15 -18.65 -37.3 -18.65 -38.85 L-16.3 -37.95 Q-21.9 -43.2 -18.55 -50.0 L-17.05 -52.05 -15.5 -53.75 Q-8.85 -58.75 -1.7 -53.85 L0.15 -55.4 0.35 -59.2 M1.8 -56.9 Q1.65 -56.15 2.15 -55.6 4.35 -53.0 7.25 -55.35 7.65 -55.7 7.55 -56.2 6.85 -59.25 3.3 -58.05 2.65 -58.0 2.2 -57.45 L1.8 -56.9 M4.3 -52.3 L2.15 -48.95 3.5 -47.8 6.2 -48.85 8.45 -46.55 9.4 -47.35 9.85 -48.85 16.35 -48.95 17.3 -50.2 Q11.6 -56.6 4.3 -52.3 M-11.75 -34.15 L-12.5 -34.0 -12.55 -34.25 -11.75 -34.15 M-15.4 -9.85 L-15.6 -9.95 -15.45 -9.95 -15.4 -9.85 M-28.7 -40.4 L-27.5 -45.55 -26.8 -39.7 -27.85 -40.75 -28.7 -40.4 M29.9 -36.55 L29.9 -36.65 29.95 -36.55 29.9 -36.55 M10.15 -12.0 L5.35 -13.5 4.45 -15.85 1.25 -16.0 Q-0.6 -13.85 -3.35 -13.4 -5.85 -12.85 -8.2 -13.95 L-9.0 -16.8 -17.8 -16.35 -18.75 -19.3 -20.0 -20.0 -22.7 -19.15 Q-25.45 -20.35 -25.95 -23.4 -26.3 -25.8 -24.85 -27.75 L-25.3 -29.8 -28.3 -30.35 -26.75 -39.25 -26.0 -32.4 -25.85 -34.7 -20.1 -25.45 -7.15 -25.3 -5.6 -23.95 6.0 -26.3 10.65 -21.25 Q16.3 -28.65 25.6 -25.95 L27.0 -25.4 30.85 -34.05 33.5 -35.75 33.65 -35.9 33.5 -36.0 32.7 -38.95 Q38.4 -31.55 33.3 -21.25 L31.05 -20.7 Q29.05 -17.15 25.25 -15.95 21.85 -14.85 18.7 -16.6 L12.25 -12.4 10.15 -12.0 M32.95 -29.5 L34.4 -33.55 Q27.95 -31.25 30.1 -26.05 L33.0 -28.2 32.95 -29.5 M0.7 -47.3 L-1.2 -43.4 3.7 -38.25 5.85 -38.45 6.75 -40.05 4.85 -44.35 0.7 -47.3 M25.0 -21.9 L27.7 -22.4 Q20.05 -28.25 12.2 -19.8 L12.2 -19.65 14.95 -20.7 18.95 -20.05 20.25 -17.55 22.3 -21.6 25.0 -21.9 M1.55 -19.05 L2.8 -19.5 5.7 -19.6 Q1.35 -24.75 -7.3 -21.9 -14.75 -26.8 -21.0 -21.85 L-17.8 -21.3 Q-17.55 -18.8 -14.4 -20.1 L-13.2 -21.2 -1.7 -17.5 -0.4 -18.85 1.55 -19.05 M31.3 -24.05 Q28.8 -21.65 31.15 -23.85 L31.3 -24.05 M-1.9 -47.3 L0.0 -48.4 Q-6.1 -56.25 -12.75 -49.6 L-10.5 -48.6 -8.85 -46.45 -3.15 -47.75 -1.9 -47.3 M-8.85 -43.95 L-14.3 -43.75 -14.3 -42.4 -10.15 -40.9 -9.85 -37.95 -0.35 -38.5 -3.3 -41.8 -4.95 -43.65 -8.85 -43.95 M-13.2 -46.2 Q-13.2 -47.45 -14.1 -48.35 -15.0 -49.25 -16.25 -49.25 -17.5 -49.25 -18.4 -48.35 -19.3 -47.45 -19.3 -46.2 -19.3 -44.95 -18.4 -44.05 -17.5 -43.15 -16.25 -43.15 -15.0 -43.15 -14.1 -44.05 -13.2 -44.95 -13.2 -46.2" fill="#cc6600" fill-rule="evenodd" stroke="none"/>
    <path d="M9.0 -58.6 L15.35 -55.95 17.9 -57.15 20.75 -56.45 23.9 -49.25 26.85 -49.1 28.0 -47.9 Q31.0 -42.35 27.0 -36.5 L29.9 -36.55 29.95 -36.55 29.9 -36.65 29.55 -46.3 Q32.75 -46.3 35.0 -41.55 37.25 -36.85 37.25 -30.2 37.25 -22.85 29.95 -17.6 22.6 -12.4 12.25 -12.4 L18.7 -16.6 Q21.85 -14.85 25.25 -15.95 29.05 -17.15 31.05 -20.7 L33.3 -21.25 Q38.4 -31.55 32.7 -38.95 L33.5 -36.0 33.5 -35.75 30.85 -34.05 27.0 -25.4 25.6 -25.95 Q16.3 -28.65 10.65 -21.25 L6.0 -26.3 -5.6 -23.95 -7.15 -25.3 -20.1 -25.45 -25.85 -34.7 -26.0 -32.4 -26.75 -39.25 -28.3 -30.35 -25.3 -29.8 -24.85 -27.75 Q-26.3 -25.8 -25.95 -23.4 -25.45 -20.35 -22.7 -19.15 L-20.0 -20.0 -18.75 -19.3 -17.8 -16.35 -9.0 -16.8 -8.2 -13.95 Q-5.85 -12.85 -3.35 -13.4 -0.6 -13.85 1.25 -16.0 L4.45 -15.85 5.35 -13.5 10.15 -12.0 Q-0.2 -9.7 -8.5 -13.7 -15.2 -12.45 -19.5 -17.05 -28.0 -17.05 -28.45 -25.45 L-27.9 -28.9 -28.45 -29.85 Q-31.45 -35.35 -27.85 -40.75 L-26.8 -39.7 -27.5 -45.55 Q-27.5 -47.95 -25.7 -49.65 -23.95 -51.35 -21.4 -51.35 L-24.65 -39.95 -24.05 -39.1 -19.4 -29.7 -16.35 -28.75 Q-9.15 -31.4 -2.95 -27.05 5.2 -29.55 12.25 -24.8 L27.7 -30.05 24.55 -31.75 24.5 -30.5 11.1 -26.85 Q3.95 -33.2 -4.5 -28.95 -6.25 -30.05 -8.1 -30.75 -11.85 -32.15 -15.8 -32.1 L-13.55 -32.9 -16.3 -35.05 -15.25 -35.35 -12.55 -34.25 -12.5 -34.0 -11.75 -34.15 -9.65 -34.25 Q0.25 -39.55 9.0 -33.15 L9.65 -33.5 Q17.9 -37.45 23.6 -34.15 22.15 -31.35 25.75 -33.7 L27.7 -35.4 26.15 -36.85 25.35 -37.75 25.0 -40.4 27.05 -42.6 26.9 -45.5 21.7 -49.05 20.95 -53.35 12.75 -54.7 9.0 -58.6 M-18.65 -38.85 L-19.75 -40.25 Q-24.0 -47.25 -17.05 -52.05 L-18.55 -50.0 Q-21.9 -43.2 -16.3 -37.95 L-18.65 -38.85 M-15.5 -53.75 Q-13.7 -60.5 -6.55 -58.45 L-2.9 -57.2 0.35 -59.2 0.15 -55.4 -1.7 -53.85 Q-8.85 -58.75 -15.5 -53.75 M14.05 -51.5 Q6.35 -54.9 4.6 -49.45 L7.3 -50.45 14.05 -51.5 M4.3 -52.3 Q11.6 -56.6 17.3 -50.2 L16.35 -48.95 9.85 -48.85 9.4 -47.35 8.45 -46.55 6.2 -48.85 3.5 -47.8 2.15 -48.95 4.3 -52.3 M23.55 -41.1 L14.5 -38.3 13.35 -40.1 13.25 -41.2 11.75 -40.4 13.8 -42.5 21.4 -41.65 Q15.6 -49.4 9.45 -40.7 L10.65 -39.8 7.85 -40.75 Q14.2 -49.65 22.4 -43.15 23.35 -42.45 23.55 -41.1 M32.95 -29.5 L33.0 -28.2 30.1 -26.05 Q27.95 -31.25 34.4 -33.55 L32.95 -29.5 M22.3 -21.6 L20.25 -17.55 18.95 -20.05 14.95 -20.7 12.2 -19.65 12.2 -19.8 Q20.05 -28.25 27.7 -22.4 L25.0 -21.9 Q25.7 -24.9 21.35 -24.35 17.9 -24.45 16.15 -21.45 L22.3 -21.6 M1.55 -19.05 L-0.4 -18.85 -1.7 -17.5 -13.2 -21.2 -14.4 -20.1 Q-17.55 -18.8 -17.8 -21.3 L-21.0 -21.85 Q-14.75 -26.8 -7.3 -21.9 1.35 -24.75 5.7 -19.6 L2.8 -19.5 Q-0.35 -23.8 -5.3 -19.85 L-5.25 -19.8 1.55 -19.05 M31.3 -24.05 L31.15 -23.85 Q28.8 -21.65 31.3 -24.05 M-1.9 -47.3 L-3.15 -47.75 -8.85 -46.45 -10.5 -48.6 -12.75 -49.6 Q-6.1 -56.25 0.0 -48.4 L-1.9 -47.3 M-5.25 -48.85 L-1.85 -48.8 Q-4.55 -53.1 -10.25 -50.25 L-7.4 -48.45 -5.25 -48.85 M-3.3 -41.8 L-0.35 -38.5 -9.85 -37.95 -10.15 -40.9 -14.3 -42.4 -14.3 -43.75 -8.85 -43.95 -10.3 -43.55 -6.85 -39.65 -2.6 -39.6 -3.3 -41.8" fill="#990000" fill-rule="evenodd" stroke="none"/>
    <path d="M1.8 -56.9 L2.2 -57.45 Q2.65 -58.0 3.3 -58.05 6.85 -59.25 7.55 -56.2 7.65 -55.7 7.25 -55.35 4.35 -53.0 2.15 -55.6 1.65 -56.15 1.8 -56.9 M25.0 -40.4 L25.35 -37.75 10.3 -34.75 8.65 -36.85 12.7 -38.5 13.35 -40.1 14.5 -38.3 23.55 -41.1 25.0 -40.4 M-9.65 -34.25 L-11.75 -34.15 -12.55 -34.25 -15.25 -35.35 Q-14.95 -37.35 -14.0 -38.35 -13.05 -39.35 -11.9 -39.0 -10.8 -38.65 -10.15 -37.15 -9.5 -35.7 -9.65 -34.25 M0.7 -47.3 L4.85 -44.35 6.75 -40.05 5.85 -38.45 3.7 -38.25 -1.2 -43.4 0.7 -47.3 M-13.2 -46.2 Q-13.2 -44.95 -14.1 -44.05 -15.0 -43.15 -16.25 -43.15 -17.5 -43.15 -18.4 -44.05 -19.3 -44.95 -19.3 -46.2 -19.3 -47.45 -18.4 -48.35 -17.5 -49.25 -16.25 -49.25 -15.0 -49.25 -14.1 -48.35 -13.2 -47.45 -13.2 -46.2" fill="#ff9900" fill-rule="evenodd" stroke="none"/>
    <path d="M9.0 -58.6 L7.45 -59.65 Q3.8 -61.7 0.35 -59.2 L-2.9 -57.2 -6.55 -58.45 Q-13.7 -60.5 -15.5 -53.75 L-17.05 -52.05 Q-24.0 -47.25 -19.75 -40.25 L-18.65 -38.85 Q-18.65 -37.3 -17.95 -36.15 -17.25 -35.05 -16.3 -35.05 L-13.55 -32.9 -15.8 -32.1 Q-11.85 -32.15 -8.1 -30.75 -6.25 -30.05 -4.5 -28.95 3.95 -33.2 11.1 -26.85 L24.5 -30.5 24.55 -31.75 27.7 -30.05 12.25 -24.8 Q5.2 -29.55 -2.95 -27.05 -9.15 -31.4 -16.35 -28.75 L-19.4 -29.7 -24.05 -39.1 -24.65 -39.95 -21.4 -51.35 Q-15.55 -61.5 -4.1 -63.25 4.45 -64.8 10.5 -58.4 L20.45 -58.25 26.85 -49.1 23.9 -49.25 20.75 -56.45 17.9 -57.15 15.35 -55.95 9.0 -58.6 M14.05 -51.5 L7.3 -50.45 4.6 -49.45 Q6.35 -54.9 14.05 -51.5 M26.15 -36.85 L27.7 -35.4 25.75 -33.7 Q22.15 -31.35 23.6 -34.15 25.55 -34.8 23.95 -35.75 L26.15 -36.85 M28.0 -47.9 L29.55 -46.3 29.9 -36.65 29.9 -36.55 27.0 -36.5 Q31.0 -42.35 28.0 -47.9 M37.25 -30.2 Q40.15 -23.95 35.0 -20.0 L34.25 -19.65 Q32.3 -11.8 24.65 -12.25 L23.85 -12.45 Q18.15 -6.5 10.7 -10.3 3.9 -5.65 -2.45 -10.5 L-15.4 -9.85 -15.45 -9.95 -15.6 -9.95 Q-20.85 -14.75 -26.8 -19.7 -30.85 -23.05 -29.9 -28.35 -33.95 -34.7 -28.7 -40.4 L-27.85 -40.75 Q-31.45 -35.35 -28.45 -29.85 L-27.9 -28.9 -28.45 -25.45 Q-28.0 -17.05 -19.5 -17.05 -15.2 -12.45 -8.5 -13.7 -0.2 -9.7 10.15 -12.0 L12.25 -12.4 Q22.6 -12.4 29.95 -17.6 37.25 -22.85 37.25 -30.2 M10.65 -39.8 L9.45 -40.7 Q15.6 -49.4 21.4 -41.65 L13.8 -42.5 11.75 -40.4 10.65 -39.8 M22.3 -21.6 L16.15 -21.45 Q17.9 -24.45 21.35 -24.35 25.7 -24.9 25.0 -21.9 L22.3 -21.6 M2.8 -19.5 L1.55 -19.05 -5.25 -19.8 -5.3 -19.85 Q-0.35 -23.8 2.8 -19.5 M-5.25 -48.85 L-7.4 -48.45 -10.25 -50.25 Q-4.55 -53.1 -1.85 -48.8 L-5.25 -48.85 M-3.3 -41.8 L-2.6 -39.6 -6.85 -39.65 -10.3 -43.55 -8.85 -43.95 -4.95 -43.65 -3.3 -41.8" fill="#000000" fill-rule="evenodd" stroke="none"/>
  </g>
</svg>
