<?xml version="1.0" encoding="UTF-8" standalone="no"?>
<svg xmlns:ffdec="https://www.free-decompiler.com/flash" xmlns:xlink="http://www.w3.org/1999/xlink" ffdec:objectType="shape" height="49.15px" width="79.45px" xmlns="http://www.w3.org/2000/svg">
  <g transform="matrix(1.0, 0.0, 0.0, 1.0, 36.6, 65.75)">
    <path d="M9.3 -59.9 Q2.1 -63.4 -2.0 -56.4 L5.45 -53.45 7.8 -53.85 3.45 -48.5 10.6 -46.65 12.2 -49.55 13.6 -49.05 Q17.65 -48.1 16.5 -51.35 L15.3 -51.95 9.25 -55.05 11.9 -54.95 Q12.6 -57.55 10.65 -59.0 L10.5 -59.5 9.3 -59.9 M15.65 -46.25 L6.65 -44.65 5.5 -46.0 Q2.75 -49.75 -1.8 -49.65 L-3.65 -48.1 -3.9 -46.4 Q-9.95 -44.9 -14.95 -49.25 -16.1 -57.35 -8.85 -60.65 L-1.5 -60.05 Q2.65 -64.9 9.05 -63.15 L12.1 -59.0 17.7 -57.7 18.25 -56.45 Q20.15 -51.35 17.9 -46.25 L19.3 -45.2 15.65 -46.25 M22.85 -57.85 Q22.95 -57.5 23.35 -57.15 23.85 -56.75 24.55 -56.75 L33.7 -50.0 25.35 -51.85 24.95 -53.65 23.35 -54.65 22.85 -57.85 M32.65 -43.55 Q26.0 -44.4 21.8 -39.0 16.3 -42.2 10.95 -39.25 16.0 -35.05 17.75 -28.45 L17.95 -28.2 23.25 -34.25 25.8 -32.8 28.5 -35.8 28.75 -38.55 32.45 -40.9 32.65 -43.55 M9.6 -33.15 L13.6 -35.0 5.15 -39.45 Q12.3 -45.5 20.65 -41.0 25.0 -49.8 33.55 -44.9 L35.6 -46.65 37.0 -46.05 39.0 -46.4 39.05 -41.95 36.8 -39.95 Q36.35 -38.1 35.15 -36.45 31.7 -31.75 25.65 -32.4 L16.95 -27.1 14.0 -27.45 8.05 -30.45 4.25 -27.65 Q2.2 -26.45 -0.35 -26.75 -0.4 -27.35 -0.8 -27.7 -2.2 -29.0 -4.15 -28.55 L-5.3 -28.6 -8.25 -33.0 Q-12.45 -32.35 -16.7 -28.95 L-16.95 -28.95 Q-25.2 -31.65 -25.4 -40.4 -29.55 -41.5 -30.4 -45.45 -33.0 -57.15 -21.3 -56.95 L-21.45 -52.3 Q-27.25 -48.45 -24.2 -42.15 L-23.05 -41.4 -10.45 -42.95 -9.65 -41.2 -1.85 -43.5 2.9 -40.45 Q-3.35 -40.9 -4.75 -34.75 L0.75 -32.55 2.1 -28.75 3.55 -29.5 8.65 -33.25 9.6 -33.15 M12.75 -22.85 L0.55 -21.2 0.15 -22.55 -0.9 -23.45 -6.5 -22.25 -7.2 -22.15 -11.65 -23.35 -13.0 -25.35 -8.8 -26.85 Q-1.3 -21.35 6.55 -25.45 L12.75 -22.85 M-27.05 -54.7 Q-31.5 -49.5 -28.2 -43.75 -28.05 -43.5 -27.65 -43.35 L-26.3 -43.9 -25.85 -50.75 -24.05 -53.25 -27.05 -54.7 M-0.6 -50.3 L1.25 -52.2 Q0.2 -54.45 -2.3 -55.6 -10.25 -59.4 -14.75 -51.5 L-9.55 -50.35 -8.3 -48.9 -5.05 -49.05 -3.4 -51.35 -0.6 -50.3 M-11.1 -36.35 L-8.0 -34.15 -7.05 -35.25 -8.15 -37.9 Q-15.85 -44.15 -21.8 -36.95 L-16.3 -33.65 -13.5 -36.3 -11.1 -36.35" fill="#cc6600" fill-rule="evenodd" stroke="none"/>
    <path d="M16.5 -51.35 Q17.65 -48.1 13.6 -49.05 L12.2 -49.55 10.6 -46.65 3.45 -48.5 7.8 -53.85 5.45 -53.45 -2.0 -56.4 Q2.1 -63.4 9.3 -59.9 L0.65 -57.5 3.25 -56.85 4.5 -55.05 11.15 -57.5 10.65 -59.0 Q12.6 -57.55 11.9 -54.95 L9.25 -55.05 15.3 -51.95 Q8.4 -55.15 5.2 -48.6 L6.7 -49.5 8.8 -49.35 10.15 -48.35 12.5 -50.85 16.5 -51.35 M17.9 -46.25 Q20.15 -51.35 18.25 -56.45 L17.7 -57.7 12.1 -59.0 9.05 -63.15 Q2.65 -64.9 -1.5 -60.05 L-8.85 -60.65 Q-16.1 -57.35 -14.95 -49.25 -9.95 -44.9 -3.9 -46.4 L-3.65 -48.1 -1.8 -49.65 Q2.75 -49.75 5.5 -46.0 L6.65 -44.65 15.65 -46.25 6.1 -43.45 21.95 -44.0 17.9 -46.25 M22.85 -57.85 L23.35 -54.65 24.95 -53.65 25.35 -51.85 33.7 -50.0 24.55 -56.75 26.7 -57.6 35.45 -53.95 36.05 -50.4 38.2 -49.9 41.7 -46.15 42.0 -45.55 42.2 -41.55 Q37.6 -38.6 34.15 -34.25 27.4 -25.7 16.95 -27.1 L25.65 -32.4 Q31.7 -31.75 35.15 -36.45 36.35 -38.1 36.8 -39.95 L39.05 -41.95 39.0 -46.4 37.0 -46.05 35.6 -46.65 33.55 -44.9 Q25.0 -49.8 20.65 -41.0 12.3 -45.5 5.15 -39.45 L13.6 -35.0 9.6 -33.15 Q8.15 -40.95 -1.65 -37.2 -3.05 -36.65 -2.9 -35.15 L-1.25 -34.25 Q-0.2 -34.7 0.8 -35.2 L3.1 -33.45 Q4.75 -35.4 7.4 -34.1 L8.65 -33.25 3.55 -29.5 2.1 -28.75 0.75 -32.55 -4.75 -34.75 Q-3.35 -40.9 2.9 -40.45 L-1.85 -43.5 -9.65 -41.2 -10.45 -42.95 -23.05 -41.4 -24.2 -42.15 Q-27.25 -48.45 -21.45 -52.3 L-21.3 -56.95 Q-33.0 -57.15 -30.4 -45.45 -29.55 -41.5 -25.4 -40.4 -25.2 -31.65 -16.95 -28.95 -22.65 -28.6 -26.55 -36.4 L-26.35 -40.35 Q-35.6 -42.4 -33.75 -51.4 -29.4 -61.55 -18.7 -59.9 L-17.3 -59.55 Q-11.7 -66.25 -3.55 -62.85 10.7 -70.5 22.85 -57.85 M20.25 -53.6 L20.4 -46.25 28.3 -50.05 24.55 -51.5 23.55 -53.25 21.85 -54.2 20.25 -53.6 M32.65 -43.55 L32.45 -40.9 28.75 -38.55 28.5 -35.8 25.8 -32.8 23.25 -34.25 17.95 -28.2 17.75 -28.45 Q16.0 -35.05 10.95 -39.25 16.3 -42.2 21.8 -39.0 26.0 -44.4 32.65 -43.55 M29.55 -42.6 Q24.8 -41.65 21.85 -37.3 L14.6 -39.15 18.45 -33.9 24.15 -36.85 26.5 -35.4 26.55 -37.85 Q32.55 -39.6 29.85 -42.45 L29.55 -42.6 M3.9 -44.05 L0.95 -47.25 -3.25 -45.55 1.0 -43.7 3.9 -44.05 M4.25 -27.65 L8.05 -30.45 14.0 -27.45 4.25 -27.65 M-16.7 -28.95 Q-12.45 -32.35 -8.25 -33.0 L-5.3 -28.6 -6.8 -29.1 -8.05 -30.85 -11.1 -31.15 Q-14.1 -29.2 -16.7 -28.95 M-4.15 -28.55 Q-2.2 -29.0 -0.8 -27.7 -0.4 -27.35 -0.35 -26.75 L-4.15 -28.55 M-6.5 -22.25 L-0.9 -23.45 0.15 -22.55 0.55 -21.2 12.75 -22.85 14.5 -22.15 Q5.9 -16.9 -2.0 -22.2 L-6.5 -22.25 M-13.0 -25.35 L-11.65 -23.35 -7.2 -22.15 -15.15 -24.05 -13.0 -25.35 M-27.05 -54.7 L-24.05 -53.25 -25.85 -50.75 -26.3 -43.9 -27.65 -43.35 Q-28.05 -43.5 -28.2 -43.75 -31.5 -49.5 -27.05 -54.7 M-18.5 -57.9 L-22.0 -46.05 -12.85 -44.95 -12.75 -46.35 -17.6 -50.1 -18.5 -57.9 M-0.8 -53.95 Q-3.2 -55.45 -6.0 -55.05 -13.8 -54.15 -10.2 -52.55 L-7.6 -50.6 -5.05 -53.05 -0.8 -53.95 M-0.6 -50.3 L-3.4 -51.35 -5.05 -49.05 -8.3 -48.9 -9.55 -50.35 -14.75 -51.5 Q-10.25 -59.4 -2.3 -55.6 0.2 -54.45 1.25 -52.2 L-0.6 -50.3 M-18.75 -38.55 Q-18.75 -37.85 -17.6 -37.3 L-14.8 -36.8 Q-13.15 -36.8 -12.0 -37.3 -10.85 -37.85 -10.85 -38.55 -10.85 -39.25 -12.0 -39.75 -13.15 -40.3 -14.8 -40.3 -16.45 -40.3 -17.6 -39.75 -18.75 -39.25 -18.75 -38.55 M-11.1 -36.35 L-13.5 -36.3 -16.3 -33.65 -21.8 -36.95 Q-15.85 -44.15 -8.15 -37.9 L-7.05 -35.25 -8.0 -34.15 -11.1 -36.35" fill="#990000" fill-rule="evenodd" stroke="none"/>
    <path d="M16.5 -51.35 L12.5 -50.85 10.15 -48.35 8.8 -49.35 6.7 -49.5 5.2 -48.6 Q8.4 -55.15 15.3 -51.95 L16.5 -51.35 M10.65 -59.0 L11.15 -57.5 4.5 -55.05 3.25 -56.85 0.65 -57.5 9.3 -59.9 10.5 -59.5 10.65 -59.0 M17.9 -46.25 L21.95 -44.0 6.1 -43.45 15.65 -46.25 19.3 -45.2 17.9 -46.25 M26.7 -57.6 Q34.5 -59.55 38.2 -52.85 39.2 -51.0 39.45 -48.7 L41.7 -46.15 38.2 -49.9 36.05 -50.4 35.45 -53.95 26.7 -57.6 M42.0 -45.55 Q44.25 -40.8 40.5 -37.8 L39.8 -37.45 Q37.05 -28.6 27.45 -28.3 24.6 -21.2 17.0 -22.45 15.1 -18.45 10.75 -19.2 L9.5 -19.1 Q3.75 -14.25 -2.45 -18.8 -19.8 -17.5 -29.6 -33.9 -30.5 -35.4 -32.1 -36.75 -40.15 -43.15 -33.75 -51.4 -35.6 -42.4 -26.35 -40.35 L-26.55 -36.4 Q-22.65 -28.6 -16.95 -28.95 L-16.7 -28.95 Q-14.1 -29.2 -11.1 -31.15 L-8.05 -30.85 -6.8 -29.1 -5.3 -28.6 -4.15 -28.55 -0.35 -26.75 Q2.2 -26.45 4.25 -27.65 L14.0 -27.45 16.95 -27.1 Q27.4 -25.7 34.15 -34.25 37.6 -38.6 42.2 -41.55 L42.0 -45.55 M20.25 -53.6 L21.85 -54.2 23.55 -53.25 24.55 -51.5 28.3 -50.05 20.4 -46.25 20.25 -53.6 M3.9 -44.05 L1.0 -43.7 -3.25 -45.55 0.95 -47.25 3.9 -44.05 M29.55 -42.6 L29.85 -42.45 Q32.55 -39.6 26.55 -37.85 L26.5 -35.4 24.15 -36.85 18.45 -33.9 14.6 -39.15 21.85 -37.3 Q24.8 -41.65 29.55 -42.6 M9.6 -33.15 L8.65 -33.25 7.4 -34.1 Q4.75 -35.4 3.1 -33.45 L0.8 -35.2 Q-0.2 -34.7 -1.25 -34.25 L-2.9 -35.15 Q-3.05 -36.65 -1.65 -37.2 8.15 -40.95 9.6 -33.15 M-6.5 -22.25 L-2.0 -22.2 Q5.9 -16.9 14.5 -22.15 L12.75 -22.85 6.55 -25.45 Q-1.3 -21.35 -8.8 -26.85 L-13.0 -25.35 -15.15 -24.05 -7.2 -22.15 -6.5 -22.25 M-0.8 -53.95 L-5.05 -53.05 -7.6 -50.6 -10.2 -52.55 Q-13.8 -54.15 -6.0 -55.05 -3.2 -55.45 -0.8 -53.95 M-18.5 -57.9 L-17.6 -50.1 -12.75 -46.35 -12.85 -44.95 -22.0 -46.05 -18.5 -57.9 M-18.75 -38.55 Q-18.75 -39.25 -17.6 -39.75 -16.45 -40.3 -14.8 -40.3 -13.15 -40.3 -12.0 -39.75 -10.85 -39.25 -10.85 -38.55 -10.85 -37.85 -12.0 -37.3 -13.15 -36.8 -14.8 -36.8 L-17.6 -37.3 Q-18.75 -37.85 -18.75 -38.55" fill="#000000" fill-rule="evenodd" stroke="none"/>
  </g>
</svg>
