<?xml version="1.0" encoding="UTF-8" standalone="no"?>
<svg xmlns:ffdec="https://www.free-decompiler.com/flash" xmlns:xlink="http://www.w3.org/1999/xlink" ffdec:objectType="shape" height="52.75px" width="82.3px" xmlns="http://www.w3.org/2000/svg">
  <g transform="matrix(1.0, 0.0, 0.0, 1.0, 37.1, 70.85)">
    <path d="M39.35 -61.85 Q41.75 -61.85 43.5 -59.9 45.2 -58.0 45.2 -55.3 L39.35 -61.85 M25.75 -65.65 L26.15 -65.7 25.7 -65.6 25.75 -65.65 M27.35 -53.7 L27.15 -53.9 Q32.1 -59.95 35.05 -53.8 L27.75 -53.7 27.35 -53.7 M18.5 -51.8 L15.65 -51.3 13.35 -49.35 9.65 -50.6 17.6 -52.5 18.5 -51.8 M-16.95 -35.2 L-17.35 -35.35 -16.9 -35.2 -16.95 -35.2 M5.8 -31.15 L5.8 -31.4 Q9.9 -36.95 14.4 -32.2 L6.65 -31.0 5.8 -31.15 M0.65 -32.15 L-0.95 -30.85 -8.15 -31.05 -2.35 -33.4 Q-0.7 -33.05 0.65 -32.15 M20.55 -48.6 L27.2 -50.35 Q24.95 -46.5 20.55 -48.6 M-28.45 -57.7 L-21.35 -56.35 -21.45 -56.15 Q-27.3 -52.9 -31.2 -56.7 L-28.45 -57.7 M-4.3 -66.8 L-2.3 -66.5 -6.4 -65.65 -4.3 -66.8 M-3.65 -48.9 L-11.7 -51.05 Q-9.1 -54.35 -3.65 -48.9" fill="#990000" fill-rule="evenodd" stroke="none"/>
    <path d="M39.35 -61.85 L45.2 -55.3 Q44.85 -45.9 36.15 -42.65 L35.0 -42.2 25.5 -33.4 Q25.9 -31.0 24.8 -29.0 23.45 -26.6 20.65 -26.3 16.85 -16.05 6.5 -19.35 -2.15 -15.65 -7.9 -23.1 -19.05 -24.7 -19.0 -36.15 L-22.15 -40.2 Q-28.3 -37.45 -34.0 -41.15 L-37.1 -53.6 Q-34.65 -48.45 -29.35 -46.45 L-23.2 -48.8 Q-19.4 -41.9 -11.25 -43.95 -2.7 -36.05 2.6 -45.85 6.95 -43.05 11.55 -44.4 L13.0 -47.5 11.35 -49.05 6.4 -48.55 Q11.85 -56.65 17.6 -52.5 L9.65 -50.6 13.35 -49.35 15.65 -51.3 18.5 -51.8 20.3 -49.95 15.8 -49.95 14.7 -47.7 Q22.4 -41.95 30.75 -46.45 L35.05 -48.2 35.85 -51.85 33.5 -53.45 32.55 -52.2 29.2 -52.15 27.75 -53.7 35.05 -53.8 Q32.1 -59.95 27.15 -53.9 L27.35 -53.7 23.85 -52.05 11.3 -56.2 10.25 -54.25 7.85 -54.45 7.05 -57.2 5.6 -58.2 -3.65 -55.05 -6.2 -58.2 Q-7.15 -57.9 -8.15 -57.75 -17.1 -55.8 -22.95 -62.95 L-19.05 -63.6 Q-9.3 -73.7 3.8 -69.55 10.7 -72.8 16.7 -68.05 L23.85 -65.0 24.2 -60.65 25.7 -55.95 Q33.85 -60.95 37.0 -52.65 L41.7 -53.3 Q41.6 -57.3 37.1 -58.4 35.2 -61.75 30.8 -61.35 L32.15 -59.45 Q26.95 -56.25 25.6 -61.55 L28.0 -62.75 28.0 -64.75 25.7 -65.6 26.15 -65.7 39.35 -61.85 M40.65 -51.8 L37.15 -46.25 Q44.1 -46.25 40.9 -52.05 L40.65 -51.8 M2.2 -51.25 Q0.15 -51.7 0.3 -53.75 0.45 -55.75 2.4 -56.2 5.1 -56.7 5.25 -54.3 L5.25 -53.15 Q4.95 -50.7 2.2 -51.25 M5.35 -64.65 L6.9 -66.6 Q13.15 -68.3 15.0 -62.55 12.45 -60.3 9.6 -62.35 7.7 -63.8 5.35 -64.65 M7.95 -67.3 L6.3 -68.6 4.7 -68.65 2.8 -67.1 -2.05 -66.5 2.65 -64.2 1.9 -62.0 -1.1 -63.25 -2.0 -62.75 18.95 -58.65 21.0 -62.35 17.9 -66.65 7.95 -67.3 M28.0 -51.7 L29.85 -50.55 Q27.4 -44.4 19.65 -47.1 L19.5 -49.1 28.0 -51.7 M23.75 -40.7 Q28.7 -37.8 31.6 -42.75 L23.75 -40.7 M-16.95 -35.2 Q-17.15 -30.55 -13.7 -27.8 L-12.4 -26.9 -10.7 -28.15 -3.15 -23.25 2.8 -28.0 4.95 -27.9 6.9 -25.9 11.6 -26.1 12.8 -27.1 Q17.3 -26.9 20.8 -29.7 23.25 -31.6 23.4 -34.8 L20.0 -37.85 12.95 -35.15 17.15 -30.9 13.55 -31.3 8.65 -28.55 6.65 -31.0 14.4 -32.2 Q9.9 -36.95 5.8 -31.4 L5.8 -31.15 2.8 -32.9 Q6.55 -35.1 9.45 -35.45 7.25 -36.05 5.1 -37.45 -1.6 -32.55 -9.15 -36.05 L-16.9 -35.2 -17.35 -35.35 -16.95 -35.2 M7.1 -40.3 Q14.15 -36.8 16.2 -42.55 11.2 -38.3 5.3 -41.35 6.15 -40.75 7.1 -40.3 M0.65 -32.15 L2.15 -30.85 1.4 -29.0 -2.45 -29.75 -2.8 -28.2 -4.6 -26.85 -10.35 -30.45 -2.35 -33.4 -8.15 -31.05 -0.95 -30.85 0.65 -32.15 M6.0 -21.3 Q8.85 -21.55 10.6 -23.7 L9.3 -25.25 Q6.1 -21.8 1.75 -23.1 -0.55 -20.4 6.0 -21.3 M20.55 -48.6 Q24.95 -46.5 27.2 -50.35 L20.55 -48.6 M-28.45 -57.7 Q-22.0 -59.7 -18.4 -53.9 L-25.4 -53.8 -26.0 -50.65 -29.3 -51.7 -29.7 -54.2 -33.25 -54.75 -31.2 -56.7 Q-27.3 -52.9 -21.45 -56.15 L-21.35 -56.35 -28.45 -57.7 M-4.3 -66.8 L-6.4 -65.65 -2.3 -66.5 -4.3 -66.8 M-4.15 -63.15 L-8.85 -65.3 -6.85 -65.95 -14.05 -65.1 -4.15 -63.15 M-12.05 -59.65 Q-16.85 -64.45 -15.35 -60.0 L-12.05 -59.65 M-18.75 -50.8 L-16.35 -50.1 Q-14.15 -55.1 -7.35 -54.25 L-0.15 -48.95 -1.05 -46.65 -2.75 -47.65 -6.05 -47.25 -6.55 -45.4 -8.05 -44.6 -12.2 -50.3 -15.65 -49.4 -14.45 -45.9 -16.55 -44.15 Q-20.75 -44.7 -20.65 -48.85 L-18.75 -50.8 M-23.25 -45.2 Q-29.65 -43.45 -34.65 -48.3 -31.85 -41.0 -23.75 -43.65 L-18.6 -41.5 Q-20.85 -42.7 -23.1 -45.05 L-23.25 -45.2 M-3.65 -48.9 Q-9.1 -54.35 -11.7 -51.05 L-3.65 -48.9" fill="#000000" fill-rule="evenodd" stroke="none"/>
    <path d="M40.65 -51.8 L40.9 -52.05 Q44.1 -46.25 37.15 -46.25 L40.65 -51.8 M23.75 -40.7 L31.6 -42.75 Q28.7 -37.8 23.75 -40.7 M7.1 -40.3 Q6.15 -40.75 5.3 -41.35 11.2 -38.3 16.2 -42.55 14.15 -36.8 7.1 -40.3 M6.0 -21.3 Q-0.55 -20.4 1.75 -23.1 6.1 -21.8 9.3 -25.25 L10.6 -23.7 Q8.85 -21.55 6.0 -21.3 M-12.05 -59.65 L-15.35 -60.0 Q-16.85 -64.45 -12.05 -59.65 M-23.25 -45.2 L-23.1 -45.05 Q-20.85 -42.7 -18.6 -41.5 L-23.75 -43.65 Q-31.85 -41.0 -34.65 -48.3 -29.65 -43.45 -23.25 -45.2" fill="#cc6600" fill-rule="evenodd" stroke="none"/>
    <path d="M-37.1 -53.6 Q-37.1 -57.45 -32.95 -60.2 -28.8 -62.95 -22.95 -62.95 -17.1 -55.8 -8.15 -57.75 -7.15 -57.9 -6.2 -58.2 L-3.65 -55.05 5.6 -58.2 7.05 -57.2 7.85 -54.45 10.25 -54.25 11.3 -56.2 23.85 -52.05 27.35 -53.7 27.75 -53.7 29.2 -52.15 32.55 -52.2 33.5 -53.45 35.85 -51.85 35.05 -48.2 30.75 -46.45 Q22.4 -41.95 14.7 -47.7 L15.8 -49.95 20.3 -49.95 18.5 -51.8 17.6 -52.5 Q11.85 -56.65 6.4 -48.55 L11.35 -49.05 13.0 -47.5 11.55 -44.4 Q6.95 -43.05 2.6 -45.85 -2.7 -36.05 -11.25 -43.95 -19.4 -41.9 -23.2 -48.8 L-29.35 -46.45 Q-34.65 -48.45 -37.1 -53.6 M23.85 -65.0 L25.75 -65.65 25.7 -65.6 28.0 -64.75 28.0 -62.75 25.6 -61.55 Q26.95 -56.25 32.15 -59.45 L30.8 -61.35 Q35.2 -61.75 37.1 -58.4 41.6 -57.3 41.7 -53.3 L37.0 -52.65 Q33.85 -60.95 25.7 -55.95 L24.2 -60.65 23.85 -65.0 M7.95 -67.3 L17.9 -66.65 21.0 -62.35 18.95 -58.65 -2.0 -62.75 -1.1 -63.25 1.9 -62.0 2.65 -64.2 -2.05 -66.5 2.8 -67.1 4.7 -68.65 6.3 -68.6 7.95 -67.3 M5.35 -64.65 Q7.7 -63.8 9.6 -62.35 12.45 -60.3 15.0 -62.55 13.15 -68.3 6.9 -66.6 L5.35 -64.65 M2.2 -51.25 Q4.95 -50.7 5.25 -53.15 L5.25 -54.3 Q5.1 -56.7 2.4 -56.2 0.45 -55.75 0.3 -53.75 0.15 -51.7 2.2 -51.25 M28.0 -51.7 L19.5 -49.1 19.65 -47.1 Q27.4 -44.4 29.85 -50.55 L28.0 -51.7 M6.65 -31.0 L8.65 -28.55 13.55 -31.3 17.15 -30.9 12.95 -35.15 20.0 -37.85 23.4 -34.8 Q23.25 -31.6 20.8 -29.7 17.3 -26.9 12.8 -27.1 L11.6 -26.1 6.9 -25.9 4.95 -27.9 2.8 -28.0 -3.15 -23.25 -10.7 -28.15 -12.4 -26.9 -13.7 -27.8 Q-17.15 -30.55 -16.95 -35.2 L-16.9 -35.2 -9.15 -36.05 Q-1.6 -32.55 5.1 -37.45 7.25 -36.05 9.45 -35.45 6.55 -35.1 2.8 -32.9 L5.8 -31.15 6.65 -31.0 M-2.35 -33.4 L-10.35 -30.45 -4.6 -26.85 -2.8 -28.2 -2.45 -29.75 1.4 -29.0 2.15 -30.85 0.65 -32.15 Q-0.7 -33.05 -2.35 -33.4 M-31.2 -56.7 L-33.25 -54.75 -29.7 -54.2 -29.3 -51.7 -26.0 -50.65 -25.4 -53.8 -18.4 -53.9 Q-22.0 -59.7 -28.45 -57.7 L-31.2 -56.7 M-4.15 -63.15 L-14.05 -65.1 -6.85 -65.95 -8.85 -65.3 -4.15 -63.15 M-18.75 -50.8 L-20.65 -48.85 Q-20.75 -44.7 -16.55 -44.15 L-14.45 -45.9 -15.65 -49.4 -12.2 -50.3 -8.05 -44.6 -6.55 -45.4 -6.05 -47.25 -2.75 -47.65 -1.05 -46.65 -0.15 -48.95 -7.35 -54.25 Q-14.15 -55.1 -16.35 -50.1 L-18.75 -50.8" fill="#666666" fill-rule="evenodd" stroke="none"/>
  </g>
</svg>
