<?xml version="1.0" encoding="UTF-8" standalone="no"?>
<svg xmlns:ffdec="https://www.free-decompiler.com/flash" xmlns:xlink="http://www.w3.org/1999/xlink" ffdec:objectType="shape" height="63.35px" width="81.1px" xmlns="http://www.w3.org/2000/svg">
  <g transform="matrix(1.0, 0.0, 0.0, 1.0, 35.0, 80.25)">
    <path d="M3.15 -75.2 Q10.15 -77.2 13.25 -70.15 L19.4 -73.2 23.6 -69.4 Q15.9 -67.45 8.85 -70.95 L9.3 -72.65 1.65 -74.8 3.15 -75.2 M7.15 -51.9 L7.95 -53.45 11.0 -53.05 12.4 -51.7 16.3 -50.65 17.55 -54.4 21.05 -55.15 23.45 -54.2 24.35 -55.75 Q14.95 -64.05 5.65 -53.65 L2.35 -54.7 Q-1.8 -46.1 9.45 -48.75 L9.4 -51.05 7.3 -51.7 7.15 -51.7 7.15 -51.9 M31.85 -68.25 Q30.7 -67.5 30.7 -66.45 30.7 -65.4 31.85 -64.65 32.95 -63.9 34.5 -63.9 36.05 -63.9 37.2 -64.65 38.3 -65.4 38.3 -66.45 38.3 -67.5 37.2 -68.25 36.05 -69.0 34.5 -69.0 32.95 -69.0 31.85 -68.25 M-9.4 -47.45 L-13.1 -47.85 -14.95 -50.7 -27.2 -49.75 -26.65 -51.85 -29.25 -53.55 -31.35 -52.1 Q-36.25 -60.65 -30.35 -68.25 L-28.2 -67.05 -26.95 -70.2 -24.6 -69.0 -25.1 -63.55 -21.2 -64.2 -20.5 -61.65 -9.7 -63.15 -8.9 -61.9 -6.3 -61.1 -12.7 -57.05 -11.65 -55.5 -8.15 -57.3 -4.8 -56.65 -3.55 -53.75 -1.65 -54.1 -0.3 -57.2 6.4 -56.95 -2.9 -61.95 -1.95 -63.1 5.15 -63.4 Q17.65 -59.7 29.1 -65.15 L28.8 -66.65 26.5 -68.25 Q28.25 -69.45 30.1 -69.65 45.95 -71.25 42.35 -57.1 L37.5 -57.2 31.8 -50.05 28.5 -48.55 Q24.9 -47.15 21.7 -48.95 L19.1 -50.7 Q12.1 -43.95 2.45 -45.75 L0.95 -48.95 -7.5 -47.45 -9.4 -47.45 M23.25 -51.25 L32.15 -54.15 31.55 -55.85 27.9 -56.55 23.25 -51.25 M23.55 -58.55 Q25.2 -59.15 27.0 -59.4 29.85 -59.45 31.45 -57.15 L39.3 -57.8 38.8 -58.8 Q31.8 -68.15 22.4 -60.45 L23.55 -58.55 M19.35 -34.4 L19.4 -32.4 Q16.25 -31.0 13.7 -33.3 L12.75 -34.2 10.15 -34.45 8.35 -30.1 0.2 -32.2 -0.95 -35.35 -4.2 -34.8 -5.75 -31.35 -9.95 -32.15 -15.95 -40.45 -14.85 -41.5 -14.75 -44.6 -10.35 -43.85 -12.45 -40.55 1.3 -39.55 -4.95 -44.35 5.8 -42.05 8.55 -41.9 2.8 -37.25 8.8 -37.55 10.55 -35.55 19.75 -40.45 13.85 -43.2 18.8 -45.75 25.05 -44.35 23.7 -36.85 20.75 -37.65 19.35 -34.4 M8.65 -34.2 Q7.5 -36.5 4.6 -36.55 L4.05 -36.25 Q1.9 -34.65 3.8 -32.75 4.45 -32.1 5.35 -31.9 7.75 -31.35 8.65 -33.35 8.85 -33.75 8.65 -34.2 M-18.15 -69.0 L-18.0 -69.15 -18.1 -69.15 -16.3 -72.3 -22.75 -71.0 -16.5 -73.8 -14.8 -71.85 -4.75 -72.5 -9.1 -75.8 -1.8 -72.55 -8.7 -70.15 -9.7 -68.3 -20.6 -64.8 -18.15 -69.0 M-31.55 -59.45 L-26.6 -57.05 -26.3 -55.7 -23.45 -54.85 -21.8 -56.7 -20.05 -55.7 -15.95 -55.65 -16.5 -58.1 Q-23.05 -62.95 -31.15 -61.55 L-31.55 -59.45 M-12.15 -52.1 Q-9.2 -47.1 -3.75 -48.75 L-3.75 -50.05 Q-4.5 -55.9 -10.95 -54.95 L-12.15 -52.1 M-5.8 -36.05 L-11.5 -38.15 -11.55 -35.9 -6.5 -33.35 -5.8 -36.05" fill="#666666" fill-rule="evenodd" stroke="none"/>
    <path d="M-23.35 -45.45 Q-35.15 -47.25 -34.75 -59.1 -34.4 -70.85 -23.75 -75.65 -18.8 -78.0 -13.4 -77.1 -7.5 -81.1 -1.45 -77.3 7.3 -82.4 15.0 -75.75 21.2 -77.35 26.15 -73.3 37.0 -76.8 43.85 -67.6 48.65 -61.0 43.3 -55.0 41.8 -53.3 39.55 -53.1 36.2 -46.05 28.4 -44.7 30.35 -35.0 21.8 -30.05 17.45 -27.45 12.65 -29.05 5.75 -23.75 -1.7 -28.5 -8.7 -24.9 -14.55 -30.25 L-11.75 -30.2 Q-15.6 -33.5 -18.0 -39.8 L-19.15 -36.65 -19.15 -45.9 -17.2 -47.35 -29.35 -49.25 -23.35 -45.45 M3.15 -75.2 L1.65 -74.8 9.3 -72.65 8.85 -70.95 Q15.9 -67.45 23.6 -69.4 L19.4 -73.2 13.25 -70.15 Q10.15 -77.2 3.15 -75.2 M11.4 -62.7 L21.6 -64.6 Q17.9 -67.25 13.45 -65.85 9.95 -64.7 11.4 -62.7 M7.35 -64.4 Q-1.35 -70.0 -9.15 -64.1 -2.55 -65.05 5.15 -63.4 L7.35 -64.4 M1.7 -58.95 Q1.7 -59.55 0.35 -59.95 L-2.9 -60.35 -6.15 -59.95 Q-7.5 -59.55 -7.5 -58.95 -7.5 -58.35 -6.15 -57.95 L-2.9 -57.55 0.35 -57.95 Q1.7 -58.35 1.7 -58.95 M7.3 -51.7 L9.4 -51.05 9.45 -48.75 Q-1.8 -46.1 2.35 -54.7 L5.65 -53.65 Q14.95 -64.05 24.35 -55.75 L23.45 -54.2 21.05 -55.15 17.55 -54.4 16.3 -50.65 12.4 -51.7 11.0 -53.05 7.95 -53.45 7.15 -51.9 Q2.75 -53.5 4.45 -51.15 L7.3 -51.7 M31.85 -68.25 Q32.95 -69.0 34.5 -69.0 36.05 -69.0 37.2 -68.25 38.3 -67.5 38.3 -66.45 38.3 -65.4 37.2 -64.65 36.05 -63.9 34.5 -63.9 32.95 -63.9 31.85 -64.65 30.7 -65.4 30.7 -66.45 30.7 -67.5 31.85 -68.25 M31.8 -50.05 L37.5 -57.2 42.35 -57.1 Q45.95 -71.25 30.1 -69.65 28.25 -69.45 26.5 -68.25 L28.8 -66.65 29.1 -65.15 Q17.65 -59.7 5.15 -63.4 L-1.95 -63.1 -2.9 -61.95 6.4 -56.95 -0.3 -57.2 -1.65 -54.1 -3.55 -53.75 -4.8 -56.65 -8.15 -57.3 -11.65 -55.5 -12.7 -57.05 -6.3 -61.1 -8.9 -61.9 -9.7 -63.15 -20.5 -61.65 -21.2 -64.2 -25.1 -63.55 -24.6 -69.0 -26.95 -70.2 -28.2 -67.05 -30.35 -68.25 Q-36.25 -60.65 -31.35 -52.1 L-29.25 -53.55 -26.65 -51.85 -27.2 -49.75 -14.95 -50.7 -13.1 -47.85 -9.4 -47.45 -14.15 -45.85 -13.9 -45.65 Q-8.05 -42.3 -2.95 -45.85 L-7.5 -47.45 0.95 -48.95 2.45 -45.75 Q12.1 -43.95 19.1 -50.7 L21.7 -48.95 Q24.9 -47.15 28.5 -48.55 L22.7 -45.95 Q30.9 -42.25 33.25 -50.55 L31.8 -50.05 M23.55 -58.55 L22.4 -60.45 Q31.8 -68.15 38.8 -58.8 L39.3 -57.8 31.45 -57.15 Q29.85 -59.45 27.0 -59.4 25.2 -59.15 23.55 -58.55 M23.25 -51.25 L27.9 -56.55 31.55 -55.85 32.15 -54.15 23.25 -51.25 M26.7 -62.25 L25.65 -61.75 34.35 -59.7 Q32.1 -64.35 26.7 -62.25 M19.4 -32.4 Q24.35 -31.6 25.65 -36.25 L25.6 -36.7 19.35 -34.4 20.75 -37.65 23.7 -36.85 25.05 -44.35 18.8 -45.75 13.85 -43.2 19.75 -40.45 10.55 -35.55 8.8 -37.55 2.8 -37.25 8.55 -41.9 14.0 -44.15 2.95 -43.9 5.8 -42.05 -4.95 -44.35 1.3 -39.55 -12.45 -40.55 -10.35 -43.85 -14.75 -44.6 -14.85 -41.5 -15.95 -40.45 -9.95 -32.15 -5.75 -31.35 -4.2 -34.8 -0.95 -35.35 0.2 -32.2 8.35 -30.1 10.15 -34.45 12.75 -34.2 13.7 -33.3 Q16.25 -31.0 19.4 -32.4 M28.7 -30.65 L30.9 -36.85 34.8 -36.6 Q37.8 -27.8 29.7 -27.15 L28.95 -28.6 Q33.85 -29.9 30.6 -34.05 L30.35 -34.1 28.7 -30.65 M6.6 -38.1 Q12.95 -37.75 14.0 -41.85 L5.05 -38.4 6.6 -38.1 M8.65 -34.2 Q8.85 -33.75 8.65 -33.35 7.75 -31.35 5.35 -31.9 4.45 -32.1 3.8 -32.75 1.9 -34.65 4.05 -36.25 L4.6 -36.55 Q7.5 -36.5 8.65 -34.2 M3.4 -22.5 L7.9 -21.05 7.65 -18.55 Q1.0 -14.65 -4.05 -20.0 -6.15 -22.15 -4.55 -25.15 L0.0 -23.65 -2.05 -22.4 3.4 -22.5 M-35.0 -75.3 L-34.25 -78.7 -31.95 -80.25 -26.0 -79.55 Q-26.45 -72.6 -34.05 -73.55 L-35.0 -75.3 M-18.1 -69.15 L-21.8 -70.2 -24.45 -65.0 -18.15 -69.0 -20.6 -64.8 -9.7 -68.3 -8.7 -70.15 -1.8 -72.55 -9.1 -75.8 -4.75 -72.5 -14.8 -71.85 -16.5 -73.8 -22.75 -71.0 -16.3 -72.3 -18.1 -69.15 M-31.55 -59.45 L-31.15 -61.55 Q-23.05 -62.95 -16.5 -58.1 L-15.95 -55.65 -20.05 -55.7 -21.8 -56.7 -23.45 -54.85 -26.3 -55.7 -26.6 -57.05 -31.55 -59.45 M-29.0 -59.95 L-19.05 -57.6 Q-19.95 -61.4 -26.1 -61.0 L-29.0 -59.95 M-8.05 -73.2 L-7.45 -73.35 -7.25 -73.8 -7.45 -74.2 Q-7.7 -74.4 -8.05 -74.4 L-8.6 -74.2 -8.85 -73.8 -8.6 -73.35 -8.05 -73.2 M-12.15 -52.1 L-10.95 -54.95 Q-4.5 -55.9 -3.75 -50.05 L-3.75 -48.75 Q-9.2 -47.1 -12.15 -52.1 M-4.35 -51.1 L-8.3 -54.1 -10.75 -53.0 -5.6 -50.4 -4.35 -51.1 M-1.35 -30.05 Q2.25 -24.5 8.8 -27.3 4.95 -29.75 -2.05 -31.55 L-1.35 -30.05 M-5.8 -36.05 L-6.5 -33.35 -11.55 -35.9 -11.5 -38.15 -5.8 -36.05" fill="#000000" fill-rule="evenodd" stroke="none"/>
    <path d="M1.7 -58.95 Q1.7 -58.35 0.35 -57.95 L-2.9 -57.55 -6.15 -57.95 Q-7.5 -58.35 -7.5 -58.95 -7.5 -59.55 -6.15 -59.95 L-2.9 -60.35 0.35 -59.95 Q1.7 -59.55 1.7 -58.95 M7.3 -51.7 L4.45 -51.15 Q2.75 -53.5 7.15 -51.9 L7.15 -51.7 7.3 -51.7 M26.7 -62.25 Q32.1 -64.35 34.35 -59.7 L25.65 -61.75 26.7 -62.25 M6.6 -38.1 L5.05 -38.4 14.0 -41.85 Q12.95 -37.75 6.6 -38.1 M-18.15 -69.0 L-24.45 -65.0 -21.8 -70.2 -18.1 -69.15 -18.0 -69.15 -18.15 -69.0 M-8.05 -73.2 L-8.6 -73.35 -8.85 -73.8 -8.6 -74.2 -8.05 -74.4 Q-7.7 -74.4 -7.45 -74.2 L-7.25 -73.8 -7.45 -73.35 -8.05 -73.2 M-29.0 -59.95 L-26.1 -61.0 Q-19.95 -61.4 -19.05 -57.6 L-29.0 -59.95 M-4.35 -51.1 L-5.6 -50.4 -10.75 -53.0 -8.3 -54.1 -4.35 -51.1" fill="#990000" fill-rule="evenodd" stroke="none"/>
    <path d="M-23.35 -45.45 L-29.35 -49.25 -17.2 -47.35 -19.15 -45.9 -23.35 -45.45 M-19.15 -36.65 L-18.0 -39.8 Q-15.6 -33.5 -11.75 -30.2 L-14.55 -30.25 -19.15 -36.65 M7.35 -64.4 L5.15 -63.4 Q-2.55 -65.05 -9.15 -64.1 -1.35 -70.0 7.35 -64.4 M11.4 -62.7 Q9.95 -64.7 13.45 -65.85 17.9 -67.25 21.6 -64.6 L11.4 -62.7 M-9.4 -47.45 L-7.5 -47.45 -2.95 -45.85 Q-8.05 -42.3 -13.9 -45.65 L-14.15 -45.85 -9.4 -47.45 M28.5 -48.55 L31.8 -50.05 33.25 -50.55 Q30.9 -42.25 22.7 -45.95 L28.5 -48.55 M19.35 -34.4 L25.6 -36.7 25.65 -36.25 Q24.35 -31.6 19.4 -32.4 L19.35 -34.4 M5.8 -42.05 L2.95 -43.9 14.0 -44.15 8.55 -41.9 5.8 -42.05 M28.95 -28.6 L28.7 -30.65 30.35 -34.1 30.6 -34.05 Q33.85 -29.9 28.95 -28.6 M0.0 -23.65 L3.4 -22.5 -2.05 -22.4 0.0 -23.65 M-1.35 -30.05 L-2.05 -31.55 Q4.95 -29.75 8.8 -27.3 2.25 -24.5 -1.35 -30.05" fill="#cc6600" fill-rule="evenodd" stroke="none"/>
  </g>
</svg>
