<?xml version="1.0" encoding="UTF-8" standalone="no"?>
<svg xmlns:ffdec="https://www.free-decompiler.com/flash" xmlns:xlink="http://www.w3.org/1999/xlink" ffdec:objectType="shape" height="68.85px" width="95.2px" xmlns="http://www.w3.org/2000/svg">
  <g transform="matrix(1.0, 0.0, 0.0, 1.0, 38.0, 93.15)">
    <path d="M54.75 -65.9 Q52.7 -63.2 49.7 -64.55 39.8 -69.2 50.45 -77.6 61.3 -74.6 54.75 -65.9 M49.75 -67.85 Q52.15 -67.35 53.2 -69.7 55.0 -74.1 50.45 -74.55 48.55 -74.3 47.55 -72.55 45.35 -68.85 49.75 -67.85 M26.25 -77.2 L24.3 -76.85 14.9 -80.8 Q17.65 -83.4 21.25 -82.8 25.4 -81.85 26.25 -77.2 M29.6 -75.7 L29.8 -75.2 Q32.55 -73.65 33.95 -76.2 L33.85 -76.45 Q33.7 -77.05 33.05 -77.1 31.0 -77.45 29.5 -76.2 L29.6 -75.7 M27.15 -76.85 Q27.05 -79.0 29.1 -79.25 34.7 -80.3 36.95 -75.65 37.3 -75.0 36.7 -74.45 33.8 -71.8 29.65 -73.2 27.2 -74.1 27.15 -76.85 M33.7 -83.15 Q36.65 -82.2 38.7 -79.7 46.9 -69.95 31.9 -69.75 21.45 -69.6 13.2 -76.2 7.4 -74.5 4.75 -80.15 12.35 -91.85 25.6 -86.3 29.45 -84.6 33.7 -83.15 M20.7 -84.7 Q14.0 -84.9 7.85 -81.85 L23.85 -76.2 25.55 -73.8 35.45 -71.6 38.55 -74.65 Q32.35 -84.3 20.7 -84.7 M18.55 -81.2 L24.2 -78.0 Q25.5 -81.35 18.8 -81.3 L18.55 -81.2 M3.4 -57.45 L14.0 -49.4 13.45 -40.8 18.8 -41.25 18.85 -44.7 23.4 -43.25 25.6 -55.5 31.0 -58.55 Q28.45 -63.6 22.9 -63.05 L4.0 -60.55 3.4 -57.45 M15.3 -48.15 L22.2 -53.9 24.35 -52.85 22.0 -46.2 15.95 -45.65 20.8 -51.45 15.3 -48.15 M21.8 -57.5 L25.8 -61.1 27.7 -59.9 27.15 -57.85 23.5 -55.35 21.8 -57.5 M8.2 -56.85 L9.15 -59.95 Q13.9 -61.65 18.15 -59.1 L20.55 -57.3 19.95 -55.5 15.0 -55.35 13.5 -53.65 8.2 -56.85 M38.7 -46.6 L40.0 -46.75 40.65 -46.15 43.65 -44.45 Q43.85 -43.25 43.45 -42.25 43.0 -41.0 41.95 -41.25 34.9 -40.45 38.7 -46.6 M37.25 -58.25 Q35.8 -53.5 30.85 -52.45 L29.3 -52.25 Q31.6 -39.6 18.3 -37.55 4.95 -35.8 7.7 -46.8 L7.6 -50.7 Q-1.15 -53.25 -5.45 -60.25 13.95 -71.0 35.4 -62.45 38.25 -61.3 37.25 -58.25 M-10.0 -79.2 Q-12.2 -83.85 -17.25 -82.15 -19.8 -81.4 -21.8 -79.55 -32.95 -79.1 -31.65 -67.65 L-28.6 -66.0 -26.7 -62.55 -23.15 -63.2 -22.4 -64.6 -25.45 -63.45 -27.4 -64.9 -26.95 -68.0 -23.45 -69.3 -22.0 -66.15 -21.45 -67.6 -18.5 -65.5 -16.35 -66.9 -15.7 -76.3 -10.0 -79.2 M-8.15 -83.65 L-3.15 -79.3 -10.4 -72.5 Q-10.4 -64.95 -16.55 -60.95 -20.35 -58.5 -24.4 -61.3 -30.3 -57.45 -34.4 -63.1 -36.0 -65.35 -36.85 -68.1 -34.1 -79.85 -22.7 -83.95 -15.5 -86.65 -8.15 -83.65 M-18.15 -77.6 L-18.35 -74.75 -23.0 -73.3 Q-23.85 -69.9 -26.95 -70.65 L-29.25 -70.7 -30.5 -73.05 Q-26.1 -80.55 -18.15 -77.6 M-21.7 -76.55 Q-26.25 -76.95 -27.4 -72.9 L-25.65 -72.65 -20.3 -75.3 -21.7 -76.55 M-31.6 -92.0 L-31.5 -88.55 Q-33.3 -83.95 -37.8 -85.8 L-37.95 -86.05 Q-38.45 -91.55 -33.6 -93.15 L-31.6 -92.0 M-23.45 -53.8 Q-23.55 -53.45 -23.2 -53.25 -19.2 -50.75 -15.45 -54.0 -15.15 -54.3 -15.25 -54.65 -15.95 -57.15 -19.15 -56.35 L-20.75 -56.2 Q-23.1 -55.85 -23.45 -53.8 M-14.5 -57.45 L-13.1 -56.55 Q-2.35 -58.9 0.25 -47.95 3.05 -36.4 -8.85 -36.5 -21.75 -36.6 -19.35 -49.6 L-28.35 -51.9 Q-24.6 -62.1 -14.5 -57.45 M-1.5 -45.55 Q-4.75 -59.05 -16.35 -50.5 L-14.25 -49.15 Q-17.55 -40.2 -9.65 -40.95 -4.85 -41.75 -1.5 -45.55 M-5.55 -47.25 L-8.7 -46.65 -13.3 -44.85 -13.8 -47.25 Q-9.7 -52.55 -4.6 -49.55 L-5.55 -47.25 M-7.25 -47.5 Q-6.5 -47.9 -6.5 -48.4 -6.5 -48.9 -7.25 -49.25 L-9.15 -49.65 -11.0 -49.25 Q-11.8 -48.9 -11.8 -48.4 -11.8 -47.9 -11.0 -47.5 L-9.15 -47.15 -7.25 -47.5 M-12.55 -31.15 L-10.75 -32.85 Q-4.0 -33.0 -2.1 -26.55 L-2.3 -26.25 Q-10.9 -20.6 -12.55 -31.15" fill="#000000" fill-rule="evenodd" stroke="none"/>
    <path d="M49.75 -67.85 Q45.35 -68.85 47.55 -72.55 48.55 -74.3 50.45 -74.55 55.0 -74.1 53.2 -69.7 52.15 -67.35 49.75 -67.85 M26.25 -77.2 Q25.4 -81.85 21.25 -82.8 17.65 -83.4 14.9 -80.8 L24.3 -76.85 26.25 -77.2 M27.15 -76.85 Q27.2 -74.1 29.65 -73.2 33.8 -71.8 36.7 -74.45 37.3 -75.0 36.95 -75.65 34.7 -80.3 29.1 -79.25 27.05 -79.0 27.15 -76.85 M20.7 -84.7 Q32.35 -84.3 38.55 -74.65 L35.45 -71.6 25.55 -73.8 23.85 -76.2 7.85 -81.85 Q14.0 -84.9 20.7 -84.7 M3.4 -57.45 L4.0 -60.55 22.9 -63.05 Q28.45 -63.6 31.0 -58.55 L25.6 -55.5 23.4 -43.25 18.85 -44.7 18.8 -41.25 13.45 -40.8 14.0 -49.4 3.4 -57.45 M8.2 -56.85 L13.5 -53.65 15.0 -55.35 19.95 -55.5 20.55 -57.3 18.15 -59.1 Q13.9 -61.65 9.15 -59.95 L8.2 -56.85 M21.8 -57.5 L23.5 -55.35 27.15 -57.85 27.7 -59.9 25.8 -61.1 21.8 -57.5 M15.95 -45.65 L22.0 -46.2 24.35 -52.85 22.2 -53.9 15.3 -48.15 15.95 -45.65 M-10.0 -79.2 L-15.7 -76.3 -16.35 -66.9 -18.5 -65.5 -21.45 -67.6 -22.0 -66.15 -23.45 -69.3 -26.95 -68.0 -27.4 -64.9 -25.45 -63.45 -22.4 -64.6 -23.15 -63.2 -26.7 -62.55 -28.6 -66.0 -31.65 -67.65 Q-32.95 -79.1 -21.8 -79.55 -19.8 -81.4 -17.25 -82.15 -12.2 -83.85 -10.0 -79.2 M-18.15 -77.6 Q-26.1 -80.55 -30.5 -73.05 L-29.25 -70.7 -26.95 -70.65 Q-23.85 -69.9 -23.0 -73.3 L-18.35 -74.75 -18.15 -77.6 M-23.45 -53.8 Q-23.1 -55.85 -20.75 -56.2 L-19.15 -56.35 Q-15.95 -57.15 -15.25 -54.65 -15.15 -54.3 -15.45 -54.0 -19.2 -50.75 -23.2 -53.25 -23.55 -53.45 -23.45 -53.8 M-1.5 -45.55 Q-4.85 -41.75 -9.65 -40.95 -17.55 -40.2 -14.25 -49.15 L-16.35 -50.5 Q-4.75 -59.05 -1.5 -45.55 M-5.55 -47.25 L-4.6 -49.55 Q-9.7 -52.55 -13.8 -47.25 L-13.3 -44.85 -8.7 -46.65 -5.55 -47.25" fill="#666666" fill-rule="evenodd" stroke="none"/>
    <path d="M29.6 -75.7 L29.5 -76.2 Q31.0 -77.45 33.05 -77.1 33.7 -77.05 33.85 -76.45 L33.95 -76.2 Q32.55 -73.65 29.8 -75.2 L29.6 -75.7 M18.55 -81.2 L18.8 -81.3 Q25.5 -81.35 24.2 -78.0 L18.55 -81.2 M15.3 -48.15 L20.8 -51.45 15.95 -45.65 15.3 -48.15 M-21.7 -76.55 L-20.3 -75.3 -25.65 -72.65 -27.4 -72.9 Q-26.25 -76.95 -21.7 -76.55 M-7.25 -47.5 L-9.15 -47.15 -11.0 -47.5 Q-11.8 -47.9 -11.8 -48.4 -11.8 -48.9 -11.0 -49.25 L-9.15 -49.65 -7.25 -49.25 Q-6.5 -48.9 -6.5 -48.4 -6.5 -47.9 -7.25 -47.5" fill="#990000" fill-rule="evenodd" stroke="none"/>
  </g>
</svg>
