<?xml version="1.0" encoding="UTF-8" standalone="no"?>
<svg xmlns:ffdec="https://www.free-decompiler.com/flash" xmlns:xlink="http://www.w3.org/1999/xlink" ffdec:objectType="shape" height="68.6px" width="98.45px" xmlns="http://www.w3.org/2000/svg">
  <g transform="matrix(1.0, 0.0, 0.0, 1.0, 41.1, 96.0)">
    <path d="M37.75 -86.25 L36.55 -83.3 Q25.95 -79.25 17.7 -86.65 L16.7 -87.65 18.25 -91.05 Q29.6 -94.3 37.75 -86.25 M44.4 -51.4 L45.2 -51.4 Q48.65 -51.35 47.5 -48.55 47.05 -47.6 46.2 -47.05 42.2 -44.6 39.95 -48.35 39.45 -49.1 40.0 -49.8 41.6 -51.8 44.4 -51.4 M57.35 -76.85 Q57.35 -75.55 56.45 -74.6 55.5 -73.7 54.2 -73.7 52.9 -73.7 52.0 -74.6 51.05 -75.55 51.05 -76.85 51.05 -78.15 52.0 -79.05 52.9 -80.0 54.2 -80.0 55.5 -80.0 56.45 -79.05 57.35 -78.15 57.35 -76.85 M24.5 -90.9 L22.5 -87.2 23.75 -85.75 30.95 -85.55 31.35 -87.95 Q28.95 -91.5 24.5 -90.9 M2.95 -60.55 Q10.7 -71.7 20.2 -64.45 22.3 -62.9 22.65 -60.1 12.45 -49.75 2.95 -60.55 M14.35 -65.55 Q6.0 -65.25 5.45 -58.35 10.2 -56.3 14.5 -59.45 L18.45 -60.75 18.35 -64.65 14.35 -65.55 M31.95 -61.65 Q26.05 -60.2 28.75 -56.15 33.6 -55.85 35.25 -60.1 L33.35 -61.85 31.95 -61.65 M16.5 -54.35 L23.25 -52.1 Q24.7 -44.25 17.3 -38.7 16.25 -37.9 15.45 -38.55 6.75 -45.55 16.5 -54.35 M34.35 -65.2 L36.3 -64.45 Q40.0 -51.4 27.25 -53.8 L25.75 -54.1 Q27.25 -61.75 34.35 -65.2 M18.6 -52.55 Q11.35 -49.25 16.45 -44.55 17.3 -43.7 18.25 -44.25 22.0 -46.6 21.85 -51.0 L18.6 -52.55 M-15.2 -87.55 Q-22.85 -91.25 -28.35 -83.35 -30.35 -80.45 -29.05 -76.9 L-26.15 -75.55 -16.75 -82.75 -15.2 -87.55 M-16.65 -54.7 Q-14.2 -56.85 -10.7 -56.85 -7.2 -56.85 -4.75 -54.7 -2.3 -52.6 -2.3 -49.6 -2.3 -46.6 -4.75 -44.45 -7.2 -42.35 -10.7 -42.35 -14.2 -42.35 -16.65 -44.45 -19.1 -46.6 -19.1 -49.6 -19.1 -52.6 -16.65 -54.7 M-23.1 -62.1 L-20.8 -62.35 Q-18.8 -62.15 -17.95 -60.3 L-17.75 -60.0 Q-20.75 -54.95 -26.1 -57.35 -27.0 -57.8 -26.85 -58.8 -26.65 -62.05 -23.1 -62.1 M-30.0 -75.75 Q-32.6 -82.9 -26.3 -87.85 -16.25 -95.8 -8.75 -85.1 L-24.4 -69.95 Q-28.5 -71.65 -30.0 -75.75 M-38.7 -95.95 L-38.2 -96.0 Q-34.45 -95.9 -36.05 -93.0 -36.5 -92.2 -37.35 -91.85 -37.95 -91.55 -38.7 -91.55 -41.8 -91.4 -40.9 -94.2 -40.45 -95.85 -38.7 -95.95 M-15.2 -52.1 Q-15.75 -49.75 -13.35 -48.5 -9.6 -46.5 -6.65 -49.75 -6.3 -50.2 -6.25 -50.7 -6.1 -54.6 -10.6 -54.15 L-13.9 -53.45 Q-15.0 -53.15 -15.2 -52.1 M-13.15 -32.7 Q-12.8 -33.4 -12.1 -33.6 L-11.6 -33.7 Q-7.15 -33.1 -7.65 -29.45 -7.75 -28.8 -8.3 -28.35 -11.25 -26.05 -13.15 -29.2 -13.65 -30.0 -13.45 -31.0 L-13.15 -32.7" fill="#000000" fill-rule="evenodd" stroke="none"/>
    <path d="M24.5 -90.9 Q28.95 -91.5 31.35 -87.95 L30.95 -85.55 23.75 -85.75 22.5 -87.2 24.5 -90.9 M31.95 -61.65 L33.35 -61.85 35.25 -60.1 Q33.6 -55.85 28.75 -56.15 26.05 -60.2 31.95 -61.65 M14.35 -65.55 L18.35 -64.65 18.45 -60.75 14.5 -59.45 Q10.2 -56.3 5.45 -58.35 6.0 -65.25 14.35 -65.55 M-15.2 -87.55 L-16.75 -82.75 -26.15 -75.55 -29.05 -76.9 Q-30.35 -80.45 -28.35 -83.35 -22.85 -91.25 -15.2 -87.55 M18.6 -52.55 L21.85 -51.0 Q22.0 -46.6 18.25 -44.25 17.3 -43.7 16.45 -44.55 11.35 -49.25 18.6 -52.55 M-15.2 -52.1 Q-15.0 -53.15 -13.9 -53.45 L-10.6 -54.15 Q-6.1 -54.6 -6.25 -50.7 -6.3 -50.2 -6.65 -49.75 -9.6 -46.5 -13.35 -48.5 -15.75 -49.75 -15.2 -52.1" fill="#666666" fill-rule="evenodd" stroke="none"/>
  </g>
</svg>
