<?xml version="1.0" encoding="UTF-8" standalone="no"?>
<svg xmlns:ffdec="https://www.free-decompiler.com/flash" xmlns:xlink="http://www.w3.org/1999/xlink" ffdec:objectType="shape" height="47.9px" width="64.05px" xmlns="http://www.w3.org/2000/svg">
  <g transform="matrix(1.0, 0.0, 0.0, 1.0, 30.05, 89.7)">
    <path d="M31.55 -89.7 L32.75 -88.25 Q29.65 -80.0 21.15 -85.9 L23.85 -88.75 31.55 -89.7 M27.0 -87.95 Q26.1 -87.95 25.5 -87.55 24.85 -87.2 24.85 -86.65 24.85 -86.1 25.5 -85.7 26.1 -85.35 27.0 -85.35 27.9 -85.35 28.55 -85.7 29.15 -86.1 29.15 -86.65 29.15 -87.2 28.55 -87.55 L27.0 -87.95 M9.55 -64.75 Q7.1 -63.05 8.95 -61.55 13.0 -61.1 13.6 -64.85 L11.55 -65.75 14.75 -67.4 16.65 -63.7 16.15 -60.1 14.95 -59.25 Q7.45 -55.95 6.35 -63.15 L9.55 -64.75 M18.95 -52.5 L21.05 -50.85 Q21.95 -49.6 21.45 -48.0 18.45 -38.1 11.35 -44.05 12.45 -50.8 18.95 -52.5 M26.65 -55.65 L26.0 -58.9 30.25 -63.15 34.0 -59.55 Q33.15 -53.75 27.5 -54.8 L26.65 -55.65 M14.2 -46.2 Q18.1 -45.85 18.8 -49.7 14.9 -52.4 14.1 -46.55 L14.2 -46.2 M-27.05 -78.05 L-28.6 -78.25 -30.05 -81.35 Q-28.55 -87.45 -21.85 -86.8 -12.7 -86.4 -20.0 -80.4 L-20.45 -78.8 Q-22.0 -75.05 -26.0 -75.75 L-27.05 -78.05 M-24.4 -85.8 Q-25.85 -85.35 -27.15 -84.05 -27.75 -83.45 -27.4 -82.7 -26.0 -79.95 -23.55 -82.4 -21.05 -84.95 -24.4 -85.8 M-21.45 -50.4 L-20.35 -53.55 -15.15 -53.05 -14.15 -54.1 Q-3.55 -55.85 -5.95 -46.25 -14.65 -44.6 -21.45 -50.4 M-14.1 -51.2 L-14.1 -50.95 -14.1 -50.45 Q-11.3 -47.65 -8.85 -49.8 L-8.85 -50.05 Q-9.45 -52.35 -11.95 -52.4 L-12.6 -52.35 Q-13.6 -52.25 -14.1 -51.45 L-14.1 -51.2" fill="#000000" fill-rule="evenodd" stroke="none"/>
    <path d="M11.55 -65.75 L13.6 -64.85 Q13.0 -61.1 8.95 -61.55 7.1 -63.05 9.55 -64.75 L11.55 -65.75 M27.0 -87.95 L28.55 -87.55 Q29.15 -87.2 29.15 -86.65 29.15 -86.1 28.55 -85.7 27.9 -85.35 27.0 -85.35 26.1 -85.35 25.5 -85.7 24.85 -86.1 24.85 -86.65 24.85 -87.2 25.5 -87.55 26.1 -87.95 27.0 -87.95 M14.2 -46.2 L14.1 -46.55 Q14.9 -52.4 18.8 -49.7 18.1 -45.85 14.2 -46.2 M-24.4 -85.8 Q-21.05 -84.95 -23.55 -82.4 -26.0 -79.95 -27.4 -82.7 -27.75 -83.45 -27.15 -84.05 -25.85 -85.35 -24.4 -85.8 M-14.1 -51.2 L-14.1 -51.45 Q-13.6 -52.25 -12.6 -52.35 L-11.95 -52.4 Q-9.45 -52.35 -8.85 -50.05 L-8.85 -49.8 Q-11.3 -47.65 -14.1 -50.45 L-14.1 -50.95 -14.1 -51.2" fill="#666666" fill-rule="evenodd" stroke="none"/>
  </g>
</svg>
