<?xml version="1.0" encoding="UTF-8" standalone="no"?>
<svg xmlns:ffdec="https://www.free-decompiler.com/flash" xmlns:xlink="http://www.w3.org/1999/xlink" ffdec:objectType="shape" height="129.2px" width="155.4px" xmlns="http://www.w3.org/2000/svg">
  <g transform="matrix(1.0, 0.0, 0.0, 1.0, 0.0, 0.0)">
    <path d="M81.65 59.3 L81.65 17.9 155.4 129.2 128.75 129.2 81.65 59.3 M75.3 41.4 L26.7 113.55 0.0 113.55 75.3 0.0 75.3 41.4 M63.9 88.8 L67.35 78.1 58.25 71.45 69.5 71.45 73.0 60.75 76.5 71.45 87.75 71.45 78.65 78.1 82.1 88.8 73.0 82.2 63.9 88.8 M34.05 113.4 L48.8 91.2 95.5 91.45 109.15 113.25 34.05 113.4" fill="#a80000" fill-rule="evenodd" stroke="none"/>
  </g>
</svg>
