<?xml version="1.0" encoding="UTF-8" standalone="no"?>
<svg xmlns:ffdec="https://www.free-decompiler.com/flash" xmlns:xlink="http://www.w3.org/1999/xlink" ffdec:objectType="shape" height="81.0px" width="253.95px" xmlns="http://www.w3.org/2000/svg">
  <g transform="matrix(1.0, 0.0, 0.0, 1.0, 0.0, 40.5)">
    <path d="M54.5 -40.5 L204.5 -40.5 204.5 40.5 54.5 40.5 54.5 -40.5" fill="#6d5380" fill-rule="evenodd" stroke="none"/>
    <path d="M54.5 40.5 L0.0 40.5 0.0 -40.5 54.5 -40.5 54.5 40.5" fill="url(#gradient0)" fill-rule="evenodd" stroke="none"/>
    <path d="M204.5 -40.5 L253.95 -40.5 253.95 40.5 204.5 40.5 204.5 -40.5" fill="url(#gradient1)" fill-rule="evenodd" stroke="none"/>
    <path d="M2.5 -25.9 L2.5 37.25 250.45 37.25 250.45 -37.25 13.85 -37.25" fill="none" stroke="#c5b9dd" stroke-linecap="round" stroke-linejoin="round" stroke-width="0.05"/>
    <path d="M13.85 -37.25 L2.5 -25.9 M3.0 -37.0 L3.0 -31.7 8.3 -37.0 3.0 -37.0 Z" fill="none" stroke="#c5b9dd" stroke-linecap="round" stroke-linejoin="round" stroke-width="0.05"/>
  </g>
  <defs>
    <linearGradient gradientTransform="matrix(-0.0287, 0.0, 0.0, -0.0494, 25.5, 0.0)" gradientUnits="userSpaceOnUse" id="gradient0" spreadMethod="pad" x1="-819.2" x2="819.2">
      <stop offset="0.0" stop-color="#6d5380"/>
      <stop offset="1.0" stop-color="#a69db5"/>
    </linearGradient>
    <linearGradient gradientTransform="matrix(0.0238, 0.0, 0.0, 0.0494, 230.5, 0.0)" gradientUnits="userSpaceOnUse" id="gradient1" spreadMethod="pad" x1="-819.2" x2="819.2">
      <stop offset="0.0" stop-color="#6d5380"/>
      <stop offset="1.0" stop-color="#a69db5"/>
    </linearGradient>
  </defs>
</svg>
