<?xml version="1.0" encoding="UTF-8" standalone="no"?>
<svg xmlns:ffdec="https://www.free-decompiler.com/flash" xmlns:xlink="http://www.w3.org/1999/xlink" ffdec:objectType="shape" height="88.0px" width="9.55px" xmlns="http://www.w3.org/2000/svg">
  <g transform="matrix(1.0, 0.0, 0.0, 1.0, 0.25, 43.8)">
    <path d="M4.5 -41.65 L2.95 -41.65 2.95 -29.7 -0.25 -29.7 -0.25 -43.8 4.5 -43.8 4.5 -41.65 M2.95 28.65 L2.95 42.1 3.75 42.1 3.75 44.2 -0.25 44.2 -0.25 28.65 2.95 28.65" fill="#ffffff" fill-rule="evenodd" stroke="none"/>
    <path d="M4.5 -43.8 L9.3 -43.8 9.3 -41.65 4.5 -41.65 4.5 -43.8 M2.95 -29.7 L2.95 28.65 -0.25 28.65 -0.25 -29.7 2.95 -29.7 M3.75 42.1 L9.15 42.1 9.15 44.2 3.75 44.2 3.75 42.1" fill="#e7def3" fill-rule="evenodd" stroke="none"/>
  </g>
</svg>
