<?xml version="1.0" encoding="UTF-8" standalone="no"?>
<svg xmlns:ffdec="https://www.free-decompiler.com/flash" xmlns:xlink="http://www.w3.org/1999/xlink" ffdec:objectType="shape" height="89.0px" width="89.0px" xmlns="http://www.w3.org/2000/svg">
  <g transform="matrix(1.0, 0.0, 0.0, 1.0, 44.5, 44.5)">
    <path d="M-35.1 -24.1 L-33.4 -23.0 Q-40.5 -12.95 -40.5 0.0 -40.5 4.5 -39.65 8.6 L-39.6 8.9 -42.9 9.75 -43.35 9.95 -43.55 9.4 Q-44.5 4.9 -44.5 0.0 -44.5 -14.25 -36.7 -25.25 L-35.1 -24.1 M40.4 -2.85 L40.4 -3.0 43.5 -3.1 44.4 -3.05 44.5 0.0 Q44.5 3.25 44.15 6.25 L44.15 6.3 Q42.2 20.75 31.5 31.5 18.45 44.5 0.0 44.5 L-5.15 44.25 -5.15 42.85 -5.3 40.2 -5.25 40.2 0.0 40.5 Q16.75 40.5 28.65 28.65 38.4 18.85 40.2 5.75 L40.5 0.0 40.4 -2.85 M29.45 -33.4 L29.85 -33.0 30.55 -31.9 29.95 -31.4 28.1 -29.55 Q27.65 -29.65 27.3 -29.95 L26.6 -30.55 26.7 -30.5 Q15.4 -40.5 0.0 -40.5 -10.15 -40.5 -18.5 -36.15 -19.75 -38.2 -20.75 -39.45 L-20.4 -39.65 Q-11.2 -44.5 0.0 -44.5 16.9 -44.5 29.35 -33.5 L29.45 -33.4" fill="#ffffff" fill-rule="evenodd" stroke="none"/>
  </g>
</svg>
