<?xml version="1.0" encoding="UTF-8" standalone="no"?>
<svg xmlns:ffdec="https://www.free-decompiler.com/flash" xmlns:xlink="http://www.w3.org/1999/xlink" ffdec:objectType="shape" height="42.8px" width="19.8px" xmlns="http://www.w3.org/2000/svg">
  <g transform="matrix(1.0, 0.0, 0.0, 1.0, -25.15, -11.8)">
    <path d="M31.35 17.15 L31.35 24.95 25.15 24.95 25.15 15.65 Q25.15 11.8 29.0 11.8 L40.95 11.8 Q44.95 11.8 44.95 15.65 L44.95 24.5 Q44.95 26.6 43.75 28.2 L37.55 36.6 37.55 44.6 31.35 44.6 31.35 37.35 Q31.35 35.15 32.4 33.65 L38.6 25.25 38.6 17.15 31.35 17.15 M37.7 54.6 L31.2 54.6 31.2 47.95 37.7 47.95 37.7 54.6" fill="#c8ff22" fill-rule="evenodd" stroke="none"/>
  </g>
</svg>
