<?xml version="1.0" encoding="UTF-8" standalone="no"?>
<svg xmlns:ffdec="https://www.free-decompiler.com/flash" xmlns:xlink="http://www.w3.org/1999/xlink" ffdec:objectType="shape" height="72.7px" width="70.0px" xmlns="http://www.w3.org/2000/svg">
  <g transform="matrix(1.0, 0.0, 0.0, 1.0, 0.0, 0.0)">
    <path d="M35.0 0.0 L0.0 17.7 0.0 55.0 35.0 37.3 35.0 0.0 70.0 17.7 70.0 55.0 35.0 72.7 0.0 55.0 M35.0 37.3 L70.0 55.0" fill="none" stroke="#a5f231" stroke-linecap="round" stroke-linejoin="round" stroke-width="0.05"/>
    <path d="M38.5 5.55 L66.5 19.7 66.5 49.5 38.5 35.35 38.5 5.55" fill="#75a010" fill-rule="evenodd" stroke="none"/>
    <path d="M3.9 48.85 L3.9 19.9 31.1 6.15 31.1 35.1 3.9 48.85" fill="#46610a" fill-rule="evenodd" stroke="none"/>
    <path d="M8.95 55.0 L35.0 41.8 61.1 55.0 35.0 68.2 8.95 55.0" fill="#a5f231" fill-rule="evenodd" stroke="none"/>
  </g>
</svg>
