<?xml version="1.0" encoding="UTF-8" standalone="no"?>
<svg xmlns:ffdec="https://www.free-decompiler.com/flash" xmlns:xlink="http://www.w3.org/1999/xlink" ffdec:objectType="shape" height="72.7px" width="70.0px" xmlns="http://www.w3.org/2000/svg">
  <g transform="matrix(1.0, 0.0, 0.0, 1.0, 0.0, 0.0)">
    <path d="M35.0 72.7 L0.0 55.0 0.0 17.7 35.0 35.4 35.0 72.7" fill="#75a010" fill-rule="evenodd" stroke="none"/>
    <path d="M0.0 17.7 L35.0 0.0 70.0 17.7 35.0 35.4 0.0 17.7" fill="#a5f231" fill-rule="evenodd" stroke="none"/>
    <path d="M70.0 17.7 L70.0 55.0 35.0 72.7 35.0 35.4 70.0 17.7" fill="#46610a" fill-rule="evenodd" stroke="none"/>
    <path d="M0.0 17.7 L35.0 0.0 70.0 17.7 70.0 55.0 35.0 72.7 0.0 55.0 0.0 17.7 35.0 35.4 70.0 17.7 M35.0 72.7 L35.0 35.4" fill="none" stroke="#a5f231" stroke-linecap="round" stroke-linejoin="round" stroke-width="0.05"/>
  </g>
</svg>
