<?xml version="1.0" encoding="UTF-8" standalone="no"?>
<svg xmlns:ffdec="https://www.free-decompiler.com/flash" xmlns:xlink="http://www.w3.org/1999/xlink" ffdec:objectType="shape" height="24.0px" width="24.0px" xmlns="http://www.w3.org/2000/svg">
  <g transform="matrix(1.0, 0.0, 0.0, 1.0, 92.0, 12.0)">
    <path d="M-74.0 -6.0 Q-76.5 -8.5 -80.0 -8.5 -83.5 -8.5 -86.0 -6.0 -88.5 -3.5 -88.5 0.0 -88.5 3.5 -86.0 6.0 -83.5 8.5 -80.0 8.5 -76.5 8.5 -74.0 6.0 -71.5 3.5 -71.5 0.0 -71.5 -3.5 -74.0 -6.0 M-71.55 -8.5 Q-68.0 -4.95 -68.0 0.0 -68.0 4.95 -71.55 8.45 -75.05 12.0 -80.0 12.0 -84.95 12.0 -88.5 8.45 -92.0 4.95 -92.0 0.0 -92.0 -4.95 -88.5 -8.5 -84.95 -12.0 -80.0 -12.0 -75.05 -12.0 -71.55 -8.5 M-77.7 -2.3 Q-76.75 -1.35 -76.75 0.0 -76.75 1.35 -77.7 2.3 -78.65 3.25 -80.0 3.25 -81.3 3.25 -82.3 2.3 -83.25 1.35 -83.25 0.0 -83.25 -1.35 -82.3 -2.3 -81.3 -3.25 -80.0 -3.25 -78.65 -3.25 -77.7 -2.3" fill="#8d8e64" fill-rule="evenodd" stroke="none"/>
  </g>
</svg>
