<?xml version="1.0" encoding="UTF-8" standalone="no"?>
<svg xmlns:ffdec="https://www.free-decompiler.com/flash" xmlns:xlink="http://www.w3.org/1999/xlink" ffdec:objectType="shape" height="33.0px" width="33.0px" xmlns="http://www.w3.org/2000/svg">
  <g transform="matrix(1.0, 0.0, 0.0, 1.0, 16.5, 16.5)">
    <path d="M-16.0 -12.0 L-16.0 -7.0 M-10.0 -16.0 L-15.0 -16.0 M10.0 -16.0 L5.0 -16.0 M16.0 -12.0 L16.0 -16.0 15.0 -16.0 M16.0 -2.0 L16.0 -7.0 M0.0 -16.0 L-5.0 -16.0 M16.0 8.0 L16.0 3.0 M14.0 16.0 L16.0 16.0 16.0 13.0 M4.0 16.0 L9.0 16.0 M-16.0 8.0 L-16.0 13.0 M-6.0 16.0 L-1.0 16.0 M-16.0 16.0 L-11.0 16.0 M-16.0 -2.0 L-16.0 3.0" fill="none" stroke="#999999" stroke-linecap="round" stroke-linejoin="round" stroke-width="1.0"/>
  </g>
</svg>
