<?xml version="1.0" encoding="UTF-8" standalone="no"?>
<svg xmlns:ffdec="https://www.free-decompiler.com/flash" xmlns:xlink="http://www.w3.org/1999/xlink" ffdec:objectType="shape" height="32.7px" width="62.4px" xmlns="http://www.w3.org/2000/svg">
  <g transform="matrix(1.0, 0.0, 0.0, 1.0, 33.5, 31.2)">
    <path d="M20.95 -28.05 Q21.4 -28.5 22.0 -28.5 22.6 -28.5 23.05 -28.05 L23.5 -27.0 Q23.5 -26.4 23.05 -25.95 22.6 -25.5 22.0 -25.5 21.4 -25.5 20.95 -25.95 20.5 -26.4 20.5 -27.0 20.5 -27.6 20.95 -28.05 M26.35 -30.75 Q26.8 -31.2 27.4 -31.2 28.0 -31.2 28.45 -30.75 L28.9 -29.7 Q28.9 -29.1 28.45 -28.65 28.0 -28.2 27.4 -28.2 26.8 -28.2 26.35 -28.65 25.9 -29.1 25.9 -29.7 25.9 -30.3 26.35 -30.75 M16.6 -25.8 Q17.2 -25.8 17.65 -25.35 L18.1 -24.3 Q18.1 -23.7 17.65 -23.25 17.2 -22.8 16.6 -22.8 16.0 -22.8 15.55 -23.25 15.1 -23.7 15.1 -24.3 15.1 -24.9 15.55 -25.35 16.0 -25.8 16.6 -25.8 M12.25 -22.65 L12.7 -21.6 Q12.7 -21.0 12.25 -20.55 11.8 -20.1 11.2 -20.1 10.6 -20.1 10.15 -20.55 9.7 -21.0 9.7 -21.6 9.7 -22.2 10.15 -22.65 10.6 -23.1 11.2 -23.1 11.8 -23.1 12.25 -22.65 M7.3 -18.9 Q7.3 -18.3 6.85 -17.85 6.4 -17.4 5.8 -17.4 5.2 -17.4 4.75 -17.85 4.3 -18.3 4.3 -18.9 4.3 -19.5 4.75 -19.95 5.2 -20.4 5.8 -20.4 6.4 -20.4 6.85 -19.95 L7.3 -18.9 M1.45 -17.25 L1.9 -16.2 Q1.9 -15.6 1.45 -15.15 1.0 -14.7 0.4 -14.7 -0.2 -14.7 -0.65 -15.15 -1.1 -15.6 -1.1 -16.2 -1.1 -16.8 -0.65 -17.25 L0.4 -17.7 Q1.0 -17.7 1.45 -17.25 M-32.0 -1.5 Q-31.4 -1.5 -30.95 -1.05 -30.5 -0.6 -30.5 0.0 -30.5 0.6 -30.95 1.05 -31.4 1.5 -32.0 1.5 -32.6 1.5 -33.05 1.05 -33.5 0.6 -33.5 0.0 -33.5 -0.6 -33.05 -1.05 -32.6 -1.5 -32.0 -1.5 M-21.2 -6.9 Q-20.6 -6.9 -20.15 -6.45 -19.7 -6.0 -19.7 -5.4 -19.7 -4.8 -20.15 -4.35 -20.6 -3.9 -21.2 -3.9 -21.8 -3.9 -22.25 -4.35 -22.7 -4.8 -22.7 -5.4 -22.7 -6.0 -22.25 -6.45 -21.8 -6.9 -21.2 -6.9 M-25.55 -3.75 Q-25.1 -3.3 -25.1 -2.7 -25.1 -2.1 -25.55 -1.65 -26.0 -1.2 -26.6 -1.2 -27.2 -1.2 -27.65 -1.65 -28.1 -2.1 -28.1 -2.7 L-27.65 -3.75 Q-27.2 -4.2 -26.6 -4.2 -26.0 -4.2 -25.55 -3.75 M-6.05 -14.55 Q-5.6 -15.0 -5.0 -15.0 -4.4 -15.0 -3.95 -14.55 -3.5 -14.1 -3.5 -13.5 -3.5 -12.9 -3.95 -12.45 -4.4 -12.0 -5.0 -12.0 -5.6 -12.0 -6.05 -12.45 -6.5 -12.9 -6.5 -13.5 -6.5 -14.1 -6.05 -14.55 M-11.45 -11.85 Q-11.0 -12.3 -10.4 -12.3 -9.8 -12.3 -9.35 -11.85 -8.9 -11.4 -8.9 -10.8 -8.9 -10.2 -9.35 -9.75 -9.8 -9.3 -10.4 -9.3 -11.0 -9.3 -11.45 -9.75 -11.9 -10.2 -11.9 -10.8 L-11.45 -11.85 M-14.3 -8.1 Q-14.3 -7.5 -14.75 -7.05 -15.2 -6.6 -15.8 -6.6 -16.4 -6.6 -16.85 -7.05 -17.3 -7.5 -17.3 -8.1 -17.3 -8.7 -16.85 -9.15 -16.4 -9.6 -15.8 -9.6 -15.2 -9.6 -14.75 -9.15 -14.3 -8.7 -14.3 -8.1" fill="#926363" fill-rule="evenodd" stroke="none"/>
  </g>
</svg>
