<?xml version="1.0" encoding="UTF-8" standalone="no"?>
<svg xmlns:ffdec="https://www.free-decompiler.com/flash" xmlns:xlink="http://www.w3.org/1999/xlink" ffdec:objectType="shape" height="29.3px" width="29.3px" xmlns="http://www.w3.org/2000/svg">
  <g transform="matrix(1.0, 0.0, 0.0, 1.0, 14.65, 42.65)">
    <path d="M0.0 -42.65 L0.0 -28.0 14.65 -28.0 M0.0 -28.0 L0.0 -13.35 M-14.65 -28.0 L0.0 -28.0" fill="none" stroke="#000000" stroke-linecap="round" stroke-linejoin="round" stroke-width="0.05"/>
    <path d="M0.0 -20.45 Q-3.1 -20.45 -5.35 -22.7 -7.55 -24.9 -7.55 -28.05 -7.55 -31.15 -5.35 -33.4 -3.1 -35.6 0.0 -35.6 3.15 -35.6 5.35 -33.4 7.6 -31.15 7.6 -28.05 7.6 -24.9 5.35 -22.7 3.15 -20.45 0.0 -20.45 Z" fill="none" stroke="#000000" stroke-linecap="round" stroke-linejoin="round" stroke-width="0.05"/>
    <path d="M7.25 -35.25 Q10.25 -32.25 10.25 -28.0 10.25 -23.75 7.25 -20.75 L7.0 -20.5 6.0 -19.65 Q3.4 -17.75 0.0 -17.75 -4.25 -17.75 -7.25 -20.75 -10.25 -23.75 -10.25 -28.0 -10.25 -32.25 -7.25 -35.25 -4.25 -38.25 0.0 -38.25 4.25 -38.25 7.25 -35.25 Z" fill="none" stroke="#000000" stroke-linecap="round" stroke-linejoin="round" stroke-width="0.05"/>
    <path d="M5.15 -28.0 Q5.15 -25.85 3.65 -24.35 2.15 -22.85 0.0 -22.85 -2.15 -22.85 -3.65 -24.35 -5.15 -25.85 -5.15 -28.0 -5.15 -30.15 -3.65 -31.65 -2.15 -33.15 0.0 -33.15 2.15 -33.15 3.65 -31.65 5.15 -30.15 5.15 -28.0" fill="#999999" fill-rule="evenodd" stroke="none"/>
    <path d="M5.15 -28.0 Q5.15 -25.85 3.65 -24.35 2.15 -22.85 0.0 -22.85 -2.15 -22.85 -3.65 -24.35 -5.15 -25.85 -5.15 -28.0 -5.15 -30.15 -3.65 -31.65 -2.15 -33.15 0.0 -33.15 2.15 -33.15 3.65 -31.65 5.15 -30.15 5.15 -28.0 Z" fill="none" stroke="#000000" stroke-linecap="round" stroke-linejoin="round" stroke-width="0.05"/>
  </g>
</svg>
